<?xml version="1.0" encoding="utf-8" standalone="no"?>
<!DOCTYPE svg PUBLIC "-//W3C//DTD SVG 1.1//EN"
  "http://www.w3.org/Graphics/SVG/1.1/DTD/svg11.dtd">
<svg xmlns:xlink="http://www.w3.org/1999/xlink" width="1008pt" height="288pt" viewBox="0 0 1008 288" xmlns="http://www.w3.org/2000/svg" version="1.1">
 <metadata>
  <rdf:RDF xmlns:dc="http://purl.org/dc/elements/1.1/" xmlns:cc="http://creativecommons.org/ns#" xmlns:rdf="http://www.w3.org/1999/02/22-rdf-syntax-ns#">
   <cc:Work>
    <dc:type rdf:resource="http://purl.org/dc/dcmitype/StillImage"/>
    <dc:date>2024-06-11T17:04:56.414378</dc:date>
    <dc:format>image/svg+xml</dc:format>
    <dc:creator>
     <cc:Agent>
      <dc:title>Matplotlib v3.8.4, https://matplotlib.org/</dc:title>
     </cc:Agent>
    </dc:creator>
   </cc:Work>
  </rdf:RDF>
 </metadata>
 <defs>
  <style type="text/css">*{stroke-linejoin: round; stroke-linecap: butt}</style>
 </defs>
 <g id="figure_1">
  <g id="patch_1">
   <path d="M 0 288 
L 1008 288 
L 1008 0 
L 0 0 
z
" style="fill: #ffffff"/>
  </g>
  <g id="axes_1">
   <g id="patch_2">
    <path d="M 56.372357 118.39 
L 343.706667 118.39 
L 343.706667 26.88 
L 56.372357 26.88 
z
" style="fill: #ffffff"/>
   </g>
   <g id="matplotlib.axis_1">
    <g id="xtick_1">
     <g id="line2d_1">
      <defs>
       <path id="m548ab553d3" d="M 0 0 
L 0 3.5 
" style="stroke: #000000; stroke-width: 0.8"/>
      </defs>
      <g>
       <use xlink:href="#m548ab553d3" x="69.433008" y="118.39" style="stroke: #000000; stroke-width: 0.8"/>
      </g>
     </g>
    </g>
    <g id="xtick_2">
     <g id="line2d_2">
      <g>
       <use xlink:href="#m548ab553d3" x="125.010244" y="118.39" style="stroke: #000000; stroke-width: 0.8"/>
      </g>
     </g>
    </g>
    <g id="xtick_3">
     <g id="line2d_3">
      <g>
       <use xlink:href="#m548ab553d3" x="180.58748" y="118.39" style="stroke: #000000; stroke-width: 0.8"/>
      </g>
     </g>
    </g>
    <g id="xtick_4">
     <g id="line2d_4">
      <g>
       <use xlink:href="#m548ab553d3" x="236.164715" y="118.39" style="stroke: #000000; stroke-width: 0.8"/>
      </g>
     </g>
    </g>
    <g id="xtick_5">
     <g id="line2d_5">
      <g>
       <use xlink:href="#m548ab553d3" x="291.741951" y="118.39" style="stroke: #000000; stroke-width: 0.8"/>
      </g>
     </g>
    </g>
    <g id="xtick_6">
     <g id="line2d_6">
      <g>
       <use xlink:href="#m548ab553d3" x="330.646016" y="118.39" style="stroke: #000000; stroke-width: 0.8"/>
      </g>
     </g>
    </g>
   </g>
   <g id="matplotlib.axis_2">
    <g id="ytick_1">
     <g id="line2d_7">
      <defs>
       <path id="m2f04a0c972" d="M 0 0 
L -3.5 0 
" style="stroke: #000000; stroke-width: 0.8"/>
      </defs>
      <g>
       <use xlink:href="#m2f04a0c972" x="56.372357" y="102.073625" style="stroke: #000000; stroke-width: 0.8"/>
      </g>
     </g>
     <g id="text_1">
      <!-- $\mathdefault{10^{1}}$ -->
      <g transform="translate(28.252357 106.632688) scale(0.12 -0.12)">
       <defs>
        <path id="DejaVuSans-31" d="M 794 531 
L 1825 531 
L 1825 4091 
L 703 3866 
L 703 4441 
L 1819 4666 
L 2450 4666 
L 2450 531 
L 3481 531 
L 3481 0 
L 794 0 
L 794 531 
z
" transform="scale(0.015625)"/>
        <path id="DejaVuSans-30" d="M 2034 4250 
Q 1547 4250 1301 3770 
Q 1056 3291 1056 2328 
Q 1056 1369 1301 889 
Q 1547 409 2034 409 
Q 2525 409 2770 889 
Q 3016 1369 3016 2328 
Q 3016 3291 2770 3770 
Q 2525 4250 2034 4250 
z
M 2034 4750 
Q 2819 4750 3233 4129 
Q 3647 3509 3647 2328 
Q 3647 1150 3233 529 
Q 2819 -91 2034 -91 
Q 1250 -91 836 529 
Q 422 1150 422 2328 
Q 422 3509 836 4129 
Q 1250 4750 2034 4750 
z
" transform="scale(0.015625)"/>
       </defs>
       <use xlink:href="#DejaVuSans-31" transform="translate(0 0.684375)"/>
       <use xlink:href="#DejaVuSans-30" transform="translate(63.623047 0.684375)"/>
       <use xlink:href="#DejaVuSans-31" transform="translate(128.203125 38.965625) scale(0.7)"/>
      </g>
     </g>
    </g>
    <g id="ytick_2">
     <g id="line2d_8">
      <g>
       <use xlink:href="#m2f04a0c972" x="56.372357" y="71.524224" style="stroke: #000000; stroke-width: 0.8"/>
      </g>
     </g>
     <g id="text_2">
      <!-- $\mathdefault{10^{2}}$ -->
      <g transform="translate(28.252357 76.083286) scale(0.12 -0.12)">
       <defs>
        <path id="DejaVuSans-32" d="M 1228 531 
L 3431 531 
L 3431 0 
L 469 0 
L 469 531 
Q 828 903 1448 1529 
Q 2069 2156 2228 2338 
Q 2531 2678 2651 2914 
Q 2772 3150 2772 3378 
Q 2772 3750 2511 3984 
Q 2250 4219 1831 4219 
Q 1534 4219 1204 4116 
Q 875 4013 500 3803 
L 500 4441 
Q 881 4594 1212 4672 
Q 1544 4750 1819 4750 
Q 2544 4750 2975 4387 
Q 3406 4025 3406 3419 
Q 3406 3131 3298 2873 
Q 3191 2616 2906 2266 
Q 2828 2175 2409 1742 
Q 1991 1309 1228 531 
z
" transform="scale(0.015625)"/>
       </defs>
       <use xlink:href="#DejaVuSans-31" transform="translate(0 0.765625)"/>
       <use xlink:href="#DejaVuSans-30" transform="translate(63.623047 0.765625)"/>
       <use xlink:href="#DejaVuSans-32" transform="translate(128.203125 39.046875) scale(0.7)"/>
      </g>
     </g>
    </g>
    <g id="ytick_3">
     <g id="line2d_9">
      <g>
       <use xlink:href="#m2f04a0c972" x="56.372357" y="40.974822" style="stroke: #000000; stroke-width: 0.8"/>
      </g>
     </g>
     <g id="text_3">
      <!-- $\mathdefault{10^{3}}$ -->
      <g transform="translate(28.252357 45.533885) scale(0.12 -0.12)">
       <defs>
        <path id="DejaVuSans-33" d="M 2597 2516 
Q 3050 2419 3304 2112 
Q 3559 1806 3559 1356 
Q 3559 666 3084 287 
Q 2609 -91 1734 -91 
Q 1441 -91 1130 -33 
Q 819 25 488 141 
L 488 750 
Q 750 597 1062 519 
Q 1375 441 1716 441 
Q 2309 441 2620 675 
Q 2931 909 2931 1356 
Q 2931 1769 2642 2001 
Q 2353 2234 1838 2234 
L 1294 2234 
L 1294 2753 
L 1863 2753 
Q 2328 2753 2575 2939 
Q 2822 3125 2822 3475 
Q 2822 3834 2567 4026 
Q 2313 4219 1838 4219 
Q 1578 4219 1281 4162 
Q 984 4106 628 3988 
L 628 4550 
Q 988 4650 1302 4700 
Q 1616 4750 1894 4750 
Q 2613 4750 3031 4423 
Q 3450 4097 3450 3541 
Q 3450 3153 3228 2886 
Q 3006 2619 2597 2516 
z
" transform="scale(0.015625)"/>
       </defs>
       <use xlink:href="#DejaVuSans-31" transform="translate(0 0.765625)"/>
       <use xlink:href="#DejaVuSans-30" transform="translate(63.623047 0.765625)"/>
       <use xlink:href="#DejaVuSans-33" transform="translate(128.203125 39.046875) scale(0.7)"/>
      </g>
     </g>
    </g>
    <g id="ytick_4">
     <g id="line2d_10">
      <defs>
       <path id="m396a0d586d" d="M 0 0 
L -2 0 
" style="stroke: #000000; stroke-width: 0.6"/>
      </defs>
      <g>
       <use xlink:href="#m396a0d586d" x="56.372357" y="118.047258" style="stroke: #000000; stroke-width: 0.6"/>
      </g>
     </g>
    </g>
    <g id="ytick_5">
     <g id="line2d_11">
      <g>
       <use xlink:href="#m396a0d586d" x="56.372357" y="114.230455" style="stroke: #000000; stroke-width: 0.6"/>
      </g>
     </g>
    </g>
    <g id="ytick_6">
     <g id="line2d_12">
      <g>
       <use xlink:href="#m396a0d586d" x="56.372357" y="111.269912" style="stroke: #000000; stroke-width: 0.6"/>
      </g>
     </g>
    </g>
    <g id="ytick_7">
     <g id="line2d_13">
      <g>
       <use xlink:href="#m396a0d586d" x="56.372357" y="108.850972" style="stroke: #000000; stroke-width: 0.6"/>
      </g>
     </g>
    </g>
    <g id="ytick_8">
     <g id="line2d_14">
      <g>
       <use xlink:href="#m396a0d586d" x="56.372357" y="106.805788" style="stroke: #000000; stroke-width: 0.6"/>
      </g>
     </g>
    </g>
    <g id="ytick_9">
     <g id="line2d_15">
      <g>
       <use xlink:href="#m396a0d586d" x="56.372357" y="105.034168" style="stroke: #000000; stroke-width: 0.6"/>
      </g>
     </g>
    </g>
    <g id="ytick_10">
     <g id="line2d_16">
      <g>
       <use xlink:href="#m396a0d586d" x="56.372357" y="103.471489" style="stroke: #000000; stroke-width: 0.6"/>
      </g>
     </g>
    </g>
    <g id="ytick_11">
     <g id="line2d_17">
      <g>
       <use xlink:href="#m396a0d586d" x="56.372357" y="92.877339" style="stroke: #000000; stroke-width: 0.6"/>
      </g>
     </g>
    </g>
    <g id="ytick_12">
     <g id="line2d_18">
      <g>
       <use xlink:href="#m396a0d586d" x="56.372357" y="87.497857" style="stroke: #000000; stroke-width: 0.6"/>
      </g>
     </g>
    </g>
    <g id="ytick_13">
     <g id="line2d_19">
      <g>
       <use xlink:href="#m396a0d586d" x="56.372357" y="83.681053" style="stroke: #000000; stroke-width: 0.6"/>
      </g>
     </g>
    </g>
    <g id="ytick_14">
     <g id="line2d_20">
      <g>
       <use xlink:href="#m396a0d586d" x="56.372357" y="80.72051" style="stroke: #000000; stroke-width: 0.6"/>
      </g>
     </g>
    </g>
    <g id="ytick_15">
     <g id="line2d_21">
      <g>
       <use xlink:href="#m396a0d586d" x="56.372357" y="78.30157" style="stroke: #000000; stroke-width: 0.6"/>
      </g>
     </g>
    </g>
    <g id="ytick_16">
     <g id="line2d_22">
      <g>
       <use xlink:href="#m396a0d586d" x="56.372357" y="76.256386" style="stroke: #000000; stroke-width: 0.6"/>
      </g>
     </g>
    </g>
    <g id="ytick_17">
     <g id="line2d_23">
      <g>
       <use xlink:href="#m396a0d586d" x="56.372357" y="74.484767" style="stroke: #000000; stroke-width: 0.6"/>
      </g>
     </g>
    </g>
    <g id="ytick_18">
     <g id="line2d_24">
      <g>
       <use xlink:href="#m396a0d586d" x="56.372357" y="72.922088" style="stroke: #000000; stroke-width: 0.6"/>
      </g>
     </g>
    </g>
    <g id="ytick_19">
     <g id="line2d_25">
      <g>
       <use xlink:href="#m396a0d586d" x="56.372357" y="62.327938" style="stroke: #000000; stroke-width: 0.6"/>
      </g>
     </g>
    </g>
    <g id="ytick_20">
     <g id="line2d_26">
      <g>
       <use xlink:href="#m396a0d586d" x="56.372357" y="56.948455" style="stroke: #000000; stroke-width: 0.6"/>
      </g>
     </g>
    </g>
    <g id="ytick_21">
     <g id="line2d_27">
      <g>
       <use xlink:href="#m396a0d586d" x="56.372357" y="53.131651" style="stroke: #000000; stroke-width: 0.6"/>
      </g>
     </g>
    </g>
    <g id="ytick_22">
     <g id="line2d_28">
      <g>
       <use xlink:href="#m396a0d586d" x="56.372357" y="50.171108" style="stroke: #000000; stroke-width: 0.6"/>
      </g>
     </g>
    </g>
    <g id="ytick_23">
     <g id="line2d_29">
      <g>
       <use xlink:href="#m396a0d586d" x="56.372357" y="47.752169" style="stroke: #000000; stroke-width: 0.6"/>
      </g>
     </g>
    </g>
    <g id="ytick_24">
     <g id="line2d_30">
      <g>
       <use xlink:href="#m396a0d586d" x="56.372357" y="45.706984" style="stroke: #000000; stroke-width: 0.6"/>
      </g>
     </g>
    </g>
    <g id="ytick_25">
     <g id="line2d_31">
      <g>
       <use xlink:href="#m396a0d586d" x="56.372357" y="43.935365" style="stroke: #000000; stroke-width: 0.6"/>
      </g>
     </g>
    </g>
    <g id="ytick_26">
     <g id="line2d_32">
      <g>
       <use xlink:href="#m396a0d586d" x="56.372357" y="42.372686" style="stroke: #000000; stroke-width: 0.6"/>
      </g>
     </g>
    </g>
    <g id="ytick_27">
     <g id="line2d_33">
      <g>
       <use xlink:href="#m396a0d586d" x="56.372357" y="31.778536" style="stroke: #000000; stroke-width: 0.6"/>
      </g>
     </g>
    </g>
    <g id="text_4">
     <!-- Time (s) -->
     <g transform="translate(21.756732 97.029687) rotate(-90) scale(0.12 -0.12)">
      <defs>
       <path id="DejaVuSans-54" d="M -19 4666 
L 3928 4666 
L 3928 4134 
L 2272 4134 
L 2272 0 
L 1638 0 
L 1638 4134 
L -19 4134 
L -19 4666 
z
" transform="scale(0.015625)"/>
       <path id="DejaVuSans-69" d="M 603 3500 
L 1178 3500 
L 1178 0 
L 603 0 
L 603 3500 
z
M 603 4863 
L 1178 4863 
L 1178 4134 
L 603 4134 
L 603 4863 
z
" transform="scale(0.015625)"/>
       <path id="DejaVuSans-6d" d="M 3328 2828 
Q 3544 3216 3844 3400 
Q 4144 3584 4550 3584 
Q 5097 3584 5394 3201 
Q 5691 2819 5691 2113 
L 5691 0 
L 5113 0 
L 5113 2094 
Q 5113 2597 4934 2840 
Q 4756 3084 4391 3084 
Q 3944 3084 3684 2787 
Q 3425 2491 3425 1978 
L 3425 0 
L 2847 0 
L 2847 2094 
Q 2847 2600 2669 2842 
Q 2491 3084 2119 3084 
Q 1678 3084 1418 2786 
Q 1159 2488 1159 1978 
L 1159 0 
L 581 0 
L 581 3500 
L 1159 3500 
L 1159 2956 
Q 1356 3278 1631 3431 
Q 1906 3584 2284 3584 
Q 2666 3584 2933 3390 
Q 3200 3197 3328 2828 
z
" transform="scale(0.015625)"/>
       <path id="DejaVuSans-65" d="M 3597 1894 
L 3597 1613 
L 953 1613 
Q 991 1019 1311 708 
Q 1631 397 2203 397 
Q 2534 397 2845 478 
Q 3156 559 3463 722 
L 3463 178 
Q 3153 47 2828 -22 
Q 2503 -91 2169 -91 
Q 1331 -91 842 396 
Q 353 884 353 1716 
Q 353 2575 817 3079 
Q 1281 3584 2069 3584 
Q 2775 3584 3186 3129 
Q 3597 2675 3597 1894 
z
M 3022 2063 
Q 3016 2534 2758 2815 
Q 2500 3097 2075 3097 
Q 1594 3097 1305 2825 
Q 1016 2553 972 2059 
L 3022 2063 
z
" transform="scale(0.015625)"/>
       <path id="DejaVuSans-20" transform="scale(0.015625)"/>
       <path id="DejaVuSans-28" d="M 1984 4856 
Q 1566 4138 1362 3434 
Q 1159 2731 1159 2009 
Q 1159 1288 1364 580 
Q 1569 -128 1984 -844 
L 1484 -844 
Q 1016 -109 783 600 
Q 550 1309 550 2009 
Q 550 2706 781 3412 
Q 1013 4119 1484 4856 
L 1984 4856 
z
" transform="scale(0.015625)"/>
       <path id="DejaVuSans-73" d="M 2834 3397 
L 2834 2853 
Q 2591 2978 2328 3040 
Q 2066 3103 1784 3103 
Q 1356 3103 1142 2972 
Q 928 2841 928 2578 
Q 928 2378 1081 2264 
Q 1234 2150 1697 2047 
L 1894 2003 
Q 2506 1872 2764 1633 
Q 3022 1394 3022 966 
Q 3022 478 2636 193 
Q 2250 -91 1575 -91 
Q 1294 -91 989 -36 
Q 684 19 347 128 
L 347 722 
Q 666 556 975 473 
Q 1284 391 1588 391 
Q 1994 391 2212 530 
Q 2431 669 2431 922 
Q 2431 1156 2273 1281 
Q 2116 1406 1581 1522 
L 1381 1569 
Q 847 1681 609 1914 
Q 372 2147 372 2553 
Q 372 3047 722 3315 
Q 1072 3584 1716 3584 
Q 2034 3584 2315 3537 
Q 2597 3491 2834 3397 
z
" transform="scale(0.015625)"/>
       <path id="DejaVuSans-29" d="M 513 4856 
L 1013 4856 
Q 1481 4119 1714 3412 
Q 1947 2706 1947 2009 
Q 1947 1309 1714 600 
Q 1481 -109 1013 -844 
L 513 -844 
Q 928 -128 1133 580 
Q 1338 1288 1338 2009 
Q 1338 2731 1133 3434 
Q 928 4138 513 4856 
z
" transform="scale(0.015625)"/>
      </defs>
      <use xlink:href="#DejaVuSans-54"/>
      <use xlink:href="#DejaVuSans-69" x="57.958984"/>
      <use xlink:href="#DejaVuSans-6d" x="85.742188"/>
      <use xlink:href="#DejaVuSans-65" x="183.154297"/>
      <use xlink:href="#DejaVuSans-20" x="244.677734"/>
      <use xlink:href="#DejaVuSans-28" x="276.464844"/>
      <use xlink:href="#DejaVuSans-73" x="315.478516"/>
      <use xlink:href="#DejaVuSans-29" x="367.578125"/>
     </g>
    </g>
   </g>
   <g id="line2d_34">
    <path d="M 69.433008 92.877339 
L 74.990731 92.877339 
L 80.548455 92.877339 
L 86.106179 92.877339 
L 91.663902 92.877339 
L 97.221626 92.877339 
L 102.779349 92.877339 
L 108.337073 92.877339 
L 113.894797 92.877339 
L 119.45252 92.877339 
L 125.010244 92.877339 
L 130.567967 92.877339 
L 136.125691 92.877339 
L 141.683414 92.877339 
L 147.241138 92.877339 
L 152.798862 92.877339 
L 158.356585 92.877339 
L 163.914309 92.877339 
L 169.472032 92.877339 
L 175.029756 92.877339 
L 180.58748 92.877339 
L 186.145203 92.877339 
L 191.702927 92.877339 
L 197.26065 92.877339 
L 202.818374 92.877339 
L 208.376097 92.877339 
L 213.933821 92.877339 
L 219.491545 92.877339 
L 225.049268 92.877339 
L 230.606992 92.877339 
L 236.164715 92.877339 
L 241.722439 92.877339 
L 247.280163 92.877339 
L 252.837886 92.877339 
L 258.39561 92.877339 
L 263.953333 92.877339 
L 269.511057 92.877339 
L 275.06878 92.877339 
L 280.626504 92.877339 
L 286.184228 92.877339 
L 291.741951 92.877339 
L 297.299675 92.877339 
L 302.857398 92.877339 
L 308.415122 92.877339 
L 313.972845 92.877339 
L 319.530569 92.877339 
L 325.088293 92.877339 
L 330.646016 92.877339 
" clip-path="url(#pf54e3e23ed)" style="fill: none; stroke: #1f77b4; stroke-width: 1.5; stroke-linecap: square"/>
   </g>
   <g id="line2d_35">
    <path d="M 69.433008 71.545469 
L 74.990731 67.986293 
L 80.548455 64.072292 
L 86.106179 61.015258 
L 91.663902 58.279658 
L 97.221626 56.333184 
L 102.779349 55.022071 
L 108.337073 53.324091 
L 113.894797 52.110576 
L 119.45252 50.730413 
L 125.010244 49.889661 
L 130.567967 48.789388 
L 136.125691 47.730958 
L 141.683414 46.724543 
L 147.241138 45.936398 
L 152.798862 45.215817 
L 158.356585 44.366865 
L 163.914309 43.496905 
L 169.472032 43.172303 
L 175.029756 42.039614 
L 180.58748 41.32325 
L 186.145203 41.081389 
L 191.702927 40.668459 
L 197.26065 40.147782 
L 202.818374 39.593101 
L 208.376097 38.994694 
L 213.933821 38.584217 
L 219.491545 38.090067 
L 225.049268 37.404413 
L 230.606992 37.243203 
L 236.164715 36.801965 
L 241.722439 36.255403 
L 247.280163 35.707614 
L 252.837886 35.514918 
L 258.39561 34.974665 
L 263.953333 34.829606 
L 269.511057 34.570333 
L 275.06878 34.172874 
L 280.626504 33.620088 
L 286.184228 33.493869 
L 291.741951 33.169326 
L 297.299675 32.769926 
L 302.857398 32.633382 
L 308.415122 32.298045 
L 313.972845 31.893665 
L 319.530569 31.727687 
L 325.088293 31.344184 
L 330.646016 31.039545 
" clip-path="url(#pf54e3e23ed)" style="fill: none; stroke: #ff7f0e; stroke-width: 1.5; stroke-linecap: square"/>
   </g>
   <g id="line2d_36">
    <path d="M 69.433008 114.230455 
L 74.990731 114.230455 
L 80.548455 114.230455 
L 86.106179 114.230455 
L 91.663902 114.230455 
L 97.221626 114.230455 
L 102.779349 114.230455 
L 108.337073 114.230455 
L 113.894797 114.230455 
L 119.45252 114.230455 
L 125.010244 114.230455 
L 130.567967 114.230455 
L 136.125691 114.230455 
L 141.683414 114.230455 
L 147.241138 114.230455 
L 152.798862 114.230455 
L 158.356585 114.230455 
L 163.914309 114.230455 
L 169.472032 114.230455 
L 175.029756 114.230455 
L 180.58748 114.230455 
L 186.145203 114.230455 
L 191.702927 114.230455 
L 197.26065 114.230455 
L 202.818374 114.230455 
L 208.376097 114.230455 
L 213.933821 114.230455 
L 219.491545 114.230455 
L 225.049268 114.230455 
L 230.606992 114.230455 
L 236.164715 114.230455 
L 241.722439 114.230455 
L 247.280163 114.230455 
L 252.837886 114.230455 
L 258.39561 114.230455 
L 263.953333 114.230455 
L 269.511057 114.230455 
L 275.06878 114.230455 
L 280.626504 114.230455 
L 286.184228 114.230455 
L 291.741951 114.230455 
L 297.299675 114.230455 
L 302.857398 114.230455 
L 308.415122 114.230455 
L 313.972845 114.230455 
L 319.530569 114.230455 
L 325.088293 114.230455 
L 330.646016 114.230455 
" clip-path="url(#pf54e3e23ed)" style="fill: none; stroke: #2ca02c; stroke-width: 1.5; stroke-linecap: square"/>
   </g>
   <g id="patch_3">
    <path d="M 56.372357 118.39 
L 56.372357 26.88 
" style="fill: none; stroke: #000000; stroke-width: 0.8; stroke-linejoin: miter; stroke-linecap: square"/>
   </g>
   <g id="patch_4">
    <path d="M 343.706667 118.39 
L 343.706667 26.88 
" style="fill: none; stroke: #000000; stroke-width: 0.8; stroke-linejoin: miter; stroke-linecap: square"/>
   </g>
   <g id="patch_5">
    <path d="M 56.372357 118.39 
L 343.706667 118.39 
" style="fill: none; stroke: #000000; stroke-width: 0.8; stroke-linejoin: miter; stroke-linecap: square"/>
   </g>
   <g id="patch_6">
    <path d="M 56.372357 26.88 
L 343.706667 26.88 
" style="fill: none; stroke: #000000; stroke-width: 0.8; stroke-linejoin: miter; stroke-linecap: square"/>
   </g>
   <g id="text_5">
    <!-- $n = 2$ -->
    <g transform="translate(185.039512 20.88) scale(0.12 -0.12)">
     <defs>
      <path id="DejaVuSans-Oblique-6e" d="M 3566 2113 
L 3156 0 
L 2578 0 
L 2988 2091 
Q 3016 2238 3031 2350 
Q 3047 2463 3047 2528 
Q 3047 2791 2881 2937 
Q 2716 3084 2419 3084 
Q 1956 3084 1622 2776 
Q 1288 2469 1184 1941 
L 800 0 
L 225 0 
L 903 3500 
L 1478 3500 
L 1363 2950 
Q 1603 3253 1940 3418 
Q 2278 3584 2650 3584 
Q 3113 3584 3367 3334 
Q 3622 3084 3622 2631 
Q 3622 2519 3608 2391 
Q 3594 2263 3566 2113 
z
" transform="scale(0.015625)"/>
      <path id="DejaVuSans-3d" d="M 678 2906 
L 4684 2906 
L 4684 2381 
L 678 2381 
L 678 2906 
z
M 678 1631 
L 4684 1631 
L 4684 1100 
L 678 1100 
L 678 1631 
z
" transform="scale(0.015625)"/>
     </defs>
     <use xlink:href="#DejaVuSans-Oblique-6e" transform="translate(0 0.78125)"/>
     <use xlink:href="#DejaVuSans-3d" transform="translate(82.861328 0.78125)"/>
     <use xlink:href="#DejaVuSans-32" transform="translate(186.132812 0.78125)"/>
    </g>
   </g>
   <g id="legend_1">
    <g id="patch_7">
     <path d="M 63.372357 78.914375 
L 255.294232 78.914375 
Q 257.294232 78.914375 257.294232 76.914375 
L 257.294232 33.88 
Q 257.294232 31.88 255.294232 31.88 
L 63.372357 31.88 
Q 61.372357 31.88 61.372357 33.88 
L 61.372357 76.914375 
Q 61.372357 78.914375 63.372357 78.914375 
z
" style="fill: #ffffff; opacity: 0.8; stroke: #cccccc; stroke-linejoin: miter"/>
    </g>
    <g id="line2d_37">
     <path d="M 65.372357 39.978438 
L 75.372357 39.978438 
L 85.372357 39.978438 
" style="fill: none; stroke: #1f77b4; stroke-width: 1.5; stroke-linecap: square"/>
    </g>
    <g id="text_6">
     <!-- Matrix multiplication -->
     <g transform="translate(93.372357 43.478438) scale(0.1 -0.1)">
      <defs>
       <path id="DejaVuSans-4d" d="M 628 4666 
L 1569 4666 
L 2759 1491 
L 3956 4666 
L 4897 4666 
L 4897 0 
L 4281 0 
L 4281 4097 
L 3078 897 
L 2444 897 
L 1241 4097 
L 1241 0 
L 628 0 
L 628 4666 
z
" transform="scale(0.015625)"/>
       <path id="DejaVuSans-61" d="M 2194 1759 
Q 1497 1759 1228 1600 
Q 959 1441 959 1056 
Q 959 750 1161 570 
Q 1363 391 1709 391 
Q 2188 391 2477 730 
Q 2766 1069 2766 1631 
L 2766 1759 
L 2194 1759 
z
M 3341 1997 
L 3341 0 
L 2766 0 
L 2766 531 
Q 2569 213 2275 61 
Q 1981 -91 1556 -91 
Q 1019 -91 701 211 
Q 384 513 384 1019 
Q 384 1609 779 1909 
Q 1175 2209 1959 2209 
L 2766 2209 
L 2766 2266 
Q 2766 2663 2505 2880 
Q 2244 3097 1772 3097 
Q 1472 3097 1187 3025 
Q 903 2953 641 2809 
L 641 3341 
Q 956 3463 1253 3523 
Q 1550 3584 1831 3584 
Q 2591 3584 2966 3190 
Q 3341 2797 3341 1997 
z
" transform="scale(0.015625)"/>
       <path id="DejaVuSans-74" d="M 1172 4494 
L 1172 3500 
L 2356 3500 
L 2356 3053 
L 1172 3053 
L 1172 1153 
Q 1172 725 1289 603 
Q 1406 481 1766 481 
L 2356 481 
L 2356 0 
L 1766 0 
Q 1100 0 847 248 
Q 594 497 594 1153 
L 594 3053 
L 172 3053 
L 172 3500 
L 594 3500 
L 594 4494 
L 1172 4494 
z
" transform="scale(0.015625)"/>
       <path id="DejaVuSans-72" d="M 2631 2963 
Q 2534 3019 2420 3045 
Q 2306 3072 2169 3072 
Q 1681 3072 1420 2755 
Q 1159 2438 1159 1844 
L 1159 0 
L 581 0 
L 581 3500 
L 1159 3500 
L 1159 2956 
Q 1341 3275 1631 3429 
Q 1922 3584 2338 3584 
Q 2397 3584 2469 3576 
Q 2541 3569 2628 3553 
L 2631 2963 
z
" transform="scale(0.015625)"/>
       <path id="DejaVuSans-78" d="M 3513 3500 
L 2247 1797 
L 3578 0 
L 2900 0 
L 1881 1375 
L 863 0 
L 184 0 
L 1544 1831 
L 300 3500 
L 978 3500 
L 1906 2253 
L 2834 3500 
L 3513 3500 
z
" transform="scale(0.015625)"/>
       <path id="DejaVuSans-75" d="M 544 1381 
L 544 3500 
L 1119 3500 
L 1119 1403 
Q 1119 906 1312 657 
Q 1506 409 1894 409 
Q 2359 409 2629 706 
Q 2900 1003 2900 1516 
L 2900 3500 
L 3475 3500 
L 3475 0 
L 2900 0 
L 2900 538 
Q 2691 219 2414 64 
Q 2138 -91 1772 -91 
Q 1169 -91 856 284 
Q 544 659 544 1381 
z
M 1991 3584 
L 1991 3584 
z
" transform="scale(0.015625)"/>
       <path id="DejaVuSans-6c" d="M 603 4863 
L 1178 4863 
L 1178 0 
L 603 0 
L 603 4863 
z
" transform="scale(0.015625)"/>
       <path id="DejaVuSans-70" d="M 1159 525 
L 1159 -1331 
L 581 -1331 
L 581 3500 
L 1159 3500 
L 1159 2969 
Q 1341 3281 1617 3432 
Q 1894 3584 2278 3584 
Q 2916 3584 3314 3078 
Q 3713 2572 3713 1747 
Q 3713 922 3314 415 
Q 2916 -91 2278 -91 
Q 1894 -91 1617 61 
Q 1341 213 1159 525 
z
M 3116 1747 
Q 3116 2381 2855 2742 
Q 2594 3103 2138 3103 
Q 1681 3103 1420 2742 
Q 1159 2381 1159 1747 
Q 1159 1113 1420 752 
Q 1681 391 2138 391 
Q 2594 391 2855 752 
Q 3116 1113 3116 1747 
z
" transform="scale(0.015625)"/>
       <path id="DejaVuSans-63" d="M 3122 3366 
L 3122 2828 
Q 2878 2963 2633 3030 
Q 2388 3097 2138 3097 
Q 1578 3097 1268 2742 
Q 959 2388 959 1747 
Q 959 1106 1268 751 
Q 1578 397 2138 397 
Q 2388 397 2633 464 
Q 2878 531 3122 666 
L 3122 134 
Q 2881 22 2623 -34 
Q 2366 -91 2075 -91 
Q 1284 -91 818 406 
Q 353 903 353 1747 
Q 353 2603 823 3093 
Q 1294 3584 2113 3584 
Q 2378 3584 2631 3529 
Q 2884 3475 3122 3366 
z
" transform="scale(0.015625)"/>
       <path id="DejaVuSans-6f" d="M 1959 3097 
Q 1497 3097 1228 2736 
Q 959 2375 959 1747 
Q 959 1119 1226 758 
Q 1494 397 1959 397 
Q 2419 397 2687 759 
Q 2956 1122 2956 1747 
Q 2956 2369 2687 2733 
Q 2419 3097 1959 3097 
z
M 1959 3584 
Q 2709 3584 3137 3096 
Q 3566 2609 3566 1747 
Q 3566 888 3137 398 
Q 2709 -91 1959 -91 
Q 1206 -91 779 398 
Q 353 888 353 1747 
Q 353 2609 779 3096 
Q 1206 3584 1959 3584 
z
" transform="scale(0.015625)"/>
       <path id="DejaVuSans-6e" d="M 3513 2113 
L 3513 0 
L 2938 0 
L 2938 2094 
Q 2938 2591 2744 2837 
Q 2550 3084 2163 3084 
Q 1697 3084 1428 2787 
Q 1159 2491 1159 1978 
L 1159 0 
L 581 0 
L 581 3500 
L 1159 3500 
L 1159 2956 
Q 1366 3272 1645 3428 
Q 1925 3584 2291 3584 
Q 2894 3584 3203 3211 
Q 3513 2838 3513 2113 
z
" transform="scale(0.015625)"/>
      </defs>
      <use xlink:href="#DejaVuSans-4d"/>
      <use xlink:href="#DejaVuSans-61" x="86.279297"/>
      <use xlink:href="#DejaVuSans-74" x="147.558594"/>
      <use xlink:href="#DejaVuSans-72" x="186.767578"/>
      <use xlink:href="#DejaVuSans-69" x="227.880859"/>
      <use xlink:href="#DejaVuSans-78" x="255.664062"/>
      <use xlink:href="#DejaVuSans-20" x="314.84375"/>
      <use xlink:href="#DejaVuSans-6d" x="346.630859"/>
      <use xlink:href="#DejaVuSans-75" x="444.042969"/>
      <use xlink:href="#DejaVuSans-6c" x="507.421875"/>
      <use xlink:href="#DejaVuSans-74" x="535.205078"/>
      <use xlink:href="#DejaVuSans-69" x="574.414062"/>
      <use xlink:href="#DejaVuSans-70" x="602.197266"/>
      <use xlink:href="#DejaVuSans-6c" x="665.673828"/>
      <use xlink:href="#DejaVuSans-69" x="693.457031"/>
      <use xlink:href="#DejaVuSans-63" x="721.240234"/>
      <use xlink:href="#DejaVuSans-61" x="776.220703"/>
      <use xlink:href="#DejaVuSans-74" x="837.5"/>
      <use xlink:href="#DejaVuSans-69" x="876.708984"/>
      <use xlink:href="#DejaVuSans-6f" x="904.492188"/>
      <use xlink:href="#DejaVuSans-6e" x="965.673828"/>
     </g>
    </g>
    <g id="line2d_38">
     <path d="M 65.372357 54.656563 
L 75.372357 54.656563 
L 85.372357 54.656563 
" style="fill: none; stroke: #ff7f0e; stroke-width: 1.5; stroke-linecap: square"/>
    </g>
    <g id="text_7">
     <!-- Matrix multiplication (Proposed) -->
     <g transform="translate(93.372357 58.156563) scale(0.1 -0.1)">
      <defs>
       <path id="DejaVuSans-50" d="M 1259 4147 
L 1259 2394 
L 2053 2394 
Q 2494 2394 2734 2622 
Q 2975 2850 2975 3272 
Q 2975 3691 2734 3919 
Q 2494 4147 2053 4147 
L 1259 4147 
z
M 628 4666 
L 2053 4666 
Q 2838 4666 3239 4311 
Q 3641 3956 3641 3272 
Q 3641 2581 3239 2228 
Q 2838 1875 2053 1875 
L 1259 1875 
L 1259 0 
L 628 0 
L 628 4666 
z
" transform="scale(0.015625)"/>
       <path id="DejaVuSans-64" d="M 2906 2969 
L 2906 4863 
L 3481 4863 
L 3481 0 
L 2906 0 
L 2906 525 
Q 2725 213 2448 61 
Q 2172 -91 1784 -91 
Q 1150 -91 751 415 
Q 353 922 353 1747 
Q 353 2572 751 3078 
Q 1150 3584 1784 3584 
Q 2172 3584 2448 3432 
Q 2725 3281 2906 2969 
z
M 947 1747 
Q 947 1113 1208 752 
Q 1469 391 1925 391 
Q 2381 391 2643 752 
Q 2906 1113 2906 1747 
Q 2906 2381 2643 2742 
Q 2381 3103 1925 3103 
Q 1469 3103 1208 2742 
Q 947 2381 947 1747 
z
" transform="scale(0.015625)"/>
      </defs>
      <use xlink:href="#DejaVuSans-4d"/>
      <use xlink:href="#DejaVuSans-61" x="86.279297"/>
      <use xlink:href="#DejaVuSans-74" x="147.558594"/>
      <use xlink:href="#DejaVuSans-72" x="186.767578"/>
      <use xlink:href="#DejaVuSans-69" x="227.880859"/>
      <use xlink:href="#DejaVuSans-78" x="255.664062"/>
      <use xlink:href="#DejaVuSans-20" x="314.84375"/>
      <use xlink:href="#DejaVuSans-6d" x="346.630859"/>
      <use xlink:href="#DejaVuSans-75" x="444.042969"/>
      <use xlink:href="#DejaVuSans-6c" x="507.421875"/>
      <use xlink:href="#DejaVuSans-74" x="535.205078"/>
      <use xlink:href="#DejaVuSans-69" x="574.414062"/>
      <use xlink:href="#DejaVuSans-70" x="602.197266"/>
      <use xlink:href="#DejaVuSans-6c" x="665.673828"/>
      <use xlink:href="#DejaVuSans-69" x="693.457031"/>
      <use xlink:href="#DejaVuSans-63" x="721.240234"/>
      <use xlink:href="#DejaVuSans-61" x="776.220703"/>
      <use xlink:href="#DejaVuSans-74" x="837.5"/>
      <use xlink:href="#DejaVuSans-69" x="876.708984"/>
      <use xlink:href="#DejaVuSans-6f" x="904.492188"/>
      <use xlink:href="#DejaVuSans-6e" x="965.673828"/>
      <use xlink:href="#DejaVuSans-20" x="1029.052734"/>
      <use xlink:href="#DejaVuSans-28" x="1060.839844"/>
      <use xlink:href="#DejaVuSans-50" x="1099.853516"/>
      <use xlink:href="#DejaVuSans-72" x="1158.40625"/>
      <use xlink:href="#DejaVuSans-6f" x="1197.269531"/>
      <use xlink:href="#DejaVuSans-70" x="1258.451172"/>
      <use xlink:href="#DejaVuSans-6f" x="1321.927734"/>
      <use xlink:href="#DejaVuSans-73" x="1383.109375"/>
      <use xlink:href="#DejaVuSans-65" x="1435.208984"/>
      <use xlink:href="#DejaVuSans-64" x="1496.732422"/>
      <use xlink:href="#DejaVuSans-29" x="1560.208984"/>
     </g>
    </g>
    <g id="line2d_39">
     <path d="M 65.372357 69.334688 
L 75.372357 69.334688 
L 85.372357 69.334688 
" style="fill: none; stroke: #2ca02c; stroke-width: 1.5; stroke-linecap: square"/>
    </g>
    <g id="text_8">
     <!-- Qiskit -->
     <g transform="translate(93.372357 72.834688) scale(0.1 -0.1)">
      <defs>
       <path id="DejaVuSans-51" d="M 2522 4238 
Q 1834 4238 1429 3725 
Q 1025 3213 1025 2328 
Q 1025 1447 1429 934 
Q 1834 422 2522 422 
Q 3209 422 3611 934 
Q 4013 1447 4013 2328 
Q 4013 3213 3611 3725 
Q 3209 4238 2522 4238 
z
M 3406 84 
L 4238 -825 
L 3475 -825 
L 2784 -78 
Q 2681 -84 2626 -87 
Q 2572 -91 2522 -91 
Q 1538 -91 948 567 
Q 359 1225 359 2328 
Q 359 3434 948 4092 
Q 1538 4750 2522 4750 
Q 3503 4750 4090 4092 
Q 4678 3434 4678 2328 
Q 4678 1516 4351 937 
Q 4025 359 3406 84 
z
" transform="scale(0.015625)"/>
       <path id="DejaVuSans-6b" d="M 581 4863 
L 1159 4863 
L 1159 1991 
L 2875 3500 
L 3609 3500 
L 1753 1863 
L 3688 0 
L 2938 0 
L 1159 1709 
L 1159 0 
L 581 0 
L 581 4863 
z
" transform="scale(0.015625)"/>
      </defs>
      <use xlink:href="#DejaVuSans-51"/>
      <use xlink:href="#DejaVuSans-69" x="78.710938"/>
      <use xlink:href="#DejaVuSans-73" x="106.494141"/>
      <use xlink:href="#DejaVuSans-6b" x="158.59375"/>
      <use xlink:href="#DejaVuSans-69" x="216.503906"/>
      <use xlink:href="#DejaVuSans-74" x="244.287109"/>
     </g>
    </g>
   </g>
  </g>
  <g id="axes_2">
   <g id="patch_8">
    <path d="M 383.119024 118.39 
L 670.453333 118.39 
L 670.453333 26.88 
L 383.119024 26.88 
z
" style="fill: #ffffff"/>
   </g>
   <g id="matplotlib.axis_3">
    <g id="xtick_7">
     <g id="line2d_40">
      <g>
       <use xlink:href="#m548ab553d3" x="396.179675" y="118.39" style="stroke: #000000; stroke-width: 0.8"/>
      </g>
     </g>
    </g>
    <g id="xtick_8">
     <g id="line2d_41">
      <g>
       <use xlink:href="#m548ab553d3" x="451.75691" y="118.39" style="stroke: #000000; stroke-width: 0.8"/>
      </g>
     </g>
    </g>
    <g id="xtick_9">
     <g id="line2d_42">
      <g>
       <use xlink:href="#m548ab553d3" x="507.334146" y="118.39" style="stroke: #000000; stroke-width: 0.8"/>
      </g>
     </g>
    </g>
    <g id="xtick_10">
     <g id="line2d_43">
      <g>
       <use xlink:href="#m548ab553d3" x="562.911382" y="118.39" style="stroke: #000000; stroke-width: 0.8"/>
      </g>
     </g>
    </g>
    <g id="xtick_11">
     <g id="line2d_44">
      <g>
       <use xlink:href="#m548ab553d3" x="618.488618" y="118.39" style="stroke: #000000; stroke-width: 0.8"/>
      </g>
     </g>
    </g>
    <g id="xtick_12">
     <g id="line2d_45">
      <g>
       <use xlink:href="#m548ab553d3" x="657.392683" y="118.39" style="stroke: #000000; stroke-width: 0.8"/>
      </g>
     </g>
    </g>
   </g>
   <g id="matplotlib.axis_4">
    <g id="ytick_28">
     <g id="line2d_46">
      <g>
       <use xlink:href="#m2f04a0c972" x="383.119024" y="85.337086" style="stroke: #000000; stroke-width: 0.8"/>
      </g>
     </g>
     <g id="text_9">
      <!-- $\mathdefault{10^{2}}$ -->
      <g transform="translate(354.999024 89.896149) scale(0.12 -0.12)">
       <use xlink:href="#DejaVuSans-31" transform="translate(0 0.765625)"/>
       <use xlink:href="#DejaVuSans-30" transform="translate(63.623047 0.765625)"/>
       <use xlink:href="#DejaVuSans-32" transform="translate(128.203125 39.046875) scale(0.7)"/>
      </g>
     </g>
    </g>
    <g id="ytick_29">
     <g id="line2d_47">
      <g>
       <use xlink:href="#m2f04a0c972" x="383.119024" y="32.655704" style="stroke: #000000; stroke-width: 0.8"/>
      </g>
     </g>
     <g id="text_10">
      <!-- $\mathdefault{10^{4}}$ -->
      <g transform="translate(354.999024 37.214766) scale(0.12 -0.12)">
       <defs>
        <path id="DejaVuSans-34" d="M 2419 4116 
L 825 1625 
L 2419 1625 
L 2419 4116 
z
M 2253 4666 
L 3047 4666 
L 3047 1625 
L 3713 1625 
L 3713 1100 
L 3047 1100 
L 3047 0 
L 2419 0 
L 2419 1100 
L 313 1100 
L 313 1709 
L 2253 4666 
z
" transform="scale(0.015625)"/>
       </defs>
       <use xlink:href="#DejaVuSans-31" transform="translate(0 0.684375)"/>
       <use xlink:href="#DejaVuSans-30" transform="translate(63.623047 0.684375)"/>
       <use xlink:href="#DejaVuSans-34" transform="translate(128.203125 38.965625) scale(0.7)"/>
      </g>
     </g>
    </g>
   </g>
   <g id="line2d_48">
    <path d="M 396.179675 89.095047 
L 401.737398 89.095047 
L 407.295122 89.095047 
L 412.852845 89.095047 
L 418.410569 89.095047 
L 423.968292 89.095047 
L 429.526016 89.095047 
L 435.08374 89.095047 
L 440.641463 89.095047 
L 446.199187 89.095047 
L 451.75691 89.095047 
L 457.314634 89.095047 
L 462.872358 89.095047 
L 468.430081 89.095047 
L 473.987805 89.095047 
L 479.545528 89.095047 
L 485.103252 89.095047 
L 490.660975 89.095047 
L 496.218699 89.095047 
L 501.776423 89.095047 
L 507.334146 89.095047 
L 512.89187 89.095047 
L 518.449593 89.095047 
L 524.007317 89.095047 
L 529.565041 89.095047 
L 535.122764 89.095047 
L 540.680488 89.095047 
L 546.238211 89.095047 
L 551.795935 89.095047 
L 557.353658 89.095047 
L 562.911382 89.095047 
L 568.469106 89.095047 
L 574.026829 89.095047 
L 579.584553 89.095047 
L 585.142276 89.095047 
L 590.7 89.095047 
L 596.257723 89.095047 
L 601.815447 89.095047 
L 607.373171 89.095047 
L 612.930894 89.095047 
L 618.488618 89.095047 
L 624.046341 89.095047 
L 629.604065 89.095047 
L 635.161789 89.095047 
L 640.719512 89.095047 
L 646.277236 89.095047 
L 651.834959 89.095047 
L 657.392683 89.095047 
" clip-path="url(#pf7bc9e18b7)" style="fill: none; stroke: #1f77b4; stroke-width: 1.5; stroke-linecap: square"/>
   </g>
   <g id="line2d_49">
    <path d="M 396.179675 67.061987 
L 401.737398 62.443396 
L 407.295122 59.616937 
L 412.852845 56.687163 
L 418.410569 55.31321 
L 423.968292 53.206317 
L 429.526016 51.610564 
L 435.08374 50.278537 
L 440.641463 49.32195 
L 446.199187 48.277443 
L 451.75691 47.163165 
L 457.314634 45.949556 
L 462.872358 45.436976 
L 468.430081 44.434888 
L 473.987805 44.063753 
L 479.545528 43.259163 
L 485.103252 42.632869 
L 490.660975 41.900266 
L 496.218699 41.430387 
L 501.776423 40.597495 
L 507.334146 40.365328 
L 512.89187 39.69041 
L 518.449593 39.396316 
L 524.007317 38.996888 
L 529.565041 38.464021 
L 535.122764 37.889904 
L 540.680488 37.4407 
L 546.238211 37.111764 
L 551.795935 36.876416 
L 557.353658 36.322512 
L 562.911382 36.238086 
L 568.469106 35.527612 
L 574.026829 35.259745 
L 579.584553 34.908509 
L 585.142276 34.478095 
L 590.7 34.273872 
L 596.257723 33.993949 
L 601.815447 33.679002 
L 607.373171 33.45699 
L 612.930894 33.217652 
L 618.488618 32.812721 
L 624.046341 32.744637 
L 629.604065 32.464755 
L 635.161789 32.062926 
L 640.719512 31.758364 
L 646.277236 31.621103 
L 651.834959 31.327933 
L 657.392683 31.039545 
" clip-path="url(#pf7bc9e18b7)" style="fill: none; stroke: #ff7f0e; stroke-width: 1.5; stroke-linecap: square"/>
   </g>
   <g id="line2d_50">
    <path d="M 396.179675 114.230455 
L 401.737398 114.230455 
L 407.295122 114.230455 
L 412.852845 114.230455 
L 418.410569 114.230455 
L 423.968292 114.230455 
L 429.526016 114.230455 
L 435.08374 114.230455 
L 440.641463 114.230455 
L 446.199187 114.230455 
L 451.75691 114.230455 
L 457.314634 114.230455 
L 462.872358 114.230455 
L 468.430081 114.230455 
L 473.987805 114.230455 
L 479.545528 114.230455 
L 485.103252 114.230455 
L 490.660975 114.230455 
L 496.218699 114.230455 
L 501.776423 114.230455 
L 507.334146 114.230455 
L 512.89187 114.230455 
L 518.449593 114.230455 
L 524.007317 114.230455 
L 529.565041 114.230455 
L 535.122764 114.230455 
L 540.680488 114.230455 
L 546.238211 114.230455 
L 551.795935 114.230455 
L 557.353658 114.230455 
L 562.911382 114.230455 
L 568.469106 114.230455 
L 574.026829 114.230455 
L 579.584553 114.230455 
L 585.142276 114.230455 
L 590.7 114.230455 
L 596.257723 114.230455 
L 601.815447 114.230455 
L 607.373171 114.230455 
L 612.930894 114.230455 
L 618.488618 114.230455 
L 624.046341 114.230455 
L 629.604065 114.230455 
L 635.161789 114.230455 
L 640.719512 114.230455 
L 646.277236 114.230455 
L 651.834959 114.230455 
L 657.392683 114.230455 
" clip-path="url(#pf7bc9e18b7)" style="fill: none; stroke: #2ca02c; stroke-width: 1.5; stroke-linecap: square"/>
   </g>
   <g id="patch_9">
    <path d="M 383.119024 118.39 
L 383.119024 26.88 
" style="fill: none; stroke: #000000; stroke-width: 0.8; stroke-linejoin: miter; stroke-linecap: square"/>
   </g>
   <g id="patch_10">
    <path d="M 670.453333 118.39 
L 670.453333 26.88 
" style="fill: none; stroke: #000000; stroke-width: 0.8; stroke-linejoin: miter; stroke-linecap: square"/>
   </g>
   <g id="patch_11">
    <path d="M 383.119024 118.39 
L 670.453333 118.39 
" style="fill: none; stroke: #000000; stroke-width: 0.8; stroke-linejoin: miter; stroke-linecap: square"/>
   </g>
   <g id="patch_12">
    <path d="M 383.119024 26.88 
L 670.453333 26.88 
" style="fill: none; stroke: #000000; stroke-width: 0.8; stroke-linejoin: miter; stroke-linecap: square"/>
   </g>
   <g id="text_11">
    <!-- $n = 3$ -->
    <g transform="translate(511.786179 20.88) scale(0.12 -0.12)">
     <use xlink:href="#DejaVuSans-Oblique-6e" transform="translate(0 0.78125)"/>
     <use xlink:href="#DejaVuSans-3d" transform="translate(82.861328 0.78125)"/>
     <use xlink:href="#DejaVuSans-33" transform="translate(186.132812 0.78125)"/>
    </g>
   </g>
  </g>
  <g id="axes_3">
   <g id="patch_13">
    <path d="M 709.865691 118.39 
L 997.2 118.39 
L 997.2 26.88 
L 709.865691 26.88 
z
" style="fill: #ffffff"/>
   </g>
   <g id="matplotlib.axis_5">
    <g id="xtick_13">
     <g id="line2d_51">
      <g>
       <use xlink:href="#m548ab553d3" x="722.926341" y="118.39" style="stroke: #000000; stroke-width: 0.8"/>
      </g>
     </g>
    </g>
    <g id="xtick_14">
     <g id="line2d_52">
      <g>
       <use xlink:href="#m548ab553d3" x="778.503577" y="118.39" style="stroke: #000000; stroke-width: 0.8"/>
      </g>
     </g>
    </g>
    <g id="xtick_15">
     <g id="line2d_53">
      <g>
       <use xlink:href="#m548ab553d3" x="834.080813" y="118.39" style="stroke: #000000; stroke-width: 0.8"/>
      </g>
     </g>
    </g>
    <g id="xtick_16">
     <g id="line2d_54">
      <g>
       <use xlink:href="#m548ab553d3" x="889.658049" y="118.39" style="stroke: #000000; stroke-width: 0.8"/>
      </g>
     </g>
    </g>
    <g id="xtick_17">
     <g id="line2d_55">
      <g>
       <use xlink:href="#m548ab553d3" x="945.235284" y="118.39" style="stroke: #000000; stroke-width: 0.8"/>
      </g>
     </g>
    </g>
    <g id="xtick_18">
     <g id="line2d_56">
      <g>
       <use xlink:href="#m548ab553d3" x="984.13935" y="118.39" style="stroke: #000000; stroke-width: 0.8"/>
      </g>
     </g>
    </g>
   </g>
   <g id="matplotlib.axis_6">
    <g id="ytick_30">
     <g id="line2d_57">
      <g>
       <use xlink:href="#m2f04a0c972" x="709.865691" y="95.687255" style="stroke: #000000; stroke-width: 0.8"/>
      </g>
     </g>
     <g id="text_12">
      <!-- $\mathdefault{10^{2}}$ -->
      <g transform="translate(681.745691 100.246318) scale(0.12 -0.12)">
       <use xlink:href="#DejaVuSans-31" transform="translate(0 0.765625)"/>
       <use xlink:href="#DejaVuSans-30" transform="translate(63.623047 0.765625)"/>
       <use xlink:href="#DejaVuSans-32" transform="translate(128.203125 39.046875) scale(0.7)"/>
      </g>
     </g>
    </g>
    <g id="ytick_31">
     <g id="line2d_58">
      <g>
       <use xlink:href="#m2f04a0c972" x="709.865691" y="72.388267" style="stroke: #000000; stroke-width: 0.8"/>
      </g>
     </g>
     <g id="text_13">
      <!-- $\mathdefault{10^{3}}$ -->
      <g transform="translate(681.745691 76.947329) scale(0.12 -0.12)">
       <use xlink:href="#DejaVuSans-31" transform="translate(0 0.765625)"/>
       <use xlink:href="#DejaVuSans-30" transform="translate(63.623047 0.765625)"/>
       <use xlink:href="#DejaVuSans-33" transform="translate(128.203125 39.046875) scale(0.7)"/>
      </g>
     </g>
    </g>
    <g id="ytick_32">
     <g id="line2d_59">
      <g>
       <use xlink:href="#m2f04a0c972" x="709.865691" y="49.089278" style="stroke: #000000; stroke-width: 0.8"/>
      </g>
     </g>
     <g id="text_14">
      <!-- $\mathdefault{10^{4}}$ -->
      <g transform="translate(681.745691 53.648341) scale(0.12 -0.12)">
       <use xlink:href="#DejaVuSans-31" transform="translate(0 0.684375)"/>
       <use xlink:href="#DejaVuSans-30" transform="translate(63.623047 0.684375)"/>
       <use xlink:href="#DejaVuSans-34" transform="translate(128.203125 38.965625) scale(0.7)"/>
      </g>
     </g>
    </g>
    <g id="ytick_33">
     <g id="line2d_60">
      <g>
       <use xlink:href="#m396a0d586d" x="709.865691" y="111.972549" style="stroke: #000000; stroke-width: 0.6"/>
      </g>
     </g>
    </g>
    <g id="ytick_34">
     <g id="line2d_61">
      <g>
       <use xlink:href="#m396a0d586d" x="709.865691" y="107.869801" style="stroke: #000000; stroke-width: 0.6"/>
      </g>
     </g>
    </g>
    <g id="ytick_35">
     <g id="line2d_62">
      <g>
       <use xlink:href="#m396a0d586d" x="709.865691" y="104.958855" style="stroke: #000000; stroke-width: 0.6"/>
      </g>
     </g>
    </g>
    <g id="ytick_36">
     <g id="line2d_63">
      <g>
       <use xlink:href="#m396a0d586d" x="709.865691" y="102.70095" style="stroke: #000000; stroke-width: 0.6"/>
      </g>
     </g>
    </g>
    <g id="ytick_37">
     <g id="line2d_64">
      <g>
       <use xlink:href="#m396a0d586d" x="709.865691" y="100.856107" style="stroke: #000000; stroke-width: 0.6"/>
      </g>
     </g>
    </g>
    <g id="ytick_38">
     <g id="line2d_65">
      <g>
       <use xlink:href="#m396a0d586d" x="709.865691" y="99.296314" style="stroke: #000000; stroke-width: 0.6"/>
      </g>
     </g>
    </g>
    <g id="ytick_39">
     <g id="line2d_66">
      <g>
       <use xlink:href="#m396a0d586d" x="709.865691" y="97.94516" style="stroke: #000000; stroke-width: 0.6"/>
      </g>
     </g>
    </g>
    <g id="ytick_40">
     <g id="line2d_67">
      <g>
       <use xlink:href="#m396a0d586d" x="709.865691" y="96.753358" style="stroke: #000000; stroke-width: 0.6"/>
      </g>
     </g>
    </g>
    <g id="ytick_41">
     <g id="line2d_68">
      <g>
       <use xlink:href="#m396a0d586d" x="709.865691" y="88.673561" style="stroke: #000000; stroke-width: 0.6"/>
      </g>
     </g>
    </g>
    <g id="ytick_42">
     <g id="line2d_69">
      <g>
       <use xlink:href="#m396a0d586d" x="709.865691" y="84.570813" style="stroke: #000000; stroke-width: 0.6"/>
      </g>
     </g>
    </g>
    <g id="ytick_43">
     <g id="line2d_70">
      <g>
       <use xlink:href="#m396a0d586d" x="709.865691" y="81.659866" style="stroke: #000000; stroke-width: 0.6"/>
      </g>
     </g>
    </g>
    <g id="ytick_44">
     <g id="line2d_71">
      <g>
       <use xlink:href="#m396a0d586d" x="709.865691" y="79.401961" style="stroke: #000000; stroke-width: 0.6"/>
      </g>
     </g>
    </g>
    <g id="ytick_45">
     <g id="line2d_72">
      <g>
       <use xlink:href="#m396a0d586d" x="709.865691" y="77.557118" style="stroke: #000000; stroke-width: 0.6"/>
      </g>
     </g>
    </g>
    <g id="ytick_46">
     <g id="line2d_73">
      <g>
       <use xlink:href="#m396a0d586d" x="709.865691" y="75.997326" style="stroke: #000000; stroke-width: 0.6"/>
      </g>
     </g>
    </g>
    <g id="ytick_47">
     <g id="line2d_74">
      <g>
       <use xlink:href="#m396a0d586d" x="709.865691" y="74.646172" style="stroke: #000000; stroke-width: 0.6"/>
      </g>
     </g>
    </g>
    <g id="ytick_48">
     <g id="line2d_75">
      <g>
       <use xlink:href="#m396a0d586d" x="709.865691" y="73.45437" style="stroke: #000000; stroke-width: 0.6"/>
      </g>
     </g>
    </g>
    <g id="ytick_49">
     <g id="line2d_76">
      <g>
       <use xlink:href="#m396a0d586d" x="709.865691" y="65.374572" style="stroke: #000000; stroke-width: 0.6"/>
      </g>
     </g>
    </g>
    <g id="ytick_50">
     <g id="line2d_77">
      <g>
       <use xlink:href="#m396a0d586d" x="709.865691" y="61.271824" style="stroke: #000000; stroke-width: 0.6"/>
      </g>
     </g>
    </g>
    <g id="ytick_51">
     <g id="line2d_78">
      <g>
       <use xlink:href="#m396a0d586d" x="709.865691" y="58.360878" style="stroke: #000000; stroke-width: 0.6"/>
      </g>
     </g>
    </g>
    <g id="ytick_52">
     <g id="line2d_79">
      <g>
       <use xlink:href="#m396a0d586d" x="709.865691" y="56.102973" style="stroke: #000000; stroke-width: 0.6"/>
      </g>
     </g>
    </g>
    <g id="ytick_53">
     <g id="line2d_80">
      <g>
       <use xlink:href="#m396a0d586d" x="709.865691" y="54.25813" style="stroke: #000000; stroke-width: 0.6"/>
      </g>
     </g>
    </g>
    <g id="ytick_54">
     <g id="line2d_81">
      <g>
       <use xlink:href="#m396a0d586d" x="709.865691" y="52.698337" style="stroke: #000000; stroke-width: 0.6"/>
      </g>
     </g>
    </g>
    <g id="ytick_55">
     <g id="line2d_82">
      <g>
       <use xlink:href="#m396a0d586d" x="709.865691" y="51.347184" style="stroke: #000000; stroke-width: 0.6"/>
      </g>
     </g>
    </g>
    <g id="ytick_56">
     <g id="line2d_83">
      <g>
       <use xlink:href="#m396a0d586d" x="709.865691" y="50.155382" style="stroke: #000000; stroke-width: 0.6"/>
      </g>
     </g>
    </g>
    <g id="ytick_57">
     <g id="line2d_84">
      <g>
       <use xlink:href="#m396a0d586d" x="709.865691" y="42.075584" style="stroke: #000000; stroke-width: 0.6"/>
      </g>
     </g>
    </g>
    <g id="ytick_58">
     <g id="line2d_85">
      <g>
       <use xlink:href="#m396a0d586d" x="709.865691" y="37.972836" style="stroke: #000000; stroke-width: 0.6"/>
      </g>
     </g>
    </g>
    <g id="ytick_59">
     <g id="line2d_86">
      <g>
       <use xlink:href="#m396a0d586d" x="709.865691" y="35.06189" style="stroke: #000000; stroke-width: 0.6"/>
      </g>
     </g>
    </g>
    <g id="ytick_60">
     <g id="line2d_87">
      <g>
       <use xlink:href="#m396a0d586d" x="709.865691" y="32.803984" style="stroke: #000000; stroke-width: 0.6"/>
      </g>
     </g>
    </g>
    <g id="ytick_61">
     <g id="line2d_88">
      <g>
       <use xlink:href="#m396a0d586d" x="709.865691" y="30.959141" style="stroke: #000000; stroke-width: 0.6"/>
      </g>
     </g>
    </g>
    <g id="ytick_62">
     <g id="line2d_89">
      <g>
       <use xlink:href="#m396a0d586d" x="709.865691" y="29.399349" style="stroke: #000000; stroke-width: 0.6"/>
      </g>
     </g>
    </g>
    <g id="ytick_63">
     <g id="line2d_90">
      <g>
       <use xlink:href="#m396a0d586d" x="709.865691" y="28.048195" style="stroke: #000000; stroke-width: 0.6"/>
      </g>
     </g>
    </g>
   </g>
   <g id="line2d_91">
    <path d="M 722.926341 85.562239 
L 728.484065 85.562239 
L 734.041788 85.562239 
L 739.599512 85.562239 
L 745.157236 85.562239 
L 750.714959 85.562239 
L 756.272683 85.562239 
L 761.830406 85.562239 
L 767.38813 85.562239 
L 772.945853 85.562239 
L 778.503577 85.562239 
L 784.061301 85.562239 
L 789.619024 85.562239 
L 795.176748 85.562239 
L 800.734471 85.562239 
L 806.292195 85.562239 
L 811.849919 85.562239 
L 817.407642 85.562239 
L 822.965366 85.562239 
L 828.523089 85.562239 
L 834.080813 85.562239 
L 839.638536 85.562239 
L 845.19626 85.562239 
L 850.753984 85.562239 
L 856.311707 85.562239 
L 861.869431 85.562239 
L 867.427154 85.562239 
L 872.984878 85.562239 
L 878.542602 85.562239 
L 884.100325 85.562239 
L 889.658049 85.562239 
L 895.215772 85.562239 
L 900.773496 85.562239 
L 906.331219 85.562239 
L 911.888943 85.562239 
L 917.446667 85.562239 
L 923.00439 85.562239 
L 928.562114 85.562239 
L 934.119837 85.562239 
L 939.677561 85.562239 
L 945.235284 85.562239 
L 950.793008 85.562239 
L 956.350732 85.562239 
L 961.908455 85.562239 
L 967.466179 85.562239 
L 973.023902 85.562239 
L 978.581626 85.562239 
L 984.13935 85.562239 
" clip-path="url(#pd80c32625c)" style="fill: none; stroke: #1f77b4; stroke-width: 1.5; stroke-linecap: square"/>
   </g>
   <g id="line2d_92">
    <path d="M 722.926341 63.122497 
L 728.484065 59.271678 
L 734.041788 56.129559 
L 739.599512 53.801256 
L 745.157236 52.357675 
L 750.714959 50.734698 
L 756.272683 49.368317 
L 761.830406 48.098706 
L 767.38813 47.106152 
L 772.945853 46.116997 
L 778.503577 45.308264 
L 784.061301 44.513163 
L 789.619024 43.581769 
L 795.176748 42.734455 
L 800.734471 42.096977 
L 806.292195 41.704911 
L 811.849919 41.165188 
L 817.407642 40.563176 
L 822.965366 40.075438 
L 828.523089 39.593903 
L 834.080813 39.026355 
L 839.638536 38.620654 
L 845.19626 38.280318 
L 850.753984 37.618824 
L 856.311707 37.515962 
L 861.869431 37.064018 
L 867.427154 36.789936 
L 872.984878 36.295223 
L 878.542602 36.001073 
L 884.100325 35.734593 
L 889.658049 35.303718 
L 895.215772 35.187653 
L 900.773496 34.839634 
L 906.331219 34.576993 
L 911.888943 34.151494 
L 917.446667 33.864405 
L 923.00439 33.818484 
L 928.562114 33.454012 
L 934.119837 32.981285 
L 939.677561 32.780827 
L 945.235284 32.659571 
L 950.793008 32.551871 
L 956.350732 32.097335 
L 961.908455 32.045292 
L 967.466179 31.619856 
L 973.023902 31.40644 
L 978.581626 31.366809 
L 984.13935 31.039545 
" clip-path="url(#pd80c32625c)" style="fill: none; stroke: #ff7f0e; stroke-width: 1.5; stroke-linecap: square"/>
   </g>
   <g id="line2d_93">
    <path d="M 722.926341 114.230455 
L 728.484065 114.230455 
L 734.041788 114.230455 
L 739.599512 114.230455 
L 745.157236 114.230455 
L 750.714959 114.230455 
L 756.272683 114.230455 
L 761.830406 114.230455 
L 767.38813 114.230455 
L 772.945853 114.230455 
L 778.503577 114.230455 
L 784.061301 114.230455 
L 789.619024 114.230455 
L 795.176748 114.230455 
L 800.734471 114.230455 
L 806.292195 114.230455 
L 811.849919 114.230455 
L 817.407642 114.230455 
L 822.965366 114.230455 
L 828.523089 114.230455 
L 834.080813 114.230455 
L 839.638536 114.230455 
L 845.19626 114.230455 
L 850.753984 114.230455 
L 856.311707 114.230455 
L 861.869431 114.230455 
L 867.427154 114.230455 
L 872.984878 114.230455 
L 878.542602 114.230455 
L 884.100325 114.230455 
L 889.658049 114.230455 
L 895.215772 114.230455 
L 900.773496 114.230455 
L 906.331219 114.230455 
L 911.888943 114.230455 
L 917.446667 114.230455 
L 923.00439 114.230455 
L 928.562114 114.230455 
L 934.119837 114.230455 
L 939.677561 114.230455 
L 945.235284 114.230455 
L 950.793008 114.230455 
L 956.350732 114.230455 
L 961.908455 114.230455 
L 967.466179 114.230455 
L 973.023902 114.230455 
L 978.581626 114.230455 
L 984.13935 114.230455 
" clip-path="url(#pd80c32625c)" style="fill: none; stroke: #2ca02c; stroke-width: 1.5; stroke-linecap: square"/>
   </g>
   <g id="patch_14">
    <path d="M 709.865691 118.39 
L 709.865691 26.88 
" style="fill: none; stroke: #000000; stroke-width: 0.8; stroke-linejoin: miter; stroke-linecap: square"/>
   </g>
   <g id="patch_15">
    <path d="M 997.2 118.39 
L 997.2 26.88 
" style="fill: none; stroke: #000000; stroke-width: 0.8; stroke-linejoin: miter; stroke-linecap: square"/>
   </g>
   <g id="patch_16">
    <path d="M 709.865691 118.39 
L 997.2 118.39 
" style="fill: none; stroke: #000000; stroke-width: 0.8; stroke-linejoin: miter; stroke-linecap: square"/>
   </g>
   <g id="patch_17">
    <path d="M 709.865691 26.88 
L 997.2 26.88 
" style="fill: none; stroke: #000000; stroke-width: 0.8; stroke-linejoin: miter; stroke-linecap: square"/>
   </g>
   <g id="text_15">
    <!-- $n = 4$ -->
    <g transform="translate(838.532845 20.88) scale(0.12 -0.12)">
     <use xlink:href="#DejaVuSans-Oblique-6e" transform="translate(0 0.09375)"/>
     <use xlink:href="#DejaVuSans-3d" transform="translate(82.861328 0.09375)"/>
     <use xlink:href="#DejaVuSans-34" transform="translate(186.132812 0.09375)"/>
    </g>
   </g>
  </g>
  <g id="axes_4">
   <g id="patch_18">
    <path d="M 56.372357 240.28 
L 343.706667 240.28 
L 343.706667 148.77 
L 56.372357 148.77 
z
" style="fill: #ffffff"/>
   </g>
   <g id="matplotlib.axis_7">
    <g id="xtick_19">
     <g id="line2d_94">
      <g>
       <use xlink:href="#m548ab553d3" x="69.433008" y="240.28" style="stroke: #000000; stroke-width: 0.8"/>
      </g>
     </g>
     <g id="text_16">
      <!-- 2 -->
      <g transform="translate(65.615508 256.398125) scale(0.12 -0.12)">
       <use xlink:href="#DejaVuSans-32"/>
      </g>
     </g>
    </g>
    <g id="xtick_20">
     <g id="line2d_95">
      <g>
       <use xlink:href="#m548ab553d3" x="125.010244" y="240.28" style="stroke: #000000; stroke-width: 0.8"/>
      </g>
     </g>
     <g id="text_17">
      <!-- 12 -->
      <g transform="translate(117.375244 256.398125) scale(0.12 -0.12)">
       <use xlink:href="#DejaVuSans-31"/>
       <use xlink:href="#DejaVuSans-32" x="63.623047"/>
      </g>
     </g>
    </g>
    <g id="xtick_21">
     <g id="line2d_96">
      <g>
       <use xlink:href="#m548ab553d3" x="180.58748" y="240.28" style="stroke: #000000; stroke-width: 0.8"/>
      </g>
     </g>
     <g id="text_18">
      <!-- 22 -->
      <g transform="translate(172.95248 256.398125) scale(0.12 -0.12)">
       <use xlink:href="#DejaVuSans-32"/>
       <use xlink:href="#DejaVuSans-32" x="63.623047"/>
      </g>
     </g>
    </g>
    <g id="xtick_22">
     <g id="line2d_97">
      <g>
       <use xlink:href="#m548ab553d3" x="236.164715" y="240.28" style="stroke: #000000; stroke-width: 0.8"/>
      </g>
     </g>
     <g id="text_19">
      <!-- 32 -->
      <g transform="translate(228.529715 256.398125) scale(0.12 -0.12)">
       <use xlink:href="#DejaVuSans-33"/>
       <use xlink:href="#DejaVuSans-32" x="63.623047"/>
      </g>
     </g>
    </g>
    <g id="xtick_23">
     <g id="line2d_98">
      <g>
       <use xlink:href="#m548ab553d3" x="291.741951" y="240.28" style="stroke: #000000; stroke-width: 0.8"/>
      </g>
     </g>
     <g id="text_20">
      <!-- 42 -->
      <g transform="translate(284.106951 256.398125) scale(0.12 -0.12)">
       <use xlink:href="#DejaVuSans-34"/>
       <use xlink:href="#DejaVuSans-32" x="63.623047"/>
      </g>
     </g>
    </g>
    <g id="xtick_24">
     <g id="line2d_99">
      <g>
       <use xlink:href="#m548ab553d3" x="330.646016" y="240.28" style="stroke: #000000; stroke-width: 0.8"/>
      </g>
     </g>
     <g id="text_21">
      <!-- 49 -->
      <g transform="translate(323.011016 256.398125) scale(0.12 -0.12)">
       <defs>
        <path id="DejaVuSans-39" d="M 703 97 
L 703 672 
Q 941 559 1184 500 
Q 1428 441 1663 441 
Q 2288 441 2617 861 
Q 2947 1281 2994 2138 
Q 2813 1869 2534 1725 
Q 2256 1581 1919 1581 
Q 1219 1581 811 2004 
Q 403 2428 403 3163 
Q 403 3881 828 4315 
Q 1253 4750 1959 4750 
Q 2769 4750 3195 4129 
Q 3622 3509 3622 2328 
Q 3622 1225 3098 567 
Q 2575 -91 1691 -91 
Q 1453 -91 1209 -44 
Q 966 3 703 97 
z
M 1959 2075 
Q 2384 2075 2632 2365 
Q 2881 2656 2881 3163 
Q 2881 3666 2632 3958 
Q 2384 4250 1959 4250 
Q 1534 4250 1286 3958 
Q 1038 3666 1038 3163 
Q 1038 2656 1286 2365 
Q 1534 2075 1959 2075 
z
" transform="scale(0.015625)"/>
       </defs>
       <use xlink:href="#DejaVuSans-34"/>
       <use xlink:href="#DejaVuSans-39" x="63.623047"/>
      </g>
     </g>
    </g>
    <g id="text_22">
     <!-- $d$ -->
     <g transform="translate(196.199512 272.011875) scale(0.12 -0.12)">
      <defs>
       <path id="DejaVuSans-Oblique-64" d="M 2675 525 
Q 2444 222 2128 65 
Q 1813 -91 1428 -91 
Q 903 -91 598 267 
Q 294 625 294 1247 
Q 294 1766 478 2236 
Q 663 2706 1013 3078 
Q 1244 3325 1534 3454 
Q 1825 3584 2144 3584 
Q 2481 3584 2739 3421 
Q 2997 3259 3138 2956 
L 3513 4863 
L 4091 4863 
L 3144 0 
L 2566 0 
L 2675 525 
z
M 891 1350 
Q 891 897 1095 644 
Q 1300 391 1663 391 
Q 1931 391 2161 520 
Q 2391 650 2566 903 
Q 2750 1166 2856 1509 
Q 2963 1853 2963 2188 
Q 2963 2622 2758 2865 
Q 2553 3109 2194 3109 
Q 1922 3109 1687 2981 
Q 1453 2853 1288 2613 
Q 1106 2353 998 2009 
Q 891 1666 891 1350 
z
" transform="scale(0.015625)"/>
      </defs>
      <use xlink:href="#DejaVuSans-Oblique-64" transform="translate(0 0.015625)"/>
     </g>
    </g>
   </g>
   <g id="matplotlib.axis_8">
    <g id="ytick_64">
     <g id="line2d_100">
      <g>
       <use xlink:href="#m2f04a0c972" x="56.372357" y="204.715445" style="stroke: #000000; stroke-width: 0.8"/>
      </g>
     </g>
     <g id="text_23">
      <!-- $\mathdefault{10^{3}}$ -->
      <g transform="translate(28.252357 209.274507) scale(0.12 -0.12)">
       <use xlink:href="#DejaVuSans-31" transform="translate(0 0.765625)"/>
       <use xlink:href="#DejaVuSans-30" transform="translate(63.623047 0.765625)"/>
       <use xlink:href="#DejaVuSans-33" transform="translate(128.203125 39.046875) scale(0.7)"/>
      </g>
     </g>
    </g>
    <g id="ytick_65">
     <g id="line2d_101">
      <g>
       <use xlink:href="#m2f04a0c972" x="56.372357" y="162.697839" style="stroke: #000000; stroke-width: 0.8"/>
      </g>
     </g>
     <g id="text_24">
      <!-- $\mathdefault{10^{5}}$ -->
      <g transform="translate(28.252357 167.256901) scale(0.12 -0.12)">
       <defs>
        <path id="DejaVuSans-35" d="M 691 4666 
L 3169 4666 
L 3169 4134 
L 1269 4134 
L 1269 2991 
Q 1406 3038 1543 3061 
Q 1681 3084 1819 3084 
Q 2600 3084 3056 2656 
Q 3513 2228 3513 1497 
Q 3513 744 3044 326 
Q 2575 -91 1722 -91 
Q 1428 -91 1123 -41 
Q 819 9 494 109 
L 494 744 
Q 775 591 1075 516 
Q 1375 441 1709 441 
Q 2250 441 2565 725 
Q 2881 1009 2881 1497 
Q 2881 1984 2565 2268 
Q 2250 2553 1709 2553 
Q 1456 2553 1204 2497 
Q 953 2441 691 2322 
L 691 4666 
z
" transform="scale(0.015625)"/>
       </defs>
       <use xlink:href="#DejaVuSans-31" transform="translate(0 0.684375)"/>
       <use xlink:href="#DejaVuSans-30" transform="translate(63.623047 0.684375)"/>
       <use xlink:href="#DejaVuSans-35" transform="translate(128.203125 38.965625) scale(0.7)"/>
      </g>
     </g>
    </g>
    <g id="text_25">
     <!-- Time (s) -->
     <g transform="translate(21.756732 218.919687) rotate(-90) scale(0.12 -0.12)">
      <use xlink:href="#DejaVuSans-54"/>
      <use xlink:href="#DejaVuSans-69" x="57.958984"/>
      <use xlink:href="#DejaVuSans-6d" x="85.742188"/>
      <use xlink:href="#DejaVuSans-65" x="183.154297"/>
      <use xlink:href="#DejaVuSans-20" x="244.677734"/>
      <use xlink:href="#DejaVuSans-28" x="276.464844"/>
      <use xlink:href="#DejaVuSans-73" x="315.478516"/>
      <use xlink:href="#DejaVuSans-29" x="367.578125"/>
     </g>
    </g>
   </g>
   <g id="line2d_102">
    <path d="M 69.433008 204.218294 
L 74.990731 204.218294 
L 80.548455 204.218294 
L 86.106179 204.218294 
L 91.663902 204.218294 
L 97.221626 204.218294 
L 102.779349 204.218294 
L 108.337073 204.218294 
L 113.894797 204.218294 
L 119.45252 204.218294 
L 125.010244 204.218294 
L 130.567967 204.218294 
L 136.125691 204.218294 
L 141.683414 204.218294 
L 147.241138 204.218294 
L 152.798862 204.218294 
L 158.356585 204.218294 
L 163.914309 204.218294 
L 169.472032 204.218294 
L 175.029756 204.218294 
L 180.58748 204.218294 
L 186.145203 204.218294 
L 191.702927 204.218294 
L 197.26065 204.218294 
L 202.818374 204.218294 
L 208.376097 204.218294 
L 213.933821 204.218294 
L 219.491545 204.218294 
L 225.049268 204.218294 
L 230.606992 204.218294 
L 236.164715 204.218294 
L 241.722439 204.218294 
L 247.280163 204.218294 
L 252.837886 204.218294 
L 258.39561 204.218294 
L 263.953333 204.218294 
L 269.511057 204.218294 
L 275.06878 204.218294 
L 280.626504 204.218294 
L 286.184228 204.218294 
L 291.741951 204.218294 
L 297.299675 204.218294 
L 302.857398 204.218294 
L 308.415122 204.218294 
L 313.972845 204.218294 
L 319.530569 204.218294 
L 325.088293 204.218294 
L 330.646016 204.218294 
" clip-path="url(#p1da9068b5d)" style="fill: none; stroke: #1f77b4; stroke-width: 1.5; stroke-linecap: square"/>
   </g>
   <g id="line2d_103">
    <path d="M 69.433008 181.735962 
L 74.990731 177.906933 
L 80.548455 175.702329 
L 86.106179 173.775824 
L 91.663902 172.133319 
L 97.221626 170.527813 
L 102.779349 169.262212 
L 108.337073 168.38493 
L 113.894797 167.301762 
L 119.45252 166.55908 
L 125.010244 165.851183 
L 130.567967 165.169742 
L 136.125691 164.120169 
L 141.683414 163.594046 
L 147.241138 163.073219 
L 152.798862 162.610088 
L 158.356585 161.991213 
L 163.914309 161.585334 
L 169.472032 160.96202 
L 175.029756 160.712115 
L 180.58748 160.369888 
L 186.145203 159.773079 
L 191.702927 159.474254 
L 197.26065 159.088784 
L 202.818374 158.670742 
L 208.376097 158.347254 
L 213.933821 158.09783 
L 219.491545 157.713279 
L 225.049268 157.34636 
L 230.606992 157.059869 
L 236.164715 156.88824 
L 241.722439 156.378816 
L 247.280163 156.247025 
L 252.837886 156.035719 
L 258.39561 155.81864 
L 263.953333 155.458356 
L 269.511057 155.14273 
L 275.06878 155.001772 
L 280.626504 154.732467 
L 286.184228 154.525656 
L 291.741951 154.345844 
L 297.299675 154.129969 
L 302.857398 153.835226 
L 308.415122 153.611622 
L 313.972845 153.552451 
L 319.530569 153.378551 
L 325.088293 152.989957 
L 330.646016 152.929545 
" clip-path="url(#p1da9068b5d)" style="fill: none; stroke: #ff7f0e; stroke-width: 1.5; stroke-linecap: square"/>
   </g>
   <g id="line2d_104">
    <path d="M 69.433008 236.120455 
L 74.990731 236.120455 
L 80.548455 236.120455 
L 86.106179 236.120455 
L 91.663902 236.120455 
L 97.221626 236.120455 
L 102.779349 236.120455 
L 108.337073 236.120455 
L 113.894797 236.120455 
L 119.45252 236.120455 
L 125.010244 236.120455 
L 130.567967 236.120455 
L 136.125691 236.120455 
L 141.683414 236.120455 
L 147.241138 236.120455 
L 152.798862 236.120455 
L 158.356585 236.120455 
L 163.914309 236.120455 
L 169.472032 236.120455 
L 175.029756 236.120455 
L 180.58748 236.120455 
L 186.145203 236.120455 
L 191.702927 236.120455 
L 197.26065 236.120455 
L 202.818374 236.120455 
L 208.376097 236.120455 
L 213.933821 236.120455 
L 219.491545 236.120455 
L 225.049268 236.120455 
L 230.606992 236.120455 
L 236.164715 236.120455 
L 241.722439 236.120455 
L 247.280163 236.120455 
L 252.837886 236.120455 
L 258.39561 236.120455 
L 263.953333 236.120455 
L 269.511057 236.120455 
L 275.06878 236.120455 
L 280.626504 236.120455 
L 286.184228 236.120455 
L 291.741951 236.120455 
L 297.299675 236.120455 
L 302.857398 236.120455 
L 308.415122 236.120455 
L 313.972845 236.120455 
L 319.530569 236.120455 
L 325.088293 236.120455 
L 330.646016 236.120455 
" clip-path="url(#p1da9068b5d)" style="fill: none; stroke: #2ca02c; stroke-width: 1.5; stroke-linecap: square"/>
   </g>
   <g id="patch_19">
    <path d="M 56.372357 240.28 
L 56.372357 148.77 
" style="fill: none; stroke: #000000; stroke-width: 0.8; stroke-linejoin: miter; stroke-linecap: square"/>
   </g>
   <g id="patch_20">
    <path d="M 343.706667 240.28 
L 343.706667 148.77 
" style="fill: none; stroke: #000000; stroke-width: 0.8; stroke-linejoin: miter; stroke-linecap: square"/>
   </g>
   <g id="patch_21">
    <path d="M 56.372357 240.28 
L 343.706667 240.28 
" style="fill: none; stroke: #000000; stroke-width: 0.8; stroke-linejoin: miter; stroke-linecap: square"/>
   </g>
   <g id="patch_22">
    <path d="M 56.372357 148.77 
L 343.706667 148.77 
" style="fill: none; stroke: #000000; stroke-width: 0.8; stroke-linejoin: miter; stroke-linecap: square"/>
   </g>
   <g id="text_26">
    <!-- $n = 5$ -->
    <g transform="translate(185.039512 142.77) scale(0.12 -0.12)">
     <use xlink:href="#DejaVuSans-Oblique-6e" transform="translate(0 0.09375)"/>
     <use xlink:href="#DejaVuSans-3d" transform="translate(82.861328 0.09375)"/>
     <use xlink:href="#DejaVuSans-35" transform="translate(186.132812 0.09375)"/>
    </g>
   </g>
  </g>
  <g id="axes_5">
   <g id="patch_23">
    <path d="M 383.119024 240.28 
L 670.453333 240.28 
L 670.453333 148.77 
L 383.119024 148.77 
z
" style="fill: #ffffff"/>
   </g>
   <g id="matplotlib.axis_9">
    <g id="xtick_25">
     <g id="line2d_105">
      <g>
       <use xlink:href="#m548ab553d3" x="396.179675" y="240.28" style="stroke: #000000; stroke-width: 0.8"/>
      </g>
     </g>
     <g id="text_27">
      <!-- 2 -->
      <g transform="translate(392.362175 256.398125) scale(0.12 -0.12)">
       <use xlink:href="#DejaVuSans-32"/>
      </g>
     </g>
    </g>
    <g id="xtick_26">
     <g id="line2d_106">
      <g>
       <use xlink:href="#m548ab553d3" x="451.75691" y="240.28" style="stroke: #000000; stroke-width: 0.8"/>
      </g>
     </g>
     <g id="text_28">
      <!-- 12 -->
      <g transform="translate(444.12191 256.398125) scale(0.12 -0.12)">
       <use xlink:href="#DejaVuSans-31"/>
       <use xlink:href="#DejaVuSans-32" x="63.623047"/>
      </g>
     </g>
    </g>
    <g id="xtick_27">
     <g id="line2d_107">
      <g>
       <use xlink:href="#m548ab553d3" x="507.334146" y="240.28" style="stroke: #000000; stroke-width: 0.8"/>
      </g>
     </g>
     <g id="text_29">
      <!-- 22 -->
      <g transform="translate(499.699146 256.398125) scale(0.12 -0.12)">
       <use xlink:href="#DejaVuSans-32"/>
       <use xlink:href="#DejaVuSans-32" x="63.623047"/>
      </g>
     </g>
    </g>
    <g id="xtick_28">
     <g id="line2d_108">
      <g>
       <use xlink:href="#m548ab553d3" x="562.911382" y="240.28" style="stroke: #000000; stroke-width: 0.8"/>
      </g>
     </g>
     <g id="text_30">
      <!-- 32 -->
      <g transform="translate(555.276382 256.398125) scale(0.12 -0.12)">
       <use xlink:href="#DejaVuSans-33"/>
       <use xlink:href="#DejaVuSans-32" x="63.623047"/>
      </g>
     </g>
    </g>
    <g id="xtick_29">
     <g id="line2d_109">
      <g>
       <use xlink:href="#m548ab553d3" x="618.488618" y="240.28" style="stroke: #000000; stroke-width: 0.8"/>
      </g>
     </g>
     <g id="text_31">
      <!-- 42 -->
      <g transform="translate(610.853618 256.398125) scale(0.12 -0.12)">
       <use xlink:href="#DejaVuSans-34"/>
       <use xlink:href="#DejaVuSans-32" x="63.623047"/>
      </g>
     </g>
    </g>
    <g id="xtick_30">
     <g id="line2d_110">
      <g>
       <use xlink:href="#m548ab553d3" x="657.392683" y="240.28" style="stroke: #000000; stroke-width: 0.8"/>
      </g>
     </g>
     <g id="text_32">
      <!-- 49 -->
      <g transform="translate(649.757683 256.398125) scale(0.12 -0.12)">
       <use xlink:href="#DejaVuSans-34"/>
       <use xlink:href="#DejaVuSans-39" x="63.623047"/>
      </g>
     </g>
    </g>
    <g id="text_33">
     <!-- $d$ -->
     <g transform="translate(522.946179 272.011875) scale(0.12 -0.12)">
      <use xlink:href="#DejaVuSans-Oblique-64" transform="translate(0 0.015625)"/>
     </g>
    </g>
   </g>
   <g id="matplotlib.axis_10">
    <g id="ytick_66">
     <g id="line2d_111">
      <g>
       <use xlink:href="#m2f04a0c972" x="383.119024" y="213.22042" style="stroke: #000000; stroke-width: 0.8"/>
      </g>
     </g>
     <g id="text_34">
      <!-- $\mathdefault{10^{3}}$ -->
      <g transform="translate(354.999024 217.779482) scale(0.12 -0.12)">
       <use xlink:href="#DejaVuSans-31" transform="translate(0 0.765625)"/>
       <use xlink:href="#DejaVuSans-30" transform="translate(63.623047 0.765625)"/>
       <use xlink:href="#DejaVuSans-33" transform="translate(128.203125 39.046875) scale(0.7)"/>
      </g>
     </g>
    </g>
    <g id="ytick_67">
     <g id="line2d_112">
      <g>
       <use xlink:href="#m2f04a0c972" x="383.119024" y="174.85612" style="stroke: #000000; stroke-width: 0.8"/>
      </g>
     </g>
     <g id="text_35">
      <!-- $\mathdefault{10^{5}}$ -->
      <g transform="translate(354.999024 179.415182) scale(0.12 -0.12)">
       <use xlink:href="#DejaVuSans-31" transform="translate(0 0.684375)"/>
       <use xlink:href="#DejaVuSans-30" transform="translate(63.623047 0.684375)"/>
       <use xlink:href="#DejaVuSans-35" transform="translate(128.203125 38.965625) scale(0.7)"/>
      </g>
     </g>
    </g>
   </g>
   <g id="line2d_113">
    <path d="M 396.179675 201.344879 
L 401.737398 201.344879 
L 407.295122 201.344879 
L 412.852845 201.344879 
L 418.410569 201.344879 
L 423.968292 201.344879 
L 429.526016 201.344879 
L 435.08374 201.344879 
L 440.641463 201.344879 
L 446.199187 201.344879 
L 451.75691 201.344879 
L 457.314634 201.344879 
L 462.872358 201.344879 
L 468.430081 201.344879 
L 473.987805 201.344879 
L 479.545528 201.344879 
L 485.103252 201.344879 
L 490.660975 201.344879 
L 496.218699 201.344879 
L 501.776423 201.344879 
L 507.334146 201.344879 
L 512.89187 201.344879 
L 518.449593 201.344879 
L 524.007317 201.344879 
L 529.565041 201.344879 
L 535.122764 201.344879 
L 540.680488 201.344879 
L 546.238211 201.344879 
L 551.795935 201.344879 
L 557.353658 201.344879 
L 562.911382 201.344879 
L 568.469106 201.344879 
L 574.026829 201.344879 
L 579.584553 201.344879 
L 585.142276 201.344879 
L 590.7 201.344879 
L 596.257723 201.344879 
L 601.815447 201.344879 
L 607.373171 201.344879 
L 612.930894 201.344879 
L 618.488618 201.344879 
L 624.046341 201.344879 
L 629.604065 201.344879 
L 635.161789 201.344879 
L 640.719512 201.344879 
L 646.277236 201.344879 
L 651.834959 201.344879 
L 657.392683 201.344879 
" clip-path="url(#pb0f3e4bb91)" style="fill: none; stroke: #1f77b4; stroke-width: 1.5; stroke-linecap: square"/>
   </g>
   <g id="line2d_114">
    <path d="M 396.179675 179.116456 
L 401.737398 176.111031 
L 407.295122 173.537808 
L 412.852845 172.048121 
L 418.410569 170.360464 
L 423.968292 169.217279 
L 429.526016 168.096202 
L 435.08374 167.011881 
L 440.641463 165.944172 
L 446.199187 165.365355 
L 451.75691 164.82825 
L 457.314634 163.983765 
L 462.872358 163.230574 
L 468.430081 162.876445 
L 473.987805 162.144831 
L 479.545528 161.654988 
L 485.103252 161.371631 
L 490.660975 160.822155 
L 496.218699 160.216729 
L 501.776423 159.947974 
L 507.334146 159.636949 
L 512.89187 159.194279 
L 518.449593 158.837559 
L 524.007317 158.506986 
L 529.565041 158.194572 
L 535.122764 157.813663 
L 540.680488 157.654612 
L 546.238211 157.27061 
L 551.795935 156.976621 
L 557.353658 156.816973 
L 562.911382 156.544366 
L 568.469106 156.205866 
L 574.026829 155.955074 
L 579.584553 155.854043 
L 585.142276 155.496412 
L 590.7 155.350721 
L 596.257723 155.087093 
L 601.815447 154.797083 
L 607.373171 154.625636 
L 612.930894 154.394196 
L 618.488618 154.24225 
L 624.046341 154.01437 
L 629.604065 153.799095 
L 635.161789 153.667185 
L 640.719512 153.455358 
L 646.277236 153.320504 
L 651.834959 153.131277 
L 657.392683 152.929545 
" clip-path="url(#pb0f3e4bb91)" style="fill: none; stroke: #ff7f0e; stroke-width: 1.5; stroke-linecap: square"/>
   </g>
   <g id="line2d_115">
    <path d="M 396.179675 236.120455 
L 401.737398 236.120455 
L 407.295122 236.120455 
L 412.852845 236.120455 
L 418.410569 236.120455 
L 423.968292 236.120455 
L 429.526016 236.120455 
L 435.08374 236.120455 
L 440.641463 236.120455 
L 446.199187 236.120455 
L 451.75691 236.120455 
L 457.314634 236.120455 
L 462.872358 236.120455 
L 468.430081 236.120455 
L 473.987805 236.120455 
L 479.545528 236.120455 
L 485.103252 236.120455 
L 490.660975 236.120455 
L 496.218699 236.120455 
L 501.776423 236.120455 
L 507.334146 236.120455 
L 512.89187 236.120455 
L 518.449593 236.120455 
L 524.007317 236.120455 
L 529.565041 236.120455 
L 535.122764 236.120455 
L 540.680488 236.120455 
L 546.238211 236.120455 
L 551.795935 236.120455 
L 557.353658 236.120455 
L 562.911382 236.120455 
L 568.469106 236.120455 
L 574.026829 236.120455 
L 579.584553 236.120455 
L 585.142276 236.120455 
L 590.7 236.120455 
L 596.257723 236.120455 
L 601.815447 236.120455 
L 607.373171 236.120455 
L 612.930894 236.120455 
L 618.488618 236.120455 
L 624.046341 236.120455 
L 629.604065 236.120455 
L 635.161789 236.120455 
L 640.719512 236.120455 
L 646.277236 236.120455 
L 651.834959 236.120455 
L 657.392683 236.120455 
" clip-path="url(#pb0f3e4bb91)" style="fill: none; stroke: #2ca02c; stroke-width: 1.5; stroke-linecap: square"/>
   </g>
   <g id="patch_24">
    <path d="M 383.119024 240.28 
L 383.119024 148.77 
" style="fill: none; stroke: #000000; stroke-width: 0.8; stroke-linejoin: miter; stroke-linecap: square"/>
   </g>
   <g id="patch_25">
    <path d="M 670.453333 240.28 
L 670.453333 148.77 
" style="fill: none; stroke: #000000; stroke-width: 0.8; stroke-linejoin: miter; stroke-linecap: square"/>
   </g>
   <g id="patch_26">
    <path d="M 383.119024 240.28 
L 670.453333 240.28 
" style="fill: none; stroke: #000000; stroke-width: 0.8; stroke-linejoin: miter; stroke-linecap: square"/>
   </g>
   <g id="patch_27">
    <path d="M 383.119024 148.77 
L 670.453333 148.77 
" style="fill: none; stroke: #000000; stroke-width: 0.8; stroke-linejoin: miter; stroke-linecap: square"/>
   </g>
   <g id="text_36">
    <!-- $n = 6$ -->
    <g transform="translate(511.786179 142.77) scale(0.12 -0.12)">
     <defs>
      <path id="DejaVuSans-36" d="M 2113 2584 
Q 1688 2584 1439 2293 
Q 1191 2003 1191 1497 
Q 1191 994 1439 701 
Q 1688 409 2113 409 
Q 2538 409 2786 701 
Q 3034 994 3034 1497 
Q 3034 2003 2786 2293 
Q 2538 2584 2113 2584 
z
M 3366 4563 
L 3366 3988 
Q 3128 4100 2886 4159 
Q 2644 4219 2406 4219 
Q 1781 4219 1451 3797 
Q 1122 3375 1075 2522 
Q 1259 2794 1537 2939 
Q 1816 3084 2150 3084 
Q 2853 3084 3261 2657 
Q 3669 2231 3669 1497 
Q 3669 778 3244 343 
Q 2819 -91 2113 -91 
Q 1303 -91 875 529 
Q 447 1150 447 2328 
Q 447 3434 972 4092 
Q 1497 4750 2381 4750 
Q 2619 4750 2861 4703 
Q 3103 4656 3366 4563 
z
" transform="scale(0.015625)"/>
     </defs>
     <use xlink:href="#DejaVuSans-Oblique-6e" transform="translate(0 0.78125)"/>
     <use xlink:href="#DejaVuSans-3d" transform="translate(82.861328 0.78125)"/>
     <use xlink:href="#DejaVuSans-36" transform="translate(186.132812 0.78125)"/>
    </g>
   </g>
  </g>
  <g id="axes_6">
   <g id="patch_28">
    <path d="M 709.865691 240.28 
L 997.2 240.28 
L 997.2 148.77 
L 709.865691 148.77 
z
" style="fill: #ffffff"/>
   </g>
   <g id="matplotlib.axis_11">
    <g id="xtick_31">
     <g id="line2d_116">
      <g>
       <use xlink:href="#m548ab553d3" x="722.926341" y="240.28" style="stroke: #000000; stroke-width: 0.8"/>
      </g>
     </g>
     <g id="text_37">
      <!-- 2 -->
      <g transform="translate(719.108841 256.398125) scale(0.12 -0.12)">
       <use xlink:href="#DejaVuSans-32"/>
      </g>
     </g>
    </g>
    <g id="xtick_32">
     <g id="line2d_117">
      <g>
       <use xlink:href="#m548ab553d3" x="778.503577" y="240.28" style="stroke: #000000; stroke-width: 0.8"/>
      </g>
     </g>
     <g id="text_38">
      <!-- 12 -->
      <g transform="translate(770.868577 256.398125) scale(0.12 -0.12)">
       <use xlink:href="#DejaVuSans-31"/>
       <use xlink:href="#DejaVuSans-32" x="63.623047"/>
      </g>
     </g>
    </g>
    <g id="xtick_33">
     <g id="line2d_118">
      <g>
       <use xlink:href="#m548ab553d3" x="834.080813" y="240.28" style="stroke: #000000; stroke-width: 0.8"/>
      </g>
     </g>
     <g id="text_39">
      <!-- 22 -->
      <g transform="translate(826.445813 256.398125) scale(0.12 -0.12)">
       <use xlink:href="#DejaVuSans-32"/>
       <use xlink:href="#DejaVuSans-32" x="63.623047"/>
      </g>
     </g>
    </g>
    <g id="xtick_34">
     <g id="line2d_119">
      <g>
       <use xlink:href="#m548ab553d3" x="889.658049" y="240.28" style="stroke: #000000; stroke-width: 0.8"/>
      </g>
     </g>
     <g id="text_40">
      <!-- 32 -->
      <g transform="translate(882.023049 256.398125) scale(0.12 -0.12)">
       <use xlink:href="#DejaVuSans-33"/>
       <use xlink:href="#DejaVuSans-32" x="63.623047"/>
      </g>
     </g>
    </g>
    <g id="xtick_35">
     <g id="line2d_120">
      <g>
       <use xlink:href="#m548ab553d3" x="945.235284" y="240.28" style="stroke: #000000; stroke-width: 0.8"/>
      </g>
     </g>
     <g id="text_41">
      <!-- 42 -->
      <g transform="translate(937.600284 256.398125) scale(0.12 -0.12)">
       <use xlink:href="#DejaVuSans-34"/>
       <use xlink:href="#DejaVuSans-32" x="63.623047"/>
      </g>
     </g>
    </g>
    <g id="xtick_36">
     <g id="line2d_121">
      <g>
       <use xlink:href="#m548ab553d3" x="984.13935" y="240.28" style="stroke: #000000; stroke-width: 0.8"/>
      </g>
     </g>
     <g id="text_42">
      <!-- 49 -->
      <g transform="translate(976.50435 256.398125) scale(0.12 -0.12)">
       <use xlink:href="#DejaVuSans-34"/>
       <use xlink:href="#DejaVuSans-39" x="63.623047"/>
      </g>
     </g>
    </g>
    <g id="text_43">
     <!-- $d$ -->
     <g transform="translate(849.692845 272.011875) scale(0.12 -0.12)">
      <use xlink:href="#DejaVuSans-Oblique-64" transform="translate(0 0.015625)"/>
     </g>
    </g>
   </g>
   <g id="matplotlib.axis_12">
    <g id="ytick_68">
     <g id="line2d_122">
      <g>
       <use xlink:href="#m2f04a0c972" x="709.865691" y="220.320311" style="stroke: #000000; stroke-width: 0.8"/>
      </g>
     </g>
     <g id="text_44">
      <!-- $\mathdefault{10^{3}}$ -->
      <g transform="translate(681.745691 224.879373) scale(0.12 -0.12)">
       <use xlink:href="#DejaVuSans-31" transform="translate(0 0.765625)"/>
       <use xlink:href="#DejaVuSans-30" transform="translate(63.623047 0.765625)"/>
       <use xlink:href="#DejaVuSans-33" transform="translate(128.203125 39.046875) scale(0.7)"/>
      </g>
     </g>
    </g>
    <g id="ytick_69">
     <g id="line2d_123">
      <g>
       <use xlink:href="#m2f04a0c972" x="709.865691" y="184.925328" style="stroke: #000000; stroke-width: 0.8"/>
      </g>
     </g>
     <g id="text_45">
      <!-- $\mathdefault{10^{5}}$ -->
      <g transform="translate(681.745691 189.48439) scale(0.12 -0.12)">
       <use xlink:href="#DejaVuSans-31" transform="translate(0 0.684375)"/>
       <use xlink:href="#DejaVuSans-30" transform="translate(63.623047 0.684375)"/>
       <use xlink:href="#DejaVuSans-35" transform="translate(128.203125 38.965625) scale(0.7)"/>
      </g>
     </g>
    </g>
    <g id="ytick_70">
     <g id="line2d_124">
      <g>
       <use xlink:href="#m2f04a0c972" x="709.865691" y="149.530345" style="stroke: #000000; stroke-width: 0.8"/>
      </g>
     </g>
     <g id="text_46">
      <!-- $\mathdefault{10^{7}}$ -->
      <g transform="translate(681.745691 154.089407) scale(0.12 -0.12)">
       <defs>
        <path id="DejaVuSans-37" d="M 525 4666 
L 3525 4666 
L 3525 4397 
L 1831 0 
L 1172 0 
L 2766 4134 
L 525 4134 
L 525 4666 
z
" transform="scale(0.015625)"/>
       </defs>
       <use xlink:href="#DejaVuSans-31" transform="translate(0 0.684375)"/>
       <use xlink:href="#DejaVuSans-30" transform="translate(63.623047 0.684375)"/>
       <use xlink:href="#DejaVuSans-37" transform="translate(128.203125 38.965625) scale(0.7)"/>
      </g>
     </g>
    </g>
   </g>
   <g id="line2d_125">
    <path d="M 722.926341 198.768311 
L 728.484065 198.768311 
L 734.041788 198.768311 
L 739.599512 198.768311 
L 745.157236 198.768311 
L 750.714959 198.768311 
L 756.272683 198.768311 
L 761.830406 198.768311 
L 767.38813 198.768311 
L 772.945853 198.768311 
L 778.503577 198.768311 
L 784.061301 198.768311 
L 789.619024 198.768311 
L 795.176748 198.768311 
L 800.734471 198.768311 
L 806.292195 198.768311 
L 811.849919 198.768311 
L 817.407642 198.768311 
L 822.965366 198.768311 
L 828.523089 198.768311 
L 834.080813 198.768311 
L 839.638536 198.768311 
L 845.19626 198.768311 
L 850.753984 198.768311 
L 856.311707 198.768311 
L 861.869431 198.768311 
L 867.427154 198.768311 
L 872.984878 198.768311 
L 878.542602 198.768311 
L 884.100325 198.768311 
L 889.658049 198.768311 
L 895.215772 198.768311 
L 900.773496 198.768311 
L 906.331219 198.768311 
L 911.888943 198.768311 
L 917.446667 198.768311 
L 923.00439 198.768311 
L 928.562114 198.768311 
L 934.119837 198.768311 
L 939.677561 198.768311 
L 945.235284 198.768311 
L 950.793008 198.768311 
L 956.350732 198.768311 
L 961.908455 198.768311 
L 967.466179 198.768311 
L 973.023902 198.768311 
L 978.581626 198.768311 
L 984.13935 198.768311 
" clip-path="url(#p354324f76d)" style="fill: none; stroke: #1f77b4; stroke-width: 1.5; stroke-linecap: square"/>
   </g>
   <g id="line2d_126">
    <path d="M 722.926341 177.034201 
L 728.484065 174.350778 
L 734.041788 172.038544 
L 739.599512 170.338565 
L 745.157236 169.067969 
L 750.714959 167.764338 
L 756.272683 166.636083 
L 761.830406 165.945199 
L 767.38813 165.045139 
L 772.945853 164.363432 
L 778.503577 163.876074 
L 784.061301 163.116927 
L 789.619024 162.477479 
L 795.176748 162.036957 
L 800.734471 161.423727 
L 806.292195 161.018019 
L 811.849919 160.615592 
L 817.407642 160.102526 
L 822.965366 159.748058 
L 828.523089 159.374692 
L 834.080813 159.163664 
L 839.638536 158.736511 
L 845.19626 158.350873 
L 850.753984 158.10874 
L 856.311707 157.823457 
L 861.869431 157.526969 
L 867.427154 157.22777 
L 872.984878 156.96492 
L 878.542602 156.692836 
L 884.100325 156.472196 
L 889.658049 156.187929 
L 895.215772 155.961335 
L 900.773496 155.695036 
L 906.331219 155.431139 
L 911.888943 155.28492 
L 917.446667 155.017011 
L 923.00439 154.879404 
L 928.562114 154.609416 
L 934.119837 154.506716 
L 939.677561 154.291293 
L 945.235284 154.114597 
L 950.793008 153.883966 
L 956.350732 153.784325 
L 961.908455 153.630801 
L 967.466179 153.436618 
L 973.023902 153.198359 
L 978.581626 153.113591 
L 984.13935 152.929545 
" clip-path="url(#p354324f76d)" style="fill: none; stroke: #ff7f0e; stroke-width: 1.5; stroke-linecap: square"/>
   </g>
   <g id="line2d_127">
    <path d="M 722.926341 236.120455 
L 728.484065 236.120455 
L 734.041788 236.120455 
L 739.599512 236.120455 
L 745.157236 236.120455 
L 750.714959 236.120455 
L 756.272683 236.120455 
L 761.830406 236.120455 
L 767.38813 236.120455 
L 772.945853 236.120455 
L 778.503577 236.120455 
L 784.061301 236.120455 
L 789.619024 236.120455 
L 795.176748 236.120455 
L 800.734471 236.120455 
L 806.292195 236.120455 
L 811.849919 236.120455 
L 817.407642 236.120455 
L 822.965366 236.120455 
L 828.523089 236.120455 
L 834.080813 236.120455 
L 839.638536 236.120455 
L 845.19626 236.120455 
L 850.753984 236.120455 
L 856.311707 236.120455 
L 861.869431 236.120455 
L 867.427154 236.120455 
L 872.984878 236.120455 
L 878.542602 236.120455 
L 884.100325 236.120455 
L 889.658049 236.120455 
L 895.215772 236.120455 
L 900.773496 236.120455 
L 906.331219 236.120455 
L 911.888943 236.120455 
L 917.446667 236.120455 
L 923.00439 236.120455 
L 928.562114 236.120455 
L 934.119837 236.120455 
L 939.677561 236.120455 
L 945.235284 236.120455 
L 950.793008 236.120455 
L 956.350732 236.120455 
L 961.908455 236.120455 
L 967.466179 236.120455 
L 973.023902 236.120455 
L 978.581626 236.120455 
L 984.13935 236.120455 
" clip-path="url(#p354324f76d)" style="fill: none; stroke: #2ca02c; stroke-width: 1.5; stroke-linecap: square"/>
   </g>
   <g id="patch_29">
    <path d="M 709.865691 240.28 
L 709.865691 148.77 
" style="fill: none; stroke: #000000; stroke-width: 0.8; stroke-linejoin: miter; stroke-linecap: square"/>
   </g>
   <g id="patch_30">
    <path d="M 997.2 240.28 
L 997.2 148.77 
" style="fill: none; stroke: #000000; stroke-width: 0.8; stroke-linejoin: miter; stroke-linecap: square"/>
   </g>
   <g id="patch_31">
    <path d="M 709.865691 240.28 
L 997.2 240.28 
" style="fill: none; stroke: #000000; stroke-width: 0.8; stroke-linejoin: miter; stroke-linecap: square"/>
   </g>
   <g id="patch_32">
    <path d="M 709.865691 148.77 
L 997.2 148.77 
" style="fill: none; stroke: #000000; stroke-width: 0.8; stroke-linejoin: miter; stroke-linecap: square"/>
   </g>
   <g id="text_47">
    <!-- $n = 7$ -->
    <g transform="translate(838.532845 142.77) scale(0.12 -0.12)">
     <use xlink:href="#DejaVuSans-Oblique-6e" transform="translate(0 0.09375)"/>
     <use xlink:href="#DejaVuSans-3d" transform="translate(82.861328 0.09375)"/>
     <use xlink:href="#DejaVuSans-37" transform="translate(186.132812 0.09375)"/>
    </g>
   </g>
  </g>
 </g>
 <defs>
  <clipPath id="pf54e3e23ed">
   <rect x="56.372357" y="26.88" width="287.334309" height="91.51"/>
  </clipPath>
  <clipPath id="pf7bc9e18b7">
   <rect x="383.119024" y="26.88" width="287.334309" height="91.51"/>
  </clipPath>
  <clipPath id="pd80c32625c">
   <rect x="709.865691" y="26.88" width="287.334309" height="91.51"/>
  </clipPath>
  <clipPath id="p1da9068b5d">
   <rect x="56.372357" y="148.77" width="287.334309" height="91.51"/>
  </clipPath>
  <clipPath id="pb0f3e4bb91">
   <rect x="383.119024" y="148.77" width="287.334309" height="91.51"/>
  </clipPath>
  <clipPath id="p354324f76d">
   <rect x="709.865691" y="148.77" width="287.334309" height="91.51"/>
  </clipPath>
 </defs>
</svg>
