<?xml version="1.0" encoding="utf-8" standalone="no"?>
<!DOCTYPE svg PUBLIC "-//W3C//DTD SVG 1.1//EN"
  "http://www.w3.org/Graphics/SVG/1.1/DTD/svg11.dtd">
<svg xmlns:xlink="http://www.w3.org/1999/xlink" width="1008pt" height="288pt" viewBox="0 0 1008 288" xmlns="http://www.w3.org/2000/svg" version="1.1">
 <metadata>
  <rdf:RDF xmlns:dc="http://purl.org/dc/elements/1.1/" xmlns:cc="http://creativecommons.org/ns#" xmlns:rdf="http://www.w3.org/1999/02/22-rdf-syntax-ns#">
   <cc:Work>
    <dc:type rdf:resource="http://purl.org/dc/dcmitype/StillImage"/>
    <dc:date>2024-06-12T11:33:43.174281</dc:date>
    <dc:format>image/svg+xml</dc:format>
    <dc:creator>
     <cc:Agent>
      <dc:title>Matplotlib v3.8.4, https://matplotlib.org/</dc:title>
     </cc:Agent>
    </dc:creator>
   </cc:Work>
  </rdf:RDF>
 </metadata>
 <defs>
  <style type="text/css">*{stroke-linejoin: round; stroke-linecap: butt}</style>
 </defs>
 <g id="figure_1">
  <g id="patch_1">
   <path d="M 0 288 
L 1008 288 
L 1008 0 
L 0 0 
z
" style="fill: #ffffff"/>
  </g>
  <g id="axes_1">
   <g id="patch_2">
    <path d="M 63.246793 118.39 
L 343.706667 118.39 
L 343.706667 26.88 
L 63.246793 26.88 
z
" style="fill: #ffffff"/>
   </g>
   <g id="matplotlib.axis_1">
    <g id="xtick_1">
     <g id="line2d_1">
      <defs>
       <path id="mf64cd2a1f1" d="M 0 0 
L 0 3.5 
" style="stroke: #000000; stroke-width: 0.8"/>
      </defs>
      <g>
       <use xlink:href="#mf64cd2a1f1" x="75.994969" y="118.39" style="stroke: #000000; stroke-width: 0.8"/>
      </g>
     </g>
    </g>
    <g id="xtick_2">
     <g id="line2d_2">
      <g>
       <use xlink:href="#mf64cd2a1f1" x="130.242527" y="118.39" style="stroke: #000000; stroke-width: 0.8"/>
      </g>
     </g>
    </g>
    <g id="xtick_3">
     <g id="line2d_3">
      <g>
       <use xlink:href="#mf64cd2a1f1" x="184.490085" y="118.39" style="stroke: #000000; stroke-width: 0.8"/>
      </g>
     </g>
    </g>
    <g id="xtick_4">
     <g id="line2d_4">
      <g>
       <use xlink:href="#mf64cd2a1f1" x="238.737642" y="118.39" style="stroke: #000000; stroke-width: 0.8"/>
      </g>
     </g>
    </g>
    <g id="xtick_5">
     <g id="line2d_5">
      <g>
       <use xlink:href="#mf64cd2a1f1" x="292.9852" y="118.39" style="stroke: #000000; stroke-width: 0.8"/>
      </g>
     </g>
    </g>
    <g id="xtick_6">
     <g id="line2d_6">
      <g>
       <use xlink:href="#mf64cd2a1f1" x="330.958491" y="118.39" style="stroke: #000000; stroke-width: 0.8"/>
      </g>
     </g>
    </g>
   </g>
   <g id="matplotlib.axis_2">
    <g id="ytick_1">
     <g id="line2d_7">
      <defs>
       <path id="mfdec5106ef" d="M 0 0 
L -3.5 0 
" style="stroke: #000000; stroke-width: 0.8"/>
      </defs>
      <g>
       <use xlink:href="#mfdec5106ef" x="63.246793" y="92.960401" style="stroke: #000000; stroke-width: 0.8"/>
      </g>
     </g>
     <g id="text_1">
      <!-- $\mathdefault{10^{-3}}$ -->
      <g transform="translate(28.046793 97.519464) scale(0.12 -0.12)">
       <defs>
        <path id="DejaVuSans-31" d="M 794 531 
L 1825 531 
L 1825 4091 
L 703 3866 
L 703 4441 
L 1819 4666 
L 2450 4666 
L 2450 531 
L 3481 531 
L 3481 0 
L 794 0 
L 794 531 
z
" transform="scale(0.015625)"/>
        <path id="DejaVuSans-30" d="M 2034 4250 
Q 1547 4250 1301 3770 
Q 1056 3291 1056 2328 
Q 1056 1369 1301 889 
Q 1547 409 2034 409 
Q 2525 409 2770 889 
Q 3016 1369 3016 2328 
Q 3016 3291 2770 3770 
Q 2525 4250 2034 4250 
z
M 2034 4750 
Q 2819 4750 3233 4129 
Q 3647 3509 3647 2328 
Q 3647 1150 3233 529 
Q 2819 -91 2034 -91 
Q 1250 -91 836 529 
Q 422 1150 422 2328 
Q 422 3509 836 4129 
Q 1250 4750 2034 4750 
z
" transform="scale(0.015625)"/>
        <path id="DejaVuSans-2212" d="M 678 2272 
L 4684 2272 
L 4684 1741 
L 678 1741 
L 678 2272 
z
" transform="scale(0.015625)"/>
        <path id="DejaVuSans-33" d="M 2597 2516 
Q 3050 2419 3304 2112 
Q 3559 1806 3559 1356 
Q 3559 666 3084 287 
Q 2609 -91 1734 -91 
Q 1441 -91 1130 -33 
Q 819 25 488 141 
L 488 750 
Q 750 597 1062 519 
Q 1375 441 1716 441 
Q 2309 441 2620 675 
Q 2931 909 2931 1356 
Q 2931 1769 2642 2001 
Q 2353 2234 1838 2234 
L 1294 2234 
L 1294 2753 
L 1863 2753 
Q 2328 2753 2575 2939 
Q 2822 3125 2822 3475 
Q 2822 3834 2567 4026 
Q 2313 4219 1838 4219 
Q 1578 4219 1281 4162 
Q 984 4106 628 3988 
L 628 4550 
Q 988 4650 1302 4700 
Q 1616 4750 1894 4750 
Q 2613 4750 3031 4423 
Q 3450 4097 3450 3541 
Q 3450 3153 3228 2886 
Q 3006 2619 2597 2516 
z
" transform="scale(0.015625)"/>
       </defs>
       <use xlink:href="#DejaVuSans-31" transform="translate(0 0.765625)"/>
       <use xlink:href="#DejaVuSans-30" transform="translate(63.623047 0.765625)"/>
       <use xlink:href="#DejaVuSans-2212" transform="translate(128.203125 39.046875) scale(0.7)"/>
       <use xlink:href="#DejaVuSans-33" transform="translate(186.855469 39.046875) scale(0.7)"/>
      </g>
     </g>
    </g>
    <g id="ytick_2">
     <g id="line2d_8">
      <g>
       <use xlink:href="#mfdec5106ef" x="63.246793" y="67.128486" style="stroke: #000000; stroke-width: 0.8"/>
      </g>
     </g>
     <g id="text_2">
      <!-- $\mathdefault{10^{-2}}$ -->
      <g transform="translate(28.046793 71.687548) scale(0.12 -0.12)">
       <defs>
        <path id="DejaVuSans-32" d="M 1228 531 
L 3431 531 
L 3431 0 
L 469 0 
L 469 531 
Q 828 903 1448 1529 
Q 2069 2156 2228 2338 
Q 2531 2678 2651 2914 
Q 2772 3150 2772 3378 
Q 2772 3750 2511 3984 
Q 2250 4219 1831 4219 
Q 1534 4219 1204 4116 
Q 875 4013 500 3803 
L 500 4441 
Q 881 4594 1212 4672 
Q 1544 4750 1819 4750 
Q 2544 4750 2975 4387 
Q 3406 4025 3406 3419 
Q 3406 3131 3298 2873 
Q 3191 2616 2906 2266 
Q 2828 2175 2409 1742 
Q 1991 1309 1228 531 
z
" transform="scale(0.015625)"/>
       </defs>
       <use xlink:href="#DejaVuSans-31" transform="translate(0 0.765625)"/>
       <use xlink:href="#DejaVuSans-30" transform="translate(63.623047 0.765625)"/>
       <use xlink:href="#DejaVuSans-2212" transform="translate(128.203125 39.046875) scale(0.7)"/>
       <use xlink:href="#DejaVuSans-32" transform="translate(186.855469 39.046875) scale(0.7)"/>
      </g>
     </g>
    </g>
    <g id="ytick_3">
     <g id="line2d_9">
      <g>
       <use xlink:href="#mfdec5106ef" x="63.246793" y="41.296571" style="stroke: #000000; stroke-width: 0.8"/>
      </g>
     </g>
     <g id="text_3">
      <!-- $\mathdefault{10^{-1}}$ -->
      <g transform="translate(28.046793 45.855633) scale(0.12 -0.12)">
       <use xlink:href="#DejaVuSans-31" transform="translate(0 0.684375)"/>
       <use xlink:href="#DejaVuSans-30" transform="translate(63.623047 0.684375)"/>
       <use xlink:href="#DejaVuSans-2212" transform="translate(128.203125 38.965625) scale(0.7)"/>
       <use xlink:href="#DejaVuSans-31" transform="translate(186.855469 38.965625) scale(0.7)"/>
      </g>
     </g>
    </g>
    <g id="ytick_4">
     <g id="line2d_10">
      <defs>
       <path id="m0a614ba5b2" d="M 0 0 
L -2 0 
" style="stroke: #000000; stroke-width: 0.6"/>
      </defs>
      <g>
       <use xlink:href="#m0a614ba5b2" x="63.246793" y="111.016136" style="stroke: #000000; stroke-width: 0.6"/>
      </g>
     </g>
    </g>
    <g id="ytick_5">
     <g id="line2d_11">
      <g>
       <use xlink:href="#m0a614ba5b2" x="63.246793" y="106.467361" style="stroke: #000000; stroke-width: 0.6"/>
      </g>
     </g>
    </g>
    <g id="ytick_6">
     <g id="line2d_12">
      <g>
       <use xlink:href="#m0a614ba5b2" x="63.246793" y="103.239954" style="stroke: #000000; stroke-width: 0.6"/>
      </g>
     </g>
    </g>
    <g id="ytick_7">
     <g id="line2d_13">
      <g>
       <use xlink:href="#m0a614ba5b2" x="63.246793" y="100.736583" style="stroke: #000000; stroke-width: 0.6"/>
      </g>
     </g>
    </g>
    <g id="ytick_8">
     <g id="line2d_14">
      <g>
       <use xlink:href="#m0a614ba5b2" x="63.246793" y="98.69118" style="stroke: #000000; stroke-width: 0.6"/>
      </g>
     </g>
    </g>
    <g id="ytick_9">
     <g id="line2d_15">
      <g>
       <use xlink:href="#m0a614ba5b2" x="63.246793" y="96.961816" style="stroke: #000000; stroke-width: 0.6"/>
      </g>
     </g>
    </g>
    <g id="ytick_10">
     <g id="line2d_16">
      <g>
       <use xlink:href="#m0a614ba5b2" x="63.246793" y="95.463773" style="stroke: #000000; stroke-width: 0.6"/>
      </g>
     </g>
    </g>
    <g id="ytick_11">
     <g id="line2d_17">
      <g>
       <use xlink:href="#m0a614ba5b2" x="63.246793" y="94.142405" style="stroke: #000000; stroke-width: 0.6"/>
      </g>
     </g>
    </g>
    <g id="ytick_12">
     <g id="line2d_18">
      <g>
       <use xlink:href="#m0a614ba5b2" x="63.246793" y="85.18422" style="stroke: #000000; stroke-width: 0.6"/>
      </g>
     </g>
    </g>
    <g id="ytick_13">
     <g id="line2d_19">
      <g>
       <use xlink:href="#m0a614ba5b2" x="63.246793" y="80.635446" style="stroke: #000000; stroke-width: 0.6"/>
      </g>
     </g>
    </g>
    <g id="ytick_14">
     <g id="line2d_20">
      <g>
       <use xlink:href="#m0a614ba5b2" x="63.246793" y="77.408039" style="stroke: #000000; stroke-width: 0.6"/>
      </g>
     </g>
    </g>
    <g id="ytick_15">
     <g id="line2d_21">
      <g>
       <use xlink:href="#m0a614ba5b2" x="63.246793" y="74.904667" style="stroke: #000000; stroke-width: 0.6"/>
      </g>
     </g>
    </g>
    <g id="ytick_16">
     <g id="line2d_22">
      <g>
       <use xlink:href="#m0a614ba5b2" x="63.246793" y="72.859264" style="stroke: #000000; stroke-width: 0.6"/>
      </g>
     </g>
    </g>
    <g id="ytick_17">
     <g id="line2d_23">
      <g>
       <use xlink:href="#m0a614ba5b2" x="63.246793" y="71.1299" style="stroke: #000000; stroke-width: 0.6"/>
      </g>
     </g>
    </g>
    <g id="ytick_18">
     <g id="line2d_24">
      <g>
       <use xlink:href="#m0a614ba5b2" x="63.246793" y="69.631857" style="stroke: #000000; stroke-width: 0.6"/>
      </g>
     </g>
    </g>
    <g id="ytick_19">
     <g id="line2d_25">
      <g>
       <use xlink:href="#m0a614ba5b2" x="63.246793" y="68.31049" style="stroke: #000000; stroke-width: 0.6"/>
      </g>
     </g>
    </g>
    <g id="ytick_20">
     <g id="line2d_26">
      <g>
       <use xlink:href="#m0a614ba5b2" x="63.246793" y="59.352305" style="stroke: #000000; stroke-width: 0.6"/>
      </g>
     </g>
    </g>
    <g id="ytick_21">
     <g id="line2d_27">
      <g>
       <use xlink:href="#m0a614ba5b2" x="63.246793" y="54.80353" style="stroke: #000000; stroke-width: 0.6"/>
      </g>
     </g>
    </g>
    <g id="ytick_22">
     <g id="line2d_28">
      <g>
       <use xlink:href="#m0a614ba5b2" x="63.246793" y="51.576123" style="stroke: #000000; stroke-width: 0.6"/>
      </g>
     </g>
    </g>
    <g id="ytick_23">
     <g id="line2d_29">
      <g>
       <use xlink:href="#m0a614ba5b2" x="63.246793" y="49.072752" style="stroke: #000000; stroke-width: 0.6"/>
      </g>
     </g>
    </g>
    <g id="ytick_24">
     <g id="line2d_30">
      <g>
       <use xlink:href="#m0a614ba5b2" x="63.246793" y="47.027349" style="stroke: #000000; stroke-width: 0.6"/>
      </g>
     </g>
    </g>
    <g id="ytick_25">
     <g id="line2d_31">
      <g>
       <use xlink:href="#m0a614ba5b2" x="63.246793" y="45.297985" style="stroke: #000000; stroke-width: 0.6"/>
      </g>
     </g>
    </g>
    <g id="ytick_26">
     <g id="line2d_32">
      <g>
       <use xlink:href="#m0a614ba5b2" x="63.246793" y="43.799942" style="stroke: #000000; stroke-width: 0.6"/>
      </g>
     </g>
    </g>
    <g id="ytick_27">
     <g id="line2d_33">
      <g>
       <use xlink:href="#m0a614ba5b2" x="63.246793" y="42.478574" style="stroke: #000000; stroke-width: 0.6"/>
      </g>
     </g>
    </g>
    <g id="ytick_28">
     <g id="line2d_34">
      <g>
       <use xlink:href="#m0a614ba5b2" x="63.246793" y="33.520389" style="stroke: #000000; stroke-width: 0.6"/>
      </g>
     </g>
    </g>
    <g id="ytick_29">
     <g id="line2d_35">
      <g>
       <use xlink:href="#m0a614ba5b2" x="63.246793" y="28.971615" style="stroke: #000000; stroke-width: 0.6"/>
      </g>
     </g>
    </g>
    <g id="text_4">
     <!-- Time (s) -->
     <g transform="translate(21.551168 97.029687) rotate(-90) scale(0.12 -0.12)">
      <defs>
       <path id="DejaVuSans-54" d="M -19 4666 
L 3928 4666 
L 3928 4134 
L 2272 4134 
L 2272 0 
L 1638 0 
L 1638 4134 
L -19 4134 
L -19 4666 
z
" transform="scale(0.015625)"/>
       <path id="DejaVuSans-69" d="M 603 3500 
L 1178 3500 
L 1178 0 
L 603 0 
L 603 3500 
z
M 603 4863 
L 1178 4863 
L 1178 4134 
L 603 4134 
L 603 4863 
z
" transform="scale(0.015625)"/>
       <path id="DejaVuSans-6d" d="M 3328 2828 
Q 3544 3216 3844 3400 
Q 4144 3584 4550 3584 
Q 5097 3584 5394 3201 
Q 5691 2819 5691 2113 
L 5691 0 
L 5113 0 
L 5113 2094 
Q 5113 2597 4934 2840 
Q 4756 3084 4391 3084 
Q 3944 3084 3684 2787 
Q 3425 2491 3425 1978 
L 3425 0 
L 2847 0 
L 2847 2094 
Q 2847 2600 2669 2842 
Q 2491 3084 2119 3084 
Q 1678 3084 1418 2786 
Q 1159 2488 1159 1978 
L 1159 0 
L 581 0 
L 581 3500 
L 1159 3500 
L 1159 2956 
Q 1356 3278 1631 3431 
Q 1906 3584 2284 3584 
Q 2666 3584 2933 3390 
Q 3200 3197 3328 2828 
z
" transform="scale(0.015625)"/>
       <path id="DejaVuSans-65" d="M 3597 1894 
L 3597 1613 
L 953 1613 
Q 991 1019 1311 708 
Q 1631 397 2203 397 
Q 2534 397 2845 478 
Q 3156 559 3463 722 
L 3463 178 
Q 3153 47 2828 -22 
Q 2503 -91 2169 -91 
Q 1331 -91 842 396 
Q 353 884 353 1716 
Q 353 2575 817 3079 
Q 1281 3584 2069 3584 
Q 2775 3584 3186 3129 
Q 3597 2675 3597 1894 
z
M 3022 2063 
Q 3016 2534 2758 2815 
Q 2500 3097 2075 3097 
Q 1594 3097 1305 2825 
Q 1016 2553 972 2059 
L 3022 2063 
z
" transform="scale(0.015625)"/>
       <path id="DejaVuSans-20" transform="scale(0.015625)"/>
       <path id="DejaVuSans-28" d="M 1984 4856 
Q 1566 4138 1362 3434 
Q 1159 2731 1159 2009 
Q 1159 1288 1364 580 
Q 1569 -128 1984 -844 
L 1484 -844 
Q 1016 -109 783 600 
Q 550 1309 550 2009 
Q 550 2706 781 3412 
Q 1013 4119 1484 4856 
L 1984 4856 
z
" transform="scale(0.015625)"/>
       <path id="DejaVuSans-73" d="M 2834 3397 
L 2834 2853 
Q 2591 2978 2328 3040 
Q 2066 3103 1784 3103 
Q 1356 3103 1142 2972 
Q 928 2841 928 2578 
Q 928 2378 1081 2264 
Q 1234 2150 1697 2047 
L 1894 2003 
Q 2506 1872 2764 1633 
Q 3022 1394 3022 966 
Q 3022 478 2636 193 
Q 2250 -91 1575 -91 
Q 1294 -91 989 -36 
Q 684 19 347 128 
L 347 722 
Q 666 556 975 473 
Q 1284 391 1588 391 
Q 1994 391 2212 530 
Q 2431 669 2431 922 
Q 2431 1156 2273 1281 
Q 2116 1406 1581 1522 
L 1381 1569 
Q 847 1681 609 1914 
Q 372 2147 372 2553 
Q 372 3047 722 3315 
Q 1072 3584 1716 3584 
Q 2034 3584 2315 3537 
Q 2597 3491 2834 3397 
z
" transform="scale(0.015625)"/>
       <path id="DejaVuSans-29" d="M 513 4856 
L 1013 4856 
Q 1481 4119 1714 3412 
Q 1947 2706 1947 2009 
Q 1947 1309 1714 600 
Q 1481 -109 1013 -844 
L 513 -844 
Q 928 -128 1133 580 
Q 1338 1288 1338 2009 
Q 1338 2731 1133 3434 
Q 928 4138 513 4856 
z
" transform="scale(0.015625)"/>
      </defs>
      <use xlink:href="#DejaVuSans-54"/>
      <use xlink:href="#DejaVuSans-69" x="57.958984"/>
      <use xlink:href="#DejaVuSans-6d" x="85.742188"/>
      <use xlink:href="#DejaVuSans-65" x="183.154297"/>
      <use xlink:href="#DejaVuSans-20" x="244.677734"/>
      <use xlink:href="#DejaVuSans-28" x="276.464844"/>
      <use xlink:href="#DejaVuSans-73" x="315.478516"/>
      <use xlink:href="#DejaVuSans-29" x="367.578125"/>
     </g>
    </g>
   </g>
   <g id="line2d_36">
    <path d="M 75.994969 114.230455 
L 81.419725 108.066169 
L 86.844481 102.477929 
L 92.269236 102.687549 
L 97.693992 100.747887 
L 103.118748 100.728305 
L 108.543504 103.196451 
L 113.968259 98.839997 
L 119.393015 100.723495 
L 124.817771 96.913974 
L 130.242527 98.16316 
L 135.667283 93.731268 
L 141.092038 94.83954 
L 146.516794 93.879271 
L 151.94155 93.927565 
L 157.366306 93.51258 
L 162.791061 93.646214 
L 168.215817 92.278986 
L 173.640573 91.414786 
L 179.065329 91.77252 
L 184.490085 90.644014 
L 189.91484 91.721916 
L 195.339596 89.864163 
L 200.764352 89.542571 
L 206.189108 89.285551 
L 211.613863 89.08522 
L 217.038619 88.030474 
L 222.463375 87.521466 
L 227.888131 89.322545 
L 233.312887 87.357625 
L 238.737642 87.099183 
L 244.162398 86.164365 
L 249.587154 86.620642 
L 255.01191 85.827407 
L 260.436665 86.599806 
L 265.861421 85.424134 
L 271.286177 85.908655 
L 276.710933 85.257328 
L 282.135689 84.807989 
L 287.560444 84.635075 
L 292.9852 84.45057 
L 298.409956 85.091083 
L 303.834712 83.956398 
L 309.259467 83.716057 
L 314.684223 83.419342 
L 320.108979 83.709981 
L 325.533735 83.154218 
L 330.958491 83.410957 
" clip-path="url(#pb90842d806)" style="fill: none; stroke: #ff0000; stroke-width: 1.5; stroke-linecap: square"/>
   </g>
   <g id="line2d_37">
    <path d="M 75.994969 110.936455 
L 81.419725 104.138694 
L 86.844481 104.414007 
L 92.269236 103.807203 
L 97.693992 98.54398 
L 103.118748 97.786287 
L 108.543504 95.515189 
L 113.968259 93.883278 
L 119.393015 92.068973 
L 124.817771 92.016033 
L 130.242527 89.230978 
L 135.667283 90.23793 
L 141.092038 87.407864 
L 146.516794 87.648385 
L 151.94155 85.530413 
L 157.366306 85.207177 
L 162.791061 83.9712 
L 168.215817 83.323424 
L 173.640573 82.561571 
L 179.065329 81.336224 
L 184.490085 80.791836 
L 189.91484 80.055998 
L 195.339596 79.109875 
L 200.764352 78.931301 
L 206.189108 77.798719 
L 211.613863 77.793873 
L 217.038619 76.661844 
L 222.463375 76.611168 
L 227.888131 75.594314 
L 233.312887 74.757204 
L 238.737642 74.457465 
L 244.162398 73.559853 
L 249.587154 73.406957 
L 255.01191 72.150688 
L 260.436665 71.934575 
L 265.861421 71.818939 
L 271.286177 71.2574 
L 276.710933 70.629749 
L 282.135689 69.902918 
L 287.560444 69.589833 
L 292.9852 69.567618 
L 298.409956 68.782418 
L 303.834712 68.760432 
L 309.259467 68.232143 
L 314.684223 67.572787 
L 320.108979 67.066013 
L 325.533735 66.795928 
L 330.958491 66.251098 
" clip-path="url(#pb90842d806)" style="fill: none; stroke: #008000; stroke-width: 1.5; stroke-linecap: square"/>
   </g>
   <g id="line2d_38">
    <path d="M 75.994969 91.394529 
L 81.419725 85.982308 
L 86.844481 80.694384 
L 92.269236 77.352419 
L 97.693992 74.131102 
L 103.118748 71.020552 
L 108.543504 68.950228 
L 113.968259 66.493521 
L 119.393015 63.922861 
L 124.817771 62.116301 
L 130.242527 60.274554 
L 135.667283 58.644998 
L 141.092038 56.935504 
L 146.516794 56.424714 
L 151.94155 54.947301 
L 157.366306 53.57583 
L 162.791061 52.423432 
L 168.215817 51.227076 
L 173.640573 50.071307 
L 179.065329 49.196577 
L 184.490085 47.744531 
L 189.91484 47.269884 
L 195.339596 46.15486 
L 200.764352 45.849732 
L 206.189108 44.567691 
L 211.613863 44.032809 
L 217.038619 42.711459 
L 222.463375 42.701751 
L 227.888131 41.875098 
L 233.312887 40.827412 
L 238.737642 40.141351 
L 244.162398 39.394277 
L 249.587154 39.06798 
L 255.01191 38.366273 
L 260.436665 37.66114 
L 265.861421 37.145766 
L 271.286177 36.598208 
L 276.710933 36.178694 
L 282.135689 35.344344 
L 287.560444 34.681104 
L 292.9852 34.61202 
L 298.409956 33.91356 
L 303.834712 33.615675 
L 309.259467 33.162039 
L 314.684223 32.562171 
L 320.108979 32.06467 
L 325.533735 31.615917 
L 330.958491 31.039545 
" clip-path="url(#pb90842d806)" style="fill: none; stroke: #0000ff; stroke-width: 1.5; stroke-linecap: square"/>
   </g>
   <g id="patch_3">
    <path d="M 63.246793 118.39 
L 63.246793 26.88 
" style="fill: none; stroke: #000000; stroke-width: 0.8; stroke-linejoin: miter; stroke-linecap: square"/>
   </g>
   <g id="patch_4">
    <path d="M 343.706667 118.39 
L 343.706667 26.88 
" style="fill: none; stroke: #000000; stroke-width: 0.8; stroke-linejoin: miter; stroke-linecap: square"/>
   </g>
   <g id="patch_5">
    <path d="M 63.246793 118.39 
L 343.706667 118.39 
" style="fill: none; stroke: #000000; stroke-width: 0.8; stroke-linejoin: miter; stroke-linecap: square"/>
   </g>
   <g id="patch_6">
    <path d="M 63.246793 26.88 
L 343.706667 26.88 
" style="fill: none; stroke: #000000; stroke-width: 0.8; stroke-linejoin: miter; stroke-linecap: square"/>
   </g>
   <g id="text_5">
    <!-- $n = 2$ -->
    <g transform="translate(188.47673 20.88) scale(0.12 -0.12)">
     <defs>
      <path id="DejaVuSans-Oblique-6e" d="M 3566 2113 
L 3156 0 
L 2578 0 
L 2988 2091 
Q 3016 2238 3031 2350 
Q 3047 2463 3047 2528 
Q 3047 2791 2881 2937 
Q 2716 3084 2419 3084 
Q 1956 3084 1622 2776 
Q 1288 2469 1184 1941 
L 800 0 
L 225 0 
L 903 3500 
L 1478 3500 
L 1363 2950 
Q 1603 3253 1940 3418 
Q 2278 3584 2650 3584 
Q 3113 3584 3367 3334 
Q 3622 3084 3622 2631 
Q 3622 2519 3608 2391 
Q 3594 2263 3566 2113 
z
" transform="scale(0.015625)"/>
      <path id="DejaVuSans-3d" d="M 678 2906 
L 4684 2906 
L 4684 2381 
L 678 2381 
L 678 2906 
z
M 678 1631 
L 4684 1631 
L 4684 1100 
L 678 1100 
L 678 1631 
z
" transform="scale(0.015625)"/>
     </defs>
     <use xlink:href="#DejaVuSans-Oblique-6e" transform="translate(0 0.78125)"/>
     <use xlink:href="#DejaVuSans-3d" transform="translate(82.861328 0.78125)"/>
     <use xlink:href="#DejaVuSans-32" transform="translate(186.132812 0.78125)"/>
    </g>
   </g>
   <g id="legend_1">
    <g id="patch_7">
     <path d="M 71.646793 89.32125 
L 246.421168 89.32125 
Q 248.821168 89.32125 248.821168 86.92125 
L 248.821168 35.28 
Q 248.821168 32.88 246.421168 32.88 
L 71.646793 32.88 
Q 69.246793 32.88 69.246793 35.28 
L 69.246793 86.92125 
Q 69.246793 89.32125 71.646793 89.32125 
z
" style="fill: #ffffff; opacity: 0.8; stroke: #cccccc; stroke-linejoin: miter"/>
    </g>
    <g id="line2d_39">
     <path d="M 74.046793 42.598125 
L 86.046793 42.598125 
L 98.046793 42.598125 
" style="fill: none; stroke: #ff0000; stroke-width: 1.5; stroke-linecap: square"/>
    </g>
    <g id="text_6">
     <!-- MM-based (Proposed) -->
     <g transform="translate(107.646793 46.798125) scale(0.12 -0.12)">
      <defs>
       <path id="DejaVuSans-4d" d="M 628 4666 
L 1569 4666 
L 2759 1491 
L 3956 4666 
L 4897 4666 
L 4897 0 
L 4281 0 
L 4281 4097 
L 3078 897 
L 2444 897 
L 1241 4097 
L 1241 0 
L 628 0 
L 628 4666 
z
" transform="scale(0.015625)"/>
       <path id="DejaVuSans-2d" d="M 313 2009 
L 1997 2009 
L 1997 1497 
L 313 1497 
L 313 2009 
z
" transform="scale(0.015625)"/>
       <path id="DejaVuSans-62" d="M 3116 1747 
Q 3116 2381 2855 2742 
Q 2594 3103 2138 3103 
Q 1681 3103 1420 2742 
Q 1159 2381 1159 1747 
Q 1159 1113 1420 752 
Q 1681 391 2138 391 
Q 2594 391 2855 752 
Q 3116 1113 3116 1747 
z
M 1159 2969 
Q 1341 3281 1617 3432 
Q 1894 3584 2278 3584 
Q 2916 3584 3314 3078 
Q 3713 2572 3713 1747 
Q 3713 922 3314 415 
Q 2916 -91 2278 -91 
Q 1894 -91 1617 61 
Q 1341 213 1159 525 
L 1159 0 
L 581 0 
L 581 4863 
L 1159 4863 
L 1159 2969 
z
" transform="scale(0.015625)"/>
       <path id="DejaVuSans-61" d="M 2194 1759 
Q 1497 1759 1228 1600 
Q 959 1441 959 1056 
Q 959 750 1161 570 
Q 1363 391 1709 391 
Q 2188 391 2477 730 
Q 2766 1069 2766 1631 
L 2766 1759 
L 2194 1759 
z
M 3341 1997 
L 3341 0 
L 2766 0 
L 2766 531 
Q 2569 213 2275 61 
Q 1981 -91 1556 -91 
Q 1019 -91 701 211 
Q 384 513 384 1019 
Q 384 1609 779 1909 
Q 1175 2209 1959 2209 
L 2766 2209 
L 2766 2266 
Q 2766 2663 2505 2880 
Q 2244 3097 1772 3097 
Q 1472 3097 1187 3025 
Q 903 2953 641 2809 
L 641 3341 
Q 956 3463 1253 3523 
Q 1550 3584 1831 3584 
Q 2591 3584 2966 3190 
Q 3341 2797 3341 1997 
z
" transform="scale(0.015625)"/>
       <path id="DejaVuSans-64" d="M 2906 2969 
L 2906 4863 
L 3481 4863 
L 3481 0 
L 2906 0 
L 2906 525 
Q 2725 213 2448 61 
Q 2172 -91 1784 -91 
Q 1150 -91 751 415 
Q 353 922 353 1747 
Q 353 2572 751 3078 
Q 1150 3584 1784 3584 
Q 2172 3584 2448 3432 
Q 2725 3281 2906 2969 
z
M 947 1747 
Q 947 1113 1208 752 
Q 1469 391 1925 391 
Q 2381 391 2643 752 
Q 2906 1113 2906 1747 
Q 2906 2381 2643 2742 
Q 2381 3103 1925 3103 
Q 1469 3103 1208 2742 
Q 947 2381 947 1747 
z
" transform="scale(0.015625)"/>
       <path id="DejaVuSans-50" d="M 1259 4147 
L 1259 2394 
L 2053 2394 
Q 2494 2394 2734 2622 
Q 2975 2850 2975 3272 
Q 2975 3691 2734 3919 
Q 2494 4147 2053 4147 
L 1259 4147 
z
M 628 4666 
L 2053 4666 
Q 2838 4666 3239 4311 
Q 3641 3956 3641 3272 
Q 3641 2581 3239 2228 
Q 2838 1875 2053 1875 
L 1259 1875 
L 1259 0 
L 628 0 
L 628 4666 
z
" transform="scale(0.015625)"/>
       <path id="DejaVuSans-72" d="M 2631 2963 
Q 2534 3019 2420 3045 
Q 2306 3072 2169 3072 
Q 1681 3072 1420 2755 
Q 1159 2438 1159 1844 
L 1159 0 
L 581 0 
L 581 3500 
L 1159 3500 
L 1159 2956 
Q 1341 3275 1631 3429 
Q 1922 3584 2338 3584 
Q 2397 3584 2469 3576 
Q 2541 3569 2628 3553 
L 2631 2963 
z
" transform="scale(0.015625)"/>
       <path id="DejaVuSans-6f" d="M 1959 3097 
Q 1497 3097 1228 2736 
Q 959 2375 959 1747 
Q 959 1119 1226 758 
Q 1494 397 1959 397 
Q 2419 397 2687 759 
Q 2956 1122 2956 1747 
Q 2956 2369 2687 2733 
Q 2419 3097 1959 3097 
z
M 1959 3584 
Q 2709 3584 3137 3096 
Q 3566 2609 3566 1747 
Q 3566 888 3137 398 
Q 2709 -91 1959 -91 
Q 1206 -91 779 398 
Q 353 888 353 1747 
Q 353 2609 779 3096 
Q 1206 3584 1959 3584 
z
" transform="scale(0.015625)"/>
       <path id="DejaVuSans-70" d="M 1159 525 
L 1159 -1331 
L 581 -1331 
L 581 3500 
L 1159 3500 
L 1159 2969 
Q 1341 3281 1617 3432 
Q 1894 3584 2278 3584 
Q 2916 3584 3314 3078 
Q 3713 2572 3713 1747 
Q 3713 922 3314 415 
Q 2916 -91 2278 -91 
Q 1894 -91 1617 61 
Q 1341 213 1159 525 
z
M 3116 1747 
Q 3116 2381 2855 2742 
Q 2594 3103 2138 3103 
Q 1681 3103 1420 2742 
Q 1159 2381 1159 1747 
Q 1159 1113 1420 752 
Q 1681 391 2138 391 
Q 2594 391 2855 752 
Q 3116 1113 3116 1747 
z
" transform="scale(0.015625)"/>
      </defs>
      <use xlink:href="#DejaVuSans-4d"/>
      <use xlink:href="#DejaVuSans-4d" x="86.279297"/>
      <use xlink:href="#DejaVuSans-2d" x="172.558594"/>
      <use xlink:href="#DejaVuSans-62" x="208.642578"/>
      <use xlink:href="#DejaVuSans-61" x="272.119141"/>
      <use xlink:href="#DejaVuSans-73" x="333.398438"/>
      <use xlink:href="#DejaVuSans-65" x="385.498047"/>
      <use xlink:href="#DejaVuSans-64" x="447.021484"/>
      <use xlink:href="#DejaVuSans-20" x="510.498047"/>
      <use xlink:href="#DejaVuSans-28" x="542.285156"/>
      <use xlink:href="#DejaVuSans-50" x="581.298828"/>
      <use xlink:href="#DejaVuSans-72" x="639.851562"/>
      <use xlink:href="#DejaVuSans-6f" x="678.714844"/>
      <use xlink:href="#DejaVuSans-70" x="739.896484"/>
      <use xlink:href="#DejaVuSans-6f" x="803.373047"/>
      <use xlink:href="#DejaVuSans-73" x="864.554688"/>
      <use xlink:href="#DejaVuSans-65" x="916.654297"/>
      <use xlink:href="#DejaVuSans-64" x="978.177734"/>
      <use xlink:href="#DejaVuSans-29" x="1041.654297"/>
     </g>
    </g>
    <g id="line2d_40">
     <path d="M 74.046793 60.211875 
L 86.046793 60.211875 
L 98.046793 60.211875 
" style="fill: none; stroke: #008000; stroke-width: 1.5; stroke-linecap: square"/>
    </g>
    <g id="text_7">
     <!-- MM-based (Baseline) -->
     <g transform="translate(107.646793 64.411875) scale(0.12 -0.12)">
      <defs>
       <path id="DejaVuSans-42" d="M 1259 2228 
L 1259 519 
L 2272 519 
Q 2781 519 3026 730 
Q 3272 941 3272 1375 
Q 3272 1813 3026 2020 
Q 2781 2228 2272 2228 
L 1259 2228 
z
M 1259 4147 
L 1259 2741 
L 2194 2741 
Q 2656 2741 2882 2914 
Q 3109 3088 3109 3444 
Q 3109 3797 2882 3972 
Q 2656 4147 2194 4147 
L 1259 4147 
z
M 628 4666 
L 2241 4666 
Q 2963 4666 3353 4366 
Q 3744 4066 3744 3513 
Q 3744 3084 3544 2831 
Q 3344 2578 2956 2516 
Q 3422 2416 3680 2098 
Q 3938 1781 3938 1306 
Q 3938 681 3513 340 
Q 3088 0 2303 0 
L 628 0 
L 628 4666 
z
" transform="scale(0.015625)"/>
       <path id="DejaVuSans-6c" d="M 603 4863 
L 1178 4863 
L 1178 0 
L 603 0 
L 603 4863 
z
" transform="scale(0.015625)"/>
       <path id="DejaVuSans-6e" d="M 3513 2113 
L 3513 0 
L 2938 0 
L 2938 2094 
Q 2938 2591 2744 2837 
Q 2550 3084 2163 3084 
Q 1697 3084 1428 2787 
Q 1159 2491 1159 1978 
L 1159 0 
L 581 0 
L 581 3500 
L 1159 3500 
L 1159 2956 
Q 1366 3272 1645 3428 
Q 1925 3584 2291 3584 
Q 2894 3584 3203 3211 
Q 3513 2838 3513 2113 
z
" transform="scale(0.015625)"/>
      </defs>
      <use xlink:href="#DejaVuSans-4d"/>
      <use xlink:href="#DejaVuSans-4d" x="86.279297"/>
      <use xlink:href="#DejaVuSans-2d" x="172.558594"/>
      <use xlink:href="#DejaVuSans-62" x="208.642578"/>
      <use xlink:href="#DejaVuSans-61" x="272.119141"/>
      <use xlink:href="#DejaVuSans-73" x="333.398438"/>
      <use xlink:href="#DejaVuSans-65" x="385.498047"/>
      <use xlink:href="#DejaVuSans-64" x="447.021484"/>
      <use xlink:href="#DejaVuSans-20" x="510.498047"/>
      <use xlink:href="#DejaVuSans-28" x="542.285156"/>
      <use xlink:href="#DejaVuSans-42" x="581.298828"/>
      <use xlink:href="#DejaVuSans-61" x="649.902344"/>
      <use xlink:href="#DejaVuSans-73" x="711.181641"/>
      <use xlink:href="#DejaVuSans-65" x="763.28125"/>
      <use xlink:href="#DejaVuSans-6c" x="824.804688"/>
      <use xlink:href="#DejaVuSans-69" x="852.587891"/>
      <use xlink:href="#DejaVuSans-6e" x="880.371094"/>
      <use xlink:href="#DejaVuSans-65" x="943.75"/>
      <use xlink:href="#DejaVuSans-29" x="1005.273438"/>
     </g>
    </g>
    <g id="line2d_41">
     <path d="M 74.046793 77.825625 
L 86.046793 77.825625 
L 98.046793 77.825625 
" style="fill: none; stroke: #0000ff; stroke-width: 1.5; stroke-linecap: square"/>
    </g>
    <g id="text_8">
     <!-- State-based (Baseline) -->
     <g transform="translate(107.646793 82.025625) scale(0.12 -0.12)">
      <defs>
       <path id="DejaVuSans-53" d="M 3425 4513 
L 3425 3897 
Q 3066 4069 2747 4153 
Q 2428 4238 2131 4238 
Q 1616 4238 1336 4038 
Q 1056 3838 1056 3469 
Q 1056 3159 1242 3001 
Q 1428 2844 1947 2747 
L 2328 2669 
Q 3034 2534 3370 2195 
Q 3706 1856 3706 1288 
Q 3706 609 3251 259 
Q 2797 -91 1919 -91 
Q 1588 -91 1214 -16 
Q 841 59 441 206 
L 441 856 
Q 825 641 1194 531 
Q 1563 422 1919 422 
Q 2459 422 2753 634 
Q 3047 847 3047 1241 
Q 3047 1584 2836 1778 
Q 2625 1972 2144 2069 
L 1759 2144 
Q 1053 2284 737 2584 
Q 422 2884 422 3419 
Q 422 4038 858 4394 
Q 1294 4750 2059 4750 
Q 2388 4750 2728 4690 
Q 3069 4631 3425 4513 
z
" transform="scale(0.015625)"/>
       <path id="DejaVuSans-74" d="M 1172 4494 
L 1172 3500 
L 2356 3500 
L 2356 3053 
L 1172 3053 
L 1172 1153 
Q 1172 725 1289 603 
Q 1406 481 1766 481 
L 2356 481 
L 2356 0 
L 1766 0 
Q 1100 0 847 248 
Q 594 497 594 1153 
L 594 3053 
L 172 3053 
L 172 3500 
L 594 3500 
L 594 4494 
L 1172 4494 
z
" transform="scale(0.015625)"/>
      </defs>
      <use xlink:href="#DejaVuSans-53"/>
      <use xlink:href="#DejaVuSans-74" x="63.476562"/>
      <use xlink:href="#DejaVuSans-61" x="102.685547"/>
      <use xlink:href="#DejaVuSans-74" x="163.964844"/>
      <use xlink:href="#DejaVuSans-65" x="203.173828"/>
      <use xlink:href="#DejaVuSans-2d" x="264.697266"/>
      <use xlink:href="#DejaVuSans-62" x="300.78125"/>
      <use xlink:href="#DejaVuSans-61" x="364.257812"/>
      <use xlink:href="#DejaVuSans-73" x="425.537109"/>
      <use xlink:href="#DejaVuSans-65" x="477.636719"/>
      <use xlink:href="#DejaVuSans-64" x="539.160156"/>
      <use xlink:href="#DejaVuSans-20" x="602.636719"/>
      <use xlink:href="#DejaVuSans-28" x="634.423828"/>
      <use xlink:href="#DejaVuSans-42" x="673.4375"/>
      <use xlink:href="#DejaVuSans-61" x="742.041016"/>
      <use xlink:href="#DejaVuSans-73" x="803.320312"/>
      <use xlink:href="#DejaVuSans-65" x="855.419922"/>
      <use xlink:href="#DejaVuSans-6c" x="916.943359"/>
      <use xlink:href="#DejaVuSans-69" x="944.726562"/>
      <use xlink:href="#DejaVuSans-6e" x="972.509766"/>
      <use xlink:href="#DejaVuSans-65" x="1035.888672"/>
      <use xlink:href="#DejaVuSans-29" x="1097.412109"/>
     </g>
    </g>
   </g>
  </g>
  <g id="axes_2">
   <g id="patch_8">
    <path d="M 389.99346 118.39 
L 670.453333 118.39 
L 670.453333 26.88 
L 389.99346 26.88 
z
" style="fill: #ffffff"/>
   </g>
   <g id="matplotlib.axis_3">
    <g id="xtick_7">
     <g id="line2d_42">
      <g>
       <use xlink:href="#mf64cd2a1f1" x="402.741636" y="118.39" style="stroke: #000000; stroke-width: 0.8"/>
      </g>
     </g>
    </g>
    <g id="xtick_8">
     <g id="line2d_43">
      <g>
       <use xlink:href="#mf64cd2a1f1" x="456.989193" y="118.39" style="stroke: #000000; stroke-width: 0.8"/>
      </g>
     </g>
    </g>
    <g id="xtick_9">
     <g id="line2d_44">
      <g>
       <use xlink:href="#mf64cd2a1f1" x="511.236751" y="118.39" style="stroke: #000000; stroke-width: 0.8"/>
      </g>
     </g>
    </g>
    <g id="xtick_10">
     <g id="line2d_45">
      <g>
       <use xlink:href="#mf64cd2a1f1" x="565.484309" y="118.39" style="stroke: #000000; stroke-width: 0.8"/>
      </g>
     </g>
    </g>
    <g id="xtick_11">
     <g id="line2d_46">
      <g>
       <use xlink:href="#mf64cd2a1f1" x="619.731867" y="118.39" style="stroke: #000000; stroke-width: 0.8"/>
      </g>
     </g>
    </g>
    <g id="xtick_12">
     <g id="line2d_47">
      <g>
       <use xlink:href="#mf64cd2a1f1" x="657.705157" y="118.39" style="stroke: #000000; stroke-width: 0.8"/>
      </g>
     </g>
    </g>
   </g>
   <g id="matplotlib.axis_4">
    <g id="ytick_30">
     <g id="line2d_48">
      <g>
       <use xlink:href="#mfdec5106ef" x="389.99346" y="100.223716" style="stroke: #000000; stroke-width: 0.8"/>
      </g>
     </g>
     <g id="text_9">
      <!-- $\mathdefault{10^{-3}}$ -->
      <g transform="translate(354.79346 104.782779) scale(0.12 -0.12)">
       <use xlink:href="#DejaVuSans-31" transform="translate(0 0.765625)"/>
       <use xlink:href="#DejaVuSans-30" transform="translate(63.623047 0.765625)"/>
       <use xlink:href="#DejaVuSans-2212" transform="translate(128.203125 39.046875) scale(0.7)"/>
       <use xlink:href="#DejaVuSans-33" transform="translate(186.855469 39.046875) scale(0.7)"/>
      </g>
     </g>
    </g>
    <g id="ytick_31">
     <g id="line2d_49">
      <g>
       <use xlink:href="#mfdec5106ef" x="389.99346" y="74.885888" style="stroke: #000000; stroke-width: 0.8"/>
      </g>
     </g>
     <g id="text_10">
      <!-- $\mathdefault{10^{-2}}$ -->
      <g transform="translate(354.79346 79.44495) scale(0.12 -0.12)">
       <use xlink:href="#DejaVuSans-31" transform="translate(0 0.765625)"/>
       <use xlink:href="#DejaVuSans-30" transform="translate(63.623047 0.765625)"/>
       <use xlink:href="#DejaVuSans-2212" transform="translate(128.203125 39.046875) scale(0.7)"/>
       <use xlink:href="#DejaVuSans-32" transform="translate(186.855469 39.046875) scale(0.7)"/>
      </g>
     </g>
    </g>
    <g id="ytick_32">
     <g id="line2d_50">
      <g>
       <use xlink:href="#mfdec5106ef" x="389.99346" y="49.54806" style="stroke: #000000; stroke-width: 0.8"/>
      </g>
     </g>
     <g id="text_11">
      <!-- $\mathdefault{10^{-1}}$ -->
      <g transform="translate(354.79346 54.107122) scale(0.12 -0.12)">
       <use xlink:href="#DejaVuSans-31" transform="translate(0 0.684375)"/>
       <use xlink:href="#DejaVuSans-30" transform="translate(63.623047 0.684375)"/>
       <use xlink:href="#DejaVuSans-2212" transform="translate(128.203125 38.965625) scale(0.7)"/>
       <use xlink:href="#DejaVuSans-31" transform="translate(186.855469 38.965625) scale(0.7)"/>
      </g>
     </g>
    </g>
    <g id="ytick_33">
     <g id="line2d_51">
      <g>
       <use xlink:href="#m0a614ba5b2" x="389.99346" y="117.934098" style="stroke: #000000; stroke-width: 0.6"/>
      </g>
     </g>
    </g>
    <g id="ytick_34">
     <g id="line2d_52">
      <g>
       <use xlink:href="#m0a614ba5b2" x="389.99346" y="113.472328" style="stroke: #000000; stroke-width: 0.6"/>
      </g>
     </g>
    </g>
    <g id="ytick_35">
     <g id="line2d_53">
      <g>
       <use xlink:href="#m0a614ba5b2" x="389.99346" y="110.306652" style="stroke: #000000; stroke-width: 0.6"/>
      </g>
     </g>
    </g>
    <g id="ytick_36">
     <g id="line2d_54">
      <g>
       <use xlink:href="#m0a614ba5b2" x="389.99346" y="107.851162" style="stroke: #000000; stroke-width: 0.6"/>
      </g>
     </g>
    </g>
    <g id="ytick_37">
     <g id="line2d_55">
      <g>
       <use xlink:href="#m0a614ba5b2" x="389.99346" y="105.844882" style="stroke: #000000; stroke-width: 0.6"/>
      </g>
     </g>
    </g>
    <g id="ytick_38">
     <g id="line2d_56">
      <g>
       <use xlink:href="#m0a614ba5b2" x="389.99346" y="104.148595" style="stroke: #000000; stroke-width: 0.6"/>
      </g>
     </g>
    </g>
    <g id="ytick_39">
     <g id="line2d_57">
      <g>
       <use xlink:href="#m0a614ba5b2" x="389.99346" y="102.679205" style="stroke: #000000; stroke-width: 0.6"/>
      </g>
     </g>
    </g>
    <g id="ytick_40">
     <g id="line2d_58">
      <g>
       <use xlink:href="#m0a614ba5b2" x="389.99346" y="101.383112" style="stroke: #000000; stroke-width: 0.6"/>
      </g>
     </g>
    </g>
    <g id="ytick_41">
     <g id="line2d_59">
      <g>
       <use xlink:href="#m0a614ba5b2" x="389.99346" y="92.59627" style="stroke: #000000; stroke-width: 0.6"/>
      </g>
     </g>
    </g>
    <g id="ytick_42">
     <g id="line2d_60">
      <g>
       <use xlink:href="#m0a614ba5b2" x="389.99346" y="88.1345" style="stroke: #000000; stroke-width: 0.6"/>
      </g>
     </g>
    </g>
    <g id="ytick_43">
     <g id="line2d_61">
      <g>
       <use xlink:href="#m0a614ba5b2" x="389.99346" y="84.968823" style="stroke: #000000; stroke-width: 0.6"/>
      </g>
     </g>
    </g>
    <g id="ytick_44">
     <g id="line2d_62">
      <g>
       <use xlink:href="#m0a614ba5b2" x="389.99346" y="82.513334" style="stroke: #000000; stroke-width: 0.6"/>
      </g>
     </g>
    </g>
    <g id="ytick_45">
     <g id="line2d_63">
      <g>
       <use xlink:href="#m0a614ba5b2" x="389.99346" y="80.507053" style="stroke: #000000; stroke-width: 0.6"/>
      </g>
     </g>
    </g>
    <g id="ytick_46">
     <g id="line2d_64">
      <g>
       <use xlink:href="#m0a614ba5b2" x="389.99346" y="78.810767" style="stroke: #000000; stroke-width: 0.6"/>
      </g>
     </g>
    </g>
    <g id="ytick_47">
     <g id="line2d_65">
      <g>
       <use xlink:href="#m0a614ba5b2" x="389.99346" y="77.341377" style="stroke: #000000; stroke-width: 0.6"/>
      </g>
     </g>
    </g>
    <g id="ytick_48">
     <g id="line2d_66">
      <g>
       <use xlink:href="#m0a614ba5b2" x="389.99346" y="76.045283" style="stroke: #000000; stroke-width: 0.6"/>
      </g>
     </g>
    </g>
    <g id="ytick_49">
     <g id="line2d_67">
      <g>
       <use xlink:href="#m0a614ba5b2" x="389.99346" y="67.258442" style="stroke: #000000; stroke-width: 0.6"/>
      </g>
     </g>
    </g>
    <g id="ytick_50">
     <g id="line2d_68">
      <g>
       <use xlink:href="#m0a614ba5b2" x="389.99346" y="62.796672" style="stroke: #000000; stroke-width: 0.6"/>
      </g>
     </g>
    </g>
    <g id="ytick_51">
     <g id="line2d_69">
      <g>
       <use xlink:href="#m0a614ba5b2" x="389.99346" y="59.630995" style="stroke: #000000; stroke-width: 0.6"/>
      </g>
     </g>
    </g>
    <g id="ytick_52">
     <g id="line2d_70">
      <g>
       <use xlink:href="#m0a614ba5b2" x="389.99346" y="57.175506" style="stroke: #000000; stroke-width: 0.6"/>
      </g>
     </g>
    </g>
    <g id="ytick_53">
     <g id="line2d_71">
      <g>
       <use xlink:href="#m0a614ba5b2" x="389.99346" y="55.169225" style="stroke: #000000; stroke-width: 0.6"/>
      </g>
     </g>
    </g>
    <g id="ytick_54">
     <g id="line2d_72">
      <g>
       <use xlink:href="#m0a614ba5b2" x="389.99346" y="53.472939" style="stroke: #000000; stroke-width: 0.6"/>
      </g>
     </g>
    </g>
    <g id="ytick_55">
     <g id="line2d_73">
      <g>
       <use xlink:href="#m0a614ba5b2" x="389.99346" y="52.003549" style="stroke: #000000; stroke-width: 0.6"/>
      </g>
     </g>
    </g>
    <g id="ytick_56">
     <g id="line2d_74">
      <g>
       <use xlink:href="#m0a614ba5b2" x="389.99346" y="50.707455" style="stroke: #000000; stroke-width: 0.6"/>
      </g>
     </g>
    </g>
    <g id="ytick_57">
     <g id="line2d_75">
      <g>
       <use xlink:href="#m0a614ba5b2" x="389.99346" y="41.920613" style="stroke: #000000; stroke-width: 0.6"/>
      </g>
     </g>
    </g>
    <g id="ytick_58">
     <g id="line2d_76">
      <g>
       <use xlink:href="#m0a614ba5b2" x="389.99346" y="37.458843" style="stroke: #000000; stroke-width: 0.6"/>
      </g>
     </g>
    </g>
    <g id="ytick_59">
     <g id="line2d_77">
      <g>
       <use xlink:href="#m0a614ba5b2" x="389.99346" y="34.293167" style="stroke: #000000; stroke-width: 0.6"/>
      </g>
     </g>
    </g>
    <g id="ytick_60">
     <g id="line2d_78">
      <g>
       <use xlink:href="#m0a614ba5b2" x="389.99346" y="31.837678" style="stroke: #000000; stroke-width: 0.6"/>
      </g>
     </g>
    </g>
    <g id="ytick_61">
     <g id="line2d_79">
      <g>
       <use xlink:href="#m0a614ba5b2" x="389.99346" y="29.831397" style="stroke: #000000; stroke-width: 0.6"/>
      </g>
     </g>
    </g>
    <g id="ytick_62">
     <g id="line2d_80">
      <g>
       <use xlink:href="#m0a614ba5b2" x="389.99346" y="28.135111" style="stroke: #000000; stroke-width: 0.6"/>
      </g>
     </g>
    </g>
   </g>
   <g id="line2d_81">
    <path d="M 402.741636 114.230455 
L 408.166391 107.649495 
L 413.591147 107.630038 
L 419.015903 108.73783 
L 424.440659 103.250723 
L 429.865415 103.377393 
L 435.29017 100.897694 
L 440.714926 101.058296 
L 446.139682 100.496737 
L 451.564438 99.644976 
L 456.989193 98.182172 
L 462.413949 96.815453 
L 467.838705 96.751965 
L 473.263461 97.09096 
L 478.688217 95.595712 
L 484.112972 93.92781 
L 489.537728 95.068179 
L 494.962484 94.241521 
L 500.38724 94.125206 
L 505.811995 93.193005 
L 511.236751 92.867677 
L 516.661507 92.214456 
L 522.086263 91.815459 
L 527.511019 90.814625 
L 532.935774 91.004994 
L 538.36053 90.47737 
L 543.785286 90.508078 
L 549.210042 89.025036 
L 554.634797 89.747433 
L 560.059553 89.30887 
L 565.484309 88.940211 
L 570.909065 88.981597 
L 576.333821 88.056066 
L 581.758576 88.308883 
L 587.183332 87.442457 
L 592.608088 87.416832 
L 598.032844 87.443968 
L 603.457599 86.588102 
L 608.882355 86.989339 
L 614.307111 86.44252 
L 619.731867 85.135187 
L 625.156623 86.065979 
L 630.581378 85.551498 
L 636.006134 84.653095 
L 641.43089 85.368682 
L 646.855646 84.859023 
L 652.280401 84.084575 
L 657.705157 84.369666 
" clip-path="url(#pb357696ac3)" style="fill: none; stroke: #ff0000; stroke-width: 1.5; stroke-linecap: square"/>
   </g>
   <g id="line2d_82">
    <path d="M 402.741636 112.067612 
L 408.166391 108.063782 
L 413.591147 104.465133 
L 419.015903 100.730993 
L 424.440659 99.843651 
L 429.865415 98.167841 
L 435.29017 96.5575 
L 440.714926 93.929705 
L 446.139682 92.863268 
L 451.564438 91.536371 
L 456.989193 90.656027 
L 462.413949 88.968854 
L 467.838705 87.517972 
L 473.263461 86.420675 
L 478.688217 85.464334 
L 484.112972 85.182032 
L 489.537728 83.421909 
L 494.962484 82.841315 
L 500.38724 82.037035 
L 505.811995 81.451467 
L 511.236751 80.607179 
L 516.661507 79.5764 
L 522.086263 79.05363 
L 527.511019 78.199432 
L 532.935774 77.010986 
L 538.36053 76.962744 
L 543.785286 75.942598 
L 549.210042 75.283668 
L 554.634797 74.444905 
L 560.059553 73.711343 
L 565.484309 73.457506 
L 570.909065 72.49344 
L 576.333821 72.004292 
L 581.758576 71.867888 
L 587.183332 71.373724 
L 592.608088 70.710792 
L 598.032844 70.010907 
L 603.457599 68.945753 
L 608.882355 68.818488 
L 614.307111 68.463575 
L 619.731867 68.069739 
L 625.156623 67.482063 
L 630.581378 67.257723 
L 636.006134 66.807044 
L 641.43089 66.146246 
L 646.855646 65.553819 
L 652.280401 65.232617 
L 657.705157 64.880636 
" clip-path="url(#pb357696ac3)" style="fill: none; stroke: #008000; stroke-width: 1.5; stroke-linecap: square"/>
   </g>
   <g id="line2d_83">
    <path d="M 402.741636 93.967352 
L 408.166391 86.316854 
L 413.591147 81.438154 
L 419.015903 77.447576 
L 424.440659 74.047436 
L 429.865415 70.855274 
L 435.29017 68.526983 
L 440.714926 65.74316 
L 446.139682 63.717395 
L 451.564438 62.47516 
L 456.989193 60.541156 
L 462.413949 58.568558 
L 467.838705 56.608375 
L 473.263461 55.69159 
L 478.688217 54.358739 
L 484.112972 53.293623 
L 489.537728 52.046996 
L 494.962484 51.125348 
L 500.38724 50.096675 
L 505.811995 49.13964 
L 511.236751 48.107673 
L 516.661507 47.174703 
L 522.086263 46.367605 
L 527.511019 45.114906 
L 532.935774 44.233561 
L 538.36053 43.895343 
L 543.785286 43.035813 
L 549.210042 42.32146 
L 554.634797 41.417345 
L 560.059553 40.806583 
L 565.484309 40.237453 
L 570.909065 39.346505 
L 576.333821 38.79114 
L 581.758576 38.502111 
L 587.183332 37.777736 
L 592.608088 37.09054 
L 598.032844 36.571153 
L 603.457599 35.333377 
L 608.882355 35.225077 
L 614.307111 34.794436 
L 619.731867 34.368783 
L 625.156623 33.822698 
L 630.581378 33.36077 
L 636.006134 32.896242 
L 641.43089 32.338124 
L 646.855646 31.773651 
L 652.280401 31.485322 
L 657.705157 31.039545 
" clip-path="url(#pb357696ac3)" style="fill: none; stroke: #0000ff; stroke-width: 1.5; stroke-linecap: square"/>
   </g>
   <g id="patch_9">
    <path d="M 389.99346 118.39 
L 389.99346 26.88 
" style="fill: none; stroke: #000000; stroke-width: 0.8; stroke-linejoin: miter; stroke-linecap: square"/>
   </g>
   <g id="patch_10">
    <path d="M 670.453333 118.39 
L 670.453333 26.88 
" style="fill: none; stroke: #000000; stroke-width: 0.8; stroke-linejoin: miter; stroke-linecap: square"/>
   </g>
   <g id="patch_11">
    <path d="M 389.99346 118.39 
L 670.453333 118.39 
" style="fill: none; stroke: #000000; stroke-width: 0.8; stroke-linejoin: miter; stroke-linecap: square"/>
   </g>
   <g id="patch_12">
    <path d="M 389.99346 26.88 
L 670.453333 26.88 
" style="fill: none; stroke: #000000; stroke-width: 0.8; stroke-linejoin: miter; stroke-linecap: square"/>
   </g>
   <g id="text_12">
    <!-- $n = 3$ -->
    <g transform="translate(515.223396 20.88) scale(0.12 -0.12)">
     <use xlink:href="#DejaVuSans-Oblique-6e" transform="translate(0 0.78125)"/>
     <use xlink:href="#DejaVuSans-3d" transform="translate(82.861328 0.78125)"/>
     <use xlink:href="#DejaVuSans-33" transform="translate(186.132812 0.78125)"/>
    </g>
   </g>
  </g>
  <g id="axes_3">
   <g id="patch_13">
    <path d="M 716.740126 118.39 
L 997.2 118.39 
L 997.2 26.88 
L 716.740126 26.88 
z
" style="fill: #ffffff"/>
   </g>
   <g id="matplotlib.axis_5">
    <g id="xtick_13">
     <g id="line2d_84">
      <g>
       <use xlink:href="#mf64cd2a1f1" x="729.488302" y="118.39" style="stroke: #000000; stroke-width: 0.8"/>
      </g>
     </g>
    </g>
    <g id="xtick_14">
     <g id="line2d_85">
      <g>
       <use xlink:href="#mf64cd2a1f1" x="783.73586" y="118.39" style="stroke: #000000; stroke-width: 0.8"/>
      </g>
     </g>
    </g>
    <g id="xtick_15">
     <g id="line2d_86">
      <g>
       <use xlink:href="#mf64cd2a1f1" x="837.983418" y="118.39" style="stroke: #000000; stroke-width: 0.8"/>
      </g>
     </g>
    </g>
    <g id="xtick_16">
     <g id="line2d_87">
      <g>
       <use xlink:href="#mf64cd2a1f1" x="892.230976" y="118.39" style="stroke: #000000; stroke-width: 0.8"/>
      </g>
     </g>
    </g>
    <g id="xtick_17">
     <g id="line2d_88">
      <g>
       <use xlink:href="#mf64cd2a1f1" x="946.478533" y="118.39" style="stroke: #000000; stroke-width: 0.8"/>
      </g>
     </g>
    </g>
    <g id="xtick_18">
     <g id="line2d_89">
      <g>
       <use xlink:href="#mf64cd2a1f1" x="984.451824" y="118.39" style="stroke: #000000; stroke-width: 0.8"/>
      </g>
     </g>
    </g>
   </g>
   <g id="matplotlib.axis_6">
    <g id="ytick_63">
     <g id="line2d_90">
      <g>
       <use xlink:href="#mfdec5106ef" x="716.740126" y="79.065535" style="stroke: #000000; stroke-width: 0.8"/>
      </g>
     </g>
     <g id="text_13">
      <!-- $\mathdefault{10^{-2}}$ -->
      <g transform="translate(681.540126 83.624598) scale(0.12 -0.12)">
       <use xlink:href="#DejaVuSans-31" transform="translate(0 0.765625)"/>
       <use xlink:href="#DejaVuSans-30" transform="translate(63.623047 0.765625)"/>
       <use xlink:href="#DejaVuSans-2212" transform="translate(128.203125 39.046875) scale(0.7)"/>
       <use xlink:href="#DejaVuSans-32" transform="translate(186.855469 39.046875) scale(0.7)"/>
      </g>
     </g>
    </g>
    <g id="ytick_64">
     <g id="line2d_91">
      <g>
       <use xlink:href="#mfdec5106ef" x="716.740126" y="29.93804" style="stroke: #000000; stroke-width: 0.8"/>
      </g>
     </g>
     <g id="text_14">
      <!-- $\mathdefault{10^{0}}$ -->
      <g transform="translate(688.620126 34.497103) scale(0.12 -0.12)">
       <use xlink:href="#DejaVuSans-31" transform="translate(0 0.765625)"/>
       <use xlink:href="#DejaVuSans-30" transform="translate(63.623047 0.765625)"/>
       <use xlink:href="#DejaVuSans-30" transform="translate(128.203125 39.046875) scale(0.7)"/>
      </g>
     </g>
    </g>
   </g>
   <g id="line2d_92">
    <path d="M 729.488302 110.599623 
L 734.913058 109.621242 
L 740.337814 109.592201 
L 745.76257 104.98308 
L 751.187325 102.700551 
L 756.612081 100.561856 
L 762.036837 100.889254 
L 767.461593 99.729487 
L 772.886349 98.043026 
L 778.311104 96.778781 
L 783.73586 96.543196 
L 789.160616 96.254292 
L 794.585372 95.347027 
L 800.010127 94.339976 
L 805.434883 93.269607 
L 810.859639 93.607937 
L 816.284395 92.651595 
L 821.709151 92.093106 
L 827.133906 91.340313 
L 832.558662 90.930891 
L 837.983418 90.567374 
L 843.408174 90.362657 
L 848.832929 89.834272 
L 854.257685 89.717492 
L 859.682441 88.827581 
L 865.107197 88.848624 
L 870.531953 88.552197 
L 875.956708 88.446407 
L 881.381464 88.003003 
L 886.80622 86.928072 
L 892.230976 86.779587 
L 897.655731 86.752617 
L 903.080487 86.176129 
L 908.505243 85.961186 
L 913.929999 85.326974 
L 919.354755 85.430238 
L 924.77951 84.218351 
L 930.204266 84.408614 
L 935.629022 84.340346 
L 941.053778 84.24462 
L 946.478533 84.205042 
L 951.903289 83.944747 
L 957.328045 83.587943 
L 962.752801 83.054888 
L 968.177557 83.137565 
L 973.602312 83.36336 
L 979.027068 82.917617 
L 984.451824 82.240203 
" clip-path="url(#p2dcff9eedc)" style="fill: none; stroke: #ff0000; stroke-width: 1.5; stroke-linecap: square"/>
   </g>
   <g id="line2d_93">
    <path d="M 729.488302 114.230455 
L 734.913058 105.766423 
L 740.337814 102.1325 
L 745.76257 98.997878 
L 751.187325 95.859797 
L 756.612081 94.239533 
L 762.036837 91.706951 
L 767.461593 89.016029 
L 772.886349 88.076466 
L 778.311104 86.014095 
L 783.73586 84.652266 
L 789.160616 83.118373 
L 794.585372 81.486906 
L 800.010127 80.494518 
L 805.434883 79.495246 
L 810.859639 78.21282 
L 816.284395 77.122686 
L 821.709151 75.629687 
L 827.133906 75.067084 
L 832.558662 74.243436 
L 837.983418 73.47332 
L 843.408174 72.113059 
L 848.832929 71.957688 
L 854.257685 71.125567 
L 859.682441 70.022441 
L 865.107197 69.027729 
L 870.531953 68.301907 
L 875.956708 68.058385 
L 881.381464 67.377131 
L 886.80622 66.478927 
L 892.230976 65.742276 
L 897.655731 65.40513 
L 903.080487 64.697979 
L 908.505243 63.86563 
L 913.929999 63.239393 
L 919.354755 62.747387 
L 924.77951 62.312085 
L 930.204266 61.858814 
L 935.629022 61.12051 
L 941.053778 60.816794 
L 946.478533 60.542665 
L 951.903289 59.934734 
L 957.328045 59.377318 
L 962.752801 58.922248 
L 968.177557 58.545242 
L 973.602312 58.354245 
L 979.027068 57.332065 
L 984.451824 57.302769 
" clip-path="url(#p2dcff9eedc)" style="fill: none; stroke: #008000; stroke-width: 1.5; stroke-linecap: square"/>
   </g>
   <g id="line2d_94">
    <path d="M 729.488302 92.712208 
L 734.913058 86.053098 
L 740.337814 80.794354 
L 745.76257 76.903474 
L 751.187325 72.65291 
L 756.612081 71.04274 
L 762.036837 68.000254 
L 767.461593 65.151377 
L 772.886349 63.488585 
L 778.311104 61.492373 
L 783.73586 59.898874 
L 789.160616 58.046929 
L 794.585372 56.505483 
L 800.010127 55.226416 
L 805.434883 54.30576 
L 810.859639 52.765632 
L 816.284395 51.603269 
L 821.709151 50.183073 
L 827.133906 49.444263 
L 832.558662 48.555727 
L 837.983418 47.593563 
L 843.408174 46.414535 
L 848.832929 46.038394 
L 854.257685 45.1452 
L 859.682441 44.12848 
L 865.107197 43.154332 
L 870.531953 42.491061 
L 875.956708 42.070809 
L 881.381464 41.230236 
L 886.80622 40.500176 
L 892.230976 39.756899 
L 897.655731 39.365572 
L 903.080487 38.571183 
L 908.505243 37.780561 
L 913.929999 37.13093 
L 919.354755 36.685179 
L 924.77951 36.249377 
L 930.204266 35.583356 
L 935.629022 34.935352 
L 941.053778 34.622002 
L 946.478533 34.362519 
L 951.903289 33.826885 
L 957.328045 33.319267 
L 962.752801 32.769104 
L 968.177557 32.331244 
L 973.602312 32.067236 
L 979.027068 31.240997 
L 984.451824 31.039545 
" clip-path="url(#p2dcff9eedc)" style="fill: none; stroke: #0000ff; stroke-width: 1.5; stroke-linecap: square"/>
   </g>
   <g id="patch_14">
    <path d="M 716.740126 118.39 
L 716.740126 26.88 
" style="fill: none; stroke: #000000; stroke-width: 0.8; stroke-linejoin: miter; stroke-linecap: square"/>
   </g>
   <g id="patch_15">
    <path d="M 997.2 118.39 
L 997.2 26.88 
" style="fill: none; stroke: #000000; stroke-width: 0.8; stroke-linejoin: miter; stroke-linecap: square"/>
   </g>
   <g id="patch_16">
    <path d="M 716.740126 118.39 
L 997.2 118.39 
" style="fill: none; stroke: #000000; stroke-width: 0.8; stroke-linejoin: miter; stroke-linecap: square"/>
   </g>
   <g id="patch_17">
    <path d="M 716.740126 26.88 
L 997.2 26.88 
" style="fill: none; stroke: #000000; stroke-width: 0.8; stroke-linejoin: miter; stroke-linecap: square"/>
   </g>
   <g id="text_15">
    <!-- $n = 4$ -->
    <g transform="translate(841.970063 20.88) scale(0.12 -0.12)">
     <defs>
      <path id="DejaVuSans-34" d="M 2419 4116 
L 825 1625 
L 2419 1625 
L 2419 4116 
z
M 2253 4666 
L 3047 4666 
L 3047 1625 
L 3713 1625 
L 3713 1100 
L 3047 1100 
L 3047 0 
L 2419 0 
L 2419 1100 
L 313 1100 
L 313 1709 
L 2253 4666 
z
" transform="scale(0.015625)"/>
     </defs>
     <use xlink:href="#DejaVuSans-Oblique-6e" transform="translate(0 0.09375)"/>
     <use xlink:href="#DejaVuSans-3d" transform="translate(82.861328 0.09375)"/>
     <use xlink:href="#DejaVuSans-34" transform="translate(186.132812 0.09375)"/>
    </g>
   </g>
  </g>
  <g id="axes_4">
   <g id="patch_18">
    <path d="M 63.246793 240.28 
L 343.706667 240.28 
L 343.706667 148.77 
L 63.246793 148.77 
z
" style="fill: #ffffff"/>
   </g>
   <g id="matplotlib.axis_7">
    <g id="xtick_19">
     <g id="line2d_95">
      <g>
       <use xlink:href="#mf64cd2a1f1" x="75.994969" y="240.28" style="stroke: #000000; stroke-width: 0.8"/>
      </g>
     </g>
     <g id="text_16">
      <!-- 2 -->
      <g transform="translate(72.177469 256.398125) scale(0.12 -0.12)">
       <use xlink:href="#DejaVuSans-32"/>
      </g>
     </g>
    </g>
    <g id="xtick_20">
     <g id="line2d_96">
      <g>
       <use xlink:href="#mf64cd2a1f1" x="130.242527" y="240.28" style="stroke: #000000; stroke-width: 0.8"/>
      </g>
     </g>
     <g id="text_17">
      <!-- 12 -->
      <g transform="translate(122.607527 256.398125) scale(0.12 -0.12)">
       <use xlink:href="#DejaVuSans-31"/>
       <use xlink:href="#DejaVuSans-32" x="63.623047"/>
      </g>
     </g>
    </g>
    <g id="xtick_21">
     <g id="line2d_97">
      <g>
       <use xlink:href="#mf64cd2a1f1" x="184.490085" y="240.28" style="stroke: #000000; stroke-width: 0.8"/>
      </g>
     </g>
     <g id="text_18">
      <!-- 22 -->
      <g transform="translate(176.855085 256.398125) scale(0.12 -0.12)">
       <use xlink:href="#DejaVuSans-32"/>
       <use xlink:href="#DejaVuSans-32" x="63.623047"/>
      </g>
     </g>
    </g>
    <g id="xtick_22">
     <g id="line2d_98">
      <g>
       <use xlink:href="#mf64cd2a1f1" x="238.737642" y="240.28" style="stroke: #000000; stroke-width: 0.8"/>
      </g>
     </g>
     <g id="text_19">
      <!-- 32 -->
      <g transform="translate(231.102642 256.398125) scale(0.12 -0.12)">
       <use xlink:href="#DejaVuSans-33"/>
       <use xlink:href="#DejaVuSans-32" x="63.623047"/>
      </g>
     </g>
    </g>
    <g id="xtick_23">
     <g id="line2d_99">
      <g>
       <use xlink:href="#mf64cd2a1f1" x="292.9852" y="240.28" style="stroke: #000000; stroke-width: 0.8"/>
      </g>
     </g>
     <g id="text_20">
      <!-- 42 -->
      <g transform="translate(285.3502 256.398125) scale(0.12 -0.12)">
       <use xlink:href="#DejaVuSans-34"/>
       <use xlink:href="#DejaVuSans-32" x="63.623047"/>
      </g>
     </g>
    </g>
    <g id="xtick_24">
     <g id="line2d_100">
      <g>
       <use xlink:href="#mf64cd2a1f1" x="330.958491" y="240.28" style="stroke: #000000; stroke-width: 0.8"/>
      </g>
     </g>
     <g id="text_21">
      <!-- 49 -->
      <g transform="translate(323.323491 256.398125) scale(0.12 -0.12)">
       <defs>
        <path id="DejaVuSans-39" d="M 703 97 
L 703 672 
Q 941 559 1184 500 
Q 1428 441 1663 441 
Q 2288 441 2617 861 
Q 2947 1281 2994 2138 
Q 2813 1869 2534 1725 
Q 2256 1581 1919 1581 
Q 1219 1581 811 2004 
Q 403 2428 403 3163 
Q 403 3881 828 4315 
Q 1253 4750 1959 4750 
Q 2769 4750 3195 4129 
Q 3622 3509 3622 2328 
Q 3622 1225 3098 567 
Q 2575 -91 1691 -91 
Q 1453 -91 1209 -44 
Q 966 3 703 97 
z
M 1959 2075 
Q 2384 2075 2632 2365 
Q 2881 2656 2881 3163 
Q 2881 3666 2632 3958 
Q 2384 4250 1959 4250 
Q 1534 4250 1286 3958 
Q 1038 3666 1038 3163 
Q 1038 2656 1286 2365 
Q 1534 2075 1959 2075 
z
" transform="scale(0.015625)"/>
       </defs>
       <use xlink:href="#DejaVuSans-34"/>
       <use xlink:href="#DejaVuSans-39" x="63.623047"/>
      </g>
     </g>
    </g>
    <g id="text_22">
     <!-- $d$ -->
     <g transform="translate(199.63673 272.011875) scale(0.12 -0.12)">
      <defs>
       <path id="DejaVuSans-Oblique-64" d="M 2675 525 
Q 2444 222 2128 65 
Q 1813 -91 1428 -91 
Q 903 -91 598 267 
Q 294 625 294 1247 
Q 294 1766 478 2236 
Q 663 2706 1013 3078 
Q 1244 3325 1534 3454 
Q 1825 3584 2144 3584 
Q 2481 3584 2739 3421 
Q 2997 3259 3138 2956 
L 3513 4863 
L 4091 4863 
L 3144 0 
L 2566 0 
L 2675 525 
z
M 891 1350 
Q 891 897 1095 644 
Q 1300 391 1663 391 
Q 1931 391 2161 520 
Q 2391 650 2566 903 
Q 2750 1166 2856 1509 
Q 2963 1853 2963 2188 
Q 2963 2622 2758 2865 
Q 2553 3109 2194 3109 
Q 1922 3109 1687 2981 
Q 1453 2853 1288 2613 
Q 1106 2353 998 2009 
Q 891 1666 891 1350 
z
" transform="scale(0.015625)"/>
      </defs>
      <use xlink:href="#DejaVuSans-Oblique-64" transform="translate(0 0.015625)"/>
     </g>
    </g>
   </g>
   <g id="matplotlib.axis_8">
    <g id="ytick_65">
     <g id="line2d_101">
      <g>
       <use xlink:href="#mfdec5106ef" x="63.246793" y="208.979574" style="stroke: #000000; stroke-width: 0.8"/>
      </g>
     </g>
     <g id="text_23">
      <!-- $\mathdefault{10^{-2}}$ -->
      <g transform="translate(28.046793 213.538637) scale(0.12 -0.12)">
       <use xlink:href="#DejaVuSans-31" transform="translate(0 0.765625)"/>
       <use xlink:href="#DejaVuSans-30" transform="translate(63.623047 0.765625)"/>
       <use xlink:href="#DejaVuSans-2212" transform="translate(128.203125 39.046875) scale(0.7)"/>
       <use xlink:href="#DejaVuSans-32" transform="translate(186.855469 39.046875) scale(0.7)"/>
      </g>
     </g>
    </g>
    <g id="ytick_66">
     <g id="line2d_102">
      <g>
       <use xlink:href="#mfdec5106ef" x="63.246793" y="156.792814" style="stroke: #000000; stroke-width: 0.8"/>
      </g>
     </g>
     <g id="text_24">
      <!-- $\mathdefault{10^{0}}$ -->
      <g transform="translate(35.126793 161.351877) scale(0.12 -0.12)">
       <use xlink:href="#DejaVuSans-31" transform="translate(0 0.765625)"/>
       <use xlink:href="#DejaVuSans-30" transform="translate(63.623047 0.765625)"/>
       <use xlink:href="#DejaVuSans-30" transform="translate(128.203125 39.046875) scale(0.7)"/>
      </g>
     </g>
    </g>
    <g id="text_25">
     <!-- Time (s) -->
     <g transform="translate(21.551168 218.919687) rotate(-90) scale(0.12 -0.12)">
      <use xlink:href="#DejaVuSans-54"/>
      <use xlink:href="#DejaVuSans-69" x="57.958984"/>
      <use xlink:href="#DejaVuSans-6d" x="85.742188"/>
      <use xlink:href="#DejaVuSans-65" x="183.154297"/>
      <use xlink:href="#DejaVuSans-20" x="244.677734"/>
      <use xlink:href="#DejaVuSans-28" x="276.464844"/>
      <use xlink:href="#DejaVuSans-73" x="315.478516"/>
      <use xlink:href="#DejaVuSans-29" x="367.578125"/>
     </g>
    </g>
   </g>
   <g id="line2d_103">
    <path d="M 75.994969 236.120455 
L 81.419725 232.57784 
L 86.844481 229.26931 
L 92.269236 227.638311 
L 97.693992 224.203728 
L 103.118748 223.943461 
L 108.543504 221.816378 
L 113.968259 220.46782 
L 119.393015 219.081538 
L 124.817771 218.176413 
L 130.242527 217.394321 
L 135.667283 216.434185 
L 141.092038 215.374742 
L 146.516794 215.149018 
L 151.94155 214.081283 
L 157.366306 213.338445 
L 162.791061 212.545646 
L 168.215817 212.309048 
L 173.640573 211.49474 
L 179.065329 211.139937 
L 184.490085 210.90285 
L 189.91484 210.307863 
L 195.339596 209.966097 
L 200.764352 209.631509 
L 206.189108 208.819275 
L 211.613863 208.227945 
L 217.038619 207.62098 
L 222.463375 207.611441 
L 227.888131 207.277548 
L 233.312887 206.758051 
L 238.737642 206.385234 
L 244.162398 206.146957 
L 249.587154 205.368876 
L 255.01191 205.364264 
L 260.436665 205.416851 
L 265.861421 204.401172 
L 271.286177 204.393962 
L 276.710933 204.289376 
L 282.135689 203.927399 
L 287.560444 203.768104 
L 292.9852 203.119826 
L 298.409956 203.180208 
L 303.834712 202.512277 
L 309.259467 202.736771 
L 314.684223 202.440613 
L 320.108979 201.933876 
L 325.533735 201.854164 
L 330.958491 201.457897 
" clip-path="url(#paa195752c3)" style="fill: none; stroke: #ff0000; stroke-width: 1.5; stroke-linecap: square"/>
   </g>
   <g id="line2d_104">
    <path d="M 75.994969 232.674417 
L 81.419725 224.125352 
L 86.844481 219.197884 
L 92.269236 214.554843 
L 97.693992 209.311735 
L 103.118748 207.345366 
L 108.543504 204.693262 
L 113.968259 201.602543 
L 119.393015 199.863794 
L 124.817771 197.328333 
L 130.242527 195.899257 
L 135.667283 194.482045 
L 141.092038 192.36124 
L 146.516794 191.387117 
L 151.94155 189.764025 
L 157.366306 188.481649 
L 162.791061 186.755325 
L 168.215817 185.924405 
L 173.640573 184.289432 
L 179.065329 183.527041 
L 184.490085 182.494982 
L 189.91484 181.693678 
L 195.339596 180.733491 
L 200.764352 179.728122 
L 206.189108 178.75329 
L 211.613863 177.937015 
L 217.038619 176.529917 
L 222.463375 176.083309 
L 227.888131 175.607085 
L 233.312887 174.886801 
L 238.737642 174.097225 
L 244.162398 173.182266 
L 249.587154 172.584761 
L 255.01191 171.820227 
L 260.436665 171.546782 
L 265.861421 170.779867 
L 271.286177 170.293515 
L 276.710933 169.377956 
L 282.135689 169.037312 
L 287.560444 168.50103 
L 292.9852 167.774723 
L 298.409956 167.345283 
L 303.834712 166.618855 
L 309.259467 166.558953 
L 314.684223 165.849694 
L 320.108979 165.151769 
L 325.533735 165.036028 
L 330.958491 164.25134 
" clip-path="url(#paa195752c3)" style="fill: none; stroke: #008000; stroke-width: 1.5; stroke-linecap: square"/>
   </g>
   <g id="line2d_105">
    <path d="M 75.994969 219.777212 
L 81.419725 211.446531 
L 86.844481 206.517498 
L 92.269236 202.093617 
L 97.693992 197.238653 
L 103.118748 194.927144 
L 108.543504 192.483965 
L 113.968259 189.506882 
L 119.393015 187.668924 
L 124.817771 185.456585 
L 130.242527 183.964126 
L 135.667283 182.25468 
L 141.092038 180.397088 
L 146.516794 179.280984 
L 151.94155 177.82845 
L 157.366306 176.543767 
L 162.791061 174.961906 
L 168.215817 174.182993 
L 173.640573 172.658165 
L 179.065329 171.762999 
L 184.490085 170.647436 
L 189.91484 170.008999 
L 195.339596 169.079604 
L 200.764352 168.037362 
L 206.189108 167.019629 
L 211.613863 166.245588 
L 217.038619 165.092981 
L 222.463375 164.430125 
L 227.888131 163.947307 
L 233.312887 163.312447 
L 238.737642 162.495229 
L 244.162398 161.621971 
L 249.587154 161.107896 
L 255.01191 160.444833 
L 260.436665 159.973915 
L 265.861421 159.169755 
L 271.286177 158.708757 
L 276.710933 157.942864 
L 282.135689 157.595721 
L 287.560444 157.123413 
L 292.9852 156.455457 
L 298.409956 156.156603 
L 303.834712 155.46415 
L 309.259467 155.277673 
L 314.684223 154.421112 
L 320.108979 153.790531 
L 325.533735 153.566952 
L 330.958491 152.929545 
" clip-path="url(#paa195752c3)" style="fill: none; stroke: #0000ff; stroke-width: 1.5; stroke-linecap: square"/>
   </g>
   <g id="patch_19">
    <path d="M 63.246793 240.28 
L 63.246793 148.77 
" style="fill: none; stroke: #000000; stroke-width: 0.8; stroke-linejoin: miter; stroke-linecap: square"/>
   </g>
   <g id="patch_20">
    <path d="M 343.706667 240.28 
L 343.706667 148.77 
" style="fill: none; stroke: #000000; stroke-width: 0.8; stroke-linejoin: miter; stroke-linecap: square"/>
   </g>
   <g id="patch_21">
    <path d="M 63.246793 240.28 
L 343.706667 240.28 
" style="fill: none; stroke: #000000; stroke-width: 0.8; stroke-linejoin: miter; stroke-linecap: square"/>
   </g>
   <g id="patch_22">
    <path d="M 63.246793 148.77 
L 343.706667 148.77 
" style="fill: none; stroke: #000000; stroke-width: 0.8; stroke-linejoin: miter; stroke-linecap: square"/>
   </g>
   <g id="text_26">
    <!-- $n = 5$ -->
    <g transform="translate(188.47673 142.77) scale(0.12 -0.12)">
     <defs>
      <path id="DejaVuSans-35" d="M 691 4666 
L 3169 4666 
L 3169 4134 
L 1269 4134 
L 1269 2991 
Q 1406 3038 1543 3061 
Q 1681 3084 1819 3084 
Q 2600 3084 3056 2656 
Q 3513 2228 3513 1497 
Q 3513 744 3044 326 
Q 2575 -91 1722 -91 
Q 1428 -91 1123 -41 
Q 819 9 494 109 
L 494 744 
Q 775 591 1075 516 
Q 1375 441 1709 441 
Q 2250 441 2565 725 
Q 2881 1009 2881 1497 
Q 2881 1984 2565 2268 
Q 2250 2553 1709 2553 
Q 1456 2553 1204 2497 
Q 953 2441 691 2322 
L 691 4666 
z
" transform="scale(0.015625)"/>
     </defs>
     <use xlink:href="#DejaVuSans-Oblique-6e" transform="translate(0 0.09375)"/>
     <use xlink:href="#DejaVuSans-3d" transform="translate(82.861328 0.09375)"/>
     <use xlink:href="#DejaVuSans-35" transform="translate(186.132812 0.09375)"/>
    </g>
   </g>
  </g>
  <g id="axes_5">
   <g id="patch_23">
    <path d="M 389.99346 240.28 
L 670.453333 240.28 
L 670.453333 148.77 
L 389.99346 148.77 
z
" style="fill: #ffffff"/>
   </g>
   <g id="matplotlib.axis_9">
    <g id="xtick_25">
     <g id="line2d_106">
      <g>
       <use xlink:href="#mf64cd2a1f1" x="402.741636" y="240.28" style="stroke: #000000; stroke-width: 0.8"/>
      </g>
     </g>
     <g id="text_27">
      <!-- 2 -->
      <g transform="translate(398.924136 256.398125) scale(0.12 -0.12)">
       <use xlink:href="#DejaVuSans-32"/>
      </g>
     </g>
    </g>
    <g id="xtick_26">
     <g id="line2d_107">
      <g>
       <use xlink:href="#mf64cd2a1f1" x="456.989193" y="240.28" style="stroke: #000000; stroke-width: 0.8"/>
      </g>
     </g>
     <g id="text_28">
      <!-- 12 -->
      <g transform="translate(449.354193 256.398125) scale(0.12 -0.12)">
       <use xlink:href="#DejaVuSans-31"/>
       <use xlink:href="#DejaVuSans-32" x="63.623047"/>
      </g>
     </g>
    </g>
    <g id="xtick_27">
     <g id="line2d_108">
      <g>
       <use xlink:href="#mf64cd2a1f1" x="511.236751" y="240.28" style="stroke: #000000; stroke-width: 0.8"/>
      </g>
     </g>
     <g id="text_29">
      <!-- 22 -->
      <g transform="translate(503.601751 256.398125) scale(0.12 -0.12)">
       <use xlink:href="#DejaVuSans-32"/>
       <use xlink:href="#DejaVuSans-32" x="63.623047"/>
      </g>
     </g>
    </g>
    <g id="xtick_28">
     <g id="line2d_109">
      <g>
       <use xlink:href="#mf64cd2a1f1" x="565.484309" y="240.28" style="stroke: #000000; stroke-width: 0.8"/>
      </g>
     </g>
     <g id="text_30">
      <!-- 32 -->
      <g transform="translate(557.849309 256.398125) scale(0.12 -0.12)">
       <use xlink:href="#DejaVuSans-33"/>
       <use xlink:href="#DejaVuSans-32" x="63.623047"/>
      </g>
     </g>
    </g>
    <g id="xtick_29">
     <g id="line2d_110">
      <g>
       <use xlink:href="#mf64cd2a1f1" x="619.731867" y="240.28" style="stroke: #000000; stroke-width: 0.8"/>
      </g>
     </g>
     <g id="text_31">
      <!-- 42 -->
      <g transform="translate(612.096867 256.398125) scale(0.12 -0.12)">
       <use xlink:href="#DejaVuSans-34"/>
       <use xlink:href="#DejaVuSans-32" x="63.623047"/>
      </g>
     </g>
    </g>
    <g id="xtick_30">
     <g id="line2d_111">
      <g>
       <use xlink:href="#mf64cd2a1f1" x="657.705157" y="240.28" style="stroke: #000000; stroke-width: 0.8"/>
      </g>
     </g>
     <g id="text_32">
      <!-- 49 -->
      <g transform="translate(650.070157 256.398125) scale(0.12 -0.12)">
       <use xlink:href="#DejaVuSans-34"/>
       <use xlink:href="#DejaVuSans-39" x="63.623047"/>
      </g>
     </g>
    </g>
    <g id="text_33">
     <!-- $d$ -->
     <g transform="translate(526.383396 272.011875) scale(0.12 -0.12)">
      <use xlink:href="#DejaVuSans-Oblique-64" transform="translate(0 0.015625)"/>
     </g>
    </g>
   </g>
   <g id="matplotlib.axis_10">
    <g id="ytick_67">
     <g id="line2d_112">
      <g>
       <use xlink:href="#mfdec5106ef" x="389.99346" y="204.341168" style="stroke: #000000; stroke-width: 0.8"/>
      </g>
     </g>
     <g id="text_34">
      <!-- $\mathdefault{10^{-1}}$ -->
      <g transform="translate(354.79346 208.90023) scale(0.12 -0.12)">
       <use xlink:href="#DejaVuSans-31" transform="translate(0 0.684375)"/>
       <use xlink:href="#DejaVuSans-30" transform="translate(63.623047 0.684375)"/>
       <use xlink:href="#DejaVuSans-2212" transform="translate(128.203125 38.965625) scale(0.7)"/>
       <use xlink:href="#DejaVuSans-31" transform="translate(186.855469 38.965625) scale(0.7)"/>
      </g>
     </g>
    </g>
    <g id="ytick_68">
     <g id="line2d_113">
      <g>
       <use xlink:href="#mfdec5106ef" x="389.99346" y="154.496422" style="stroke: #000000; stroke-width: 0.8"/>
      </g>
     </g>
     <g id="text_35">
      <!-- $\mathdefault{10^{1}}$ -->
      <g transform="translate(361.87346 159.055484) scale(0.12 -0.12)">
       <use xlink:href="#DejaVuSans-31" transform="translate(0 0.684375)"/>
       <use xlink:href="#DejaVuSans-30" transform="translate(63.623047 0.684375)"/>
       <use xlink:href="#DejaVuSans-31" transform="translate(128.203125 38.965625) scale(0.7)"/>
      </g>
     </g>
    </g>
   </g>
   <g id="line2d_114">
    <path d="M 402.741636 231.490769 
L 408.166391 227.108345 
L 413.591147 223.430089 
L 419.015903 219.465253 
L 424.440659 217.555094 
L 429.865415 215.503675 
L 435.29017 214.04181 
L 440.714926 213.031377 
L 446.139682 211.73013 
L 451.564438 210.804821 
L 456.989193 209.768293 
L 462.413949 208.853419 
L 467.838705 208.121831 
L 473.263461 207.432888 
L 478.688217 206.660666 
L 484.112972 206.10489 
L 489.537728 205.357742 
L 494.962484 204.830471 
L 500.38724 204.374761 
L 505.811995 203.645059 
L 511.236751 203.229171 
L 516.661507 202.61041 
L 522.086263 202.218703 
L 527.511019 201.611734 
L 532.935774 201.321562 
L 538.36053 201.169423 
L 543.785286 200.544406 
L 549.210042 200.158019 
L 554.634797 199.604009 
L 560.059553 199.320601 
L 565.484309 198.914106 
L 570.909065 198.653418 
L 576.333821 198.294162 
L 581.758576 198.057946 
L 587.183332 197.810252 
L 592.608088 197.248773 
L 598.032844 197.1598 
L 603.457599 196.618167 
L 608.882355 195.413712 
L 614.307111 195.196189 
L 619.731867 194.849039 
L 625.156623 194.641764 
L 630.581378 194.134199 
L 636.006134 194.092719 
L 641.43089 193.961063 
L 646.855646 193.616761 
L 652.280401 193.554456 
L 657.705157 193.261241 
" clip-path="url(#p2246ca6fe6)" style="fill: none; stroke: #ff0000; stroke-width: 1.5; stroke-linecap: square"/>
   </g>
   <g id="line2d_115">
    <path d="M 402.741636 223.650002 
L 408.166391 214.864585 
L 413.591147 208.011745 
L 419.015903 202.080748 
L 424.440659 198.852677 
L 429.865415 194.704345 
L 435.29017 191.88441 
L 440.714926 189.871788 
L 446.139682 187.427519 
L 451.564438 185.440725 
L 456.989193 183.363837 
L 462.413949 181.564269 
L 467.838705 180.103893 
L 473.263461 178.77865 
L 478.688217 177.039254 
L 484.112972 176.058388 
L 489.537728 174.60499 
L 494.962484 173.460357 
L 500.38724 172.507107 
L 505.811995 171.106166 
L 511.236751 170.260125 
L 516.661507 169.233072 
L 522.086263 168.605457 
L 527.511019 167.243464 
L 532.935774 166.702136 
L 538.36053 166.155389 
L 543.785286 165.11518 
L 549.210042 164.210915 
L 554.634797 163.094881 
L 560.059553 162.527135 
L 565.484309 161.802466 
L 570.909065 161.277701 
L 576.333821 160.687987 
L 581.758576 160.072862 
L 587.183332 159.660888 
L 592.608088 158.457254 
L 598.032844 158.13218 
L 603.457599 157.554743 
L 608.882355 157.182725 
L 614.307111 156.708275 
L 619.731867 156.276109 
L 625.156623 155.664373 
L 630.581378 154.730577 
L 636.006134 154.540628 
L 641.43089 154.227775 
L 646.855646 153.775879 
L 652.280401 153.354777 
L 657.705157 152.929545 
" clip-path="url(#p2246ca6fe6)" style="fill: none; stroke: #008000; stroke-width: 1.5; stroke-linecap: square"/>
   </g>
   <g id="line2d_116">
    <path d="M 402.741636 236.120455 
L 408.166391 228.52021 
L 413.591147 222.838997 
L 419.015903 217.759262 
L 424.440659 214.547244 
L 429.865415 211.005714 
L 435.29017 208.372066 
L 440.714926 206.428514 
L 446.139682 204.08723 
L 451.564438 202.142058 
L 456.989193 199.895232 
L 462.413949 198.778337 
L 467.838705 196.897017 
L 473.263461 195.35726 
L 478.688217 194.265558 
L 484.112972 193.374033 
L 489.537728 192.002244 
L 494.962484 190.644414 
L 500.38724 189.761653 
L 505.811995 188.458787 
L 511.236751 187.590284 
L 516.661507 186.736759 
L 522.086263 185.781715 
L 527.511019 184.325442 
L 532.935774 183.895128 
L 538.36053 183.319696 
L 543.785286 182.487188 
L 549.210042 181.918623 
L 554.634797 181.016219 
L 560.059553 180.460079 
L 565.484309 179.718044 
L 570.909065 179.111466 
L 576.333821 178.523591 
L 581.758576 178.132528 
L 587.183332 178.263785 
L 592.608088 177.553659 
L 598.032844 176.908329 
L 603.457599 175.561054 
L 608.882355 174.283917 
L 614.307111 173.550793 
L 619.731867 173.108989 
L 625.156623 172.615597 
L 630.581378 171.756043 
L 636.006134 171.218675 
L 641.43089 171.191657 
L 646.855646 170.620646 
L 652.280401 170.346878 
L 657.705157 169.982595 
" clip-path="url(#p2246ca6fe6)" style="fill: none; stroke: #0000ff; stroke-width: 1.5; stroke-linecap: square"/>
   </g>
   <g id="patch_24">
    <path d="M 389.99346 240.28 
L 389.99346 148.77 
" style="fill: none; stroke: #000000; stroke-width: 0.8; stroke-linejoin: miter; stroke-linecap: square"/>
   </g>
   <g id="patch_25">
    <path d="M 670.453333 240.28 
L 670.453333 148.77 
" style="fill: none; stroke: #000000; stroke-width: 0.8; stroke-linejoin: miter; stroke-linecap: square"/>
   </g>
   <g id="patch_26">
    <path d="M 389.99346 240.28 
L 670.453333 240.28 
" style="fill: none; stroke: #000000; stroke-width: 0.8; stroke-linejoin: miter; stroke-linecap: square"/>
   </g>
   <g id="patch_27">
    <path d="M 389.99346 148.77 
L 670.453333 148.77 
" style="fill: none; stroke: #000000; stroke-width: 0.8; stroke-linejoin: miter; stroke-linecap: square"/>
   </g>
   <g id="text_36">
    <!-- $n = 6$ -->
    <g transform="translate(515.223396 142.77) scale(0.12 -0.12)">
     <defs>
      <path id="DejaVuSans-36" d="M 2113 2584 
Q 1688 2584 1439 2293 
Q 1191 2003 1191 1497 
Q 1191 994 1439 701 
Q 1688 409 2113 409 
Q 2538 409 2786 701 
Q 3034 994 3034 1497 
Q 3034 2003 2786 2293 
Q 2538 2584 2113 2584 
z
M 3366 4563 
L 3366 3988 
Q 3128 4100 2886 4159 
Q 2644 4219 2406 4219 
Q 1781 4219 1451 3797 
Q 1122 3375 1075 2522 
Q 1259 2794 1537 2939 
Q 1816 3084 2150 3084 
Q 2853 3084 3261 2657 
Q 3669 2231 3669 1497 
Q 3669 778 3244 343 
Q 2819 -91 2113 -91 
Q 1303 -91 875 529 
Q 447 1150 447 2328 
Q 447 3434 972 4092 
Q 1497 4750 2381 4750 
Q 2619 4750 2861 4703 
Q 3103 4656 3366 4563 
z
" transform="scale(0.015625)"/>
     </defs>
     <use xlink:href="#DejaVuSans-Oblique-6e" transform="translate(0 0.78125)"/>
     <use xlink:href="#DejaVuSans-3d" transform="translate(82.861328 0.78125)"/>
     <use xlink:href="#DejaVuSans-36" transform="translate(186.132812 0.78125)"/>
    </g>
   </g>
  </g>
  <g id="axes_6">
   <g id="patch_28">
    <path d="M 716.740126 240.28 
L 997.2 240.28 
L 997.2 148.77 
L 716.740126 148.77 
z
" style="fill: #ffffff"/>
   </g>
   <g id="matplotlib.axis_11">
    <g id="xtick_31">
     <g id="line2d_117">
      <g>
       <use xlink:href="#mf64cd2a1f1" x="729.488302" y="240.28" style="stroke: #000000; stroke-width: 0.8"/>
      </g>
     </g>
     <g id="text_37">
      <!-- 2 -->
      <g transform="translate(725.670802 256.398125) scale(0.12 -0.12)">
       <use xlink:href="#DejaVuSans-32"/>
      </g>
     </g>
    </g>
    <g id="xtick_32">
     <g id="line2d_118">
      <g>
       <use xlink:href="#mf64cd2a1f1" x="783.73586" y="240.28" style="stroke: #000000; stroke-width: 0.8"/>
      </g>
     </g>
     <g id="text_38">
      <!-- 12 -->
      <g transform="translate(776.10086 256.398125) scale(0.12 -0.12)">
       <use xlink:href="#DejaVuSans-31"/>
       <use xlink:href="#DejaVuSans-32" x="63.623047"/>
      </g>
     </g>
    </g>
    <g id="xtick_33">
     <g id="line2d_119">
      <g>
       <use xlink:href="#mf64cd2a1f1" x="837.983418" y="240.28" style="stroke: #000000; stroke-width: 0.8"/>
      </g>
     </g>
     <g id="text_39">
      <!-- 22 -->
      <g transform="translate(830.348418 256.398125) scale(0.12 -0.12)">
       <use xlink:href="#DejaVuSans-32"/>
       <use xlink:href="#DejaVuSans-32" x="63.623047"/>
      </g>
     </g>
    </g>
    <g id="xtick_34">
     <g id="line2d_120">
      <g>
       <use xlink:href="#mf64cd2a1f1" x="892.230976" y="240.28" style="stroke: #000000; stroke-width: 0.8"/>
      </g>
     </g>
     <g id="text_40">
      <!-- 32 -->
      <g transform="translate(884.595976 256.398125) scale(0.12 -0.12)">
       <use xlink:href="#DejaVuSans-33"/>
       <use xlink:href="#DejaVuSans-32" x="63.623047"/>
      </g>
     </g>
    </g>
    <g id="xtick_35">
     <g id="line2d_121">
      <g>
       <use xlink:href="#mf64cd2a1f1" x="946.478533" y="240.28" style="stroke: #000000; stroke-width: 0.8"/>
      </g>
     </g>
     <g id="text_41">
      <!-- 42 -->
      <g transform="translate(938.843533 256.398125) scale(0.12 -0.12)">
       <use xlink:href="#DejaVuSans-34"/>
       <use xlink:href="#DejaVuSans-32" x="63.623047"/>
      </g>
     </g>
    </g>
    <g id="xtick_36">
     <g id="line2d_122">
      <g>
       <use xlink:href="#mf64cd2a1f1" x="984.451824" y="240.28" style="stroke: #000000; stroke-width: 0.8"/>
      </g>
     </g>
     <g id="text_42">
      <!-- 49 -->
      <g transform="translate(976.816824 256.398125) scale(0.12 -0.12)">
       <use xlink:href="#DejaVuSans-34"/>
       <use xlink:href="#DejaVuSans-39" x="63.623047"/>
      </g>
     </g>
    </g>
    <g id="text_43">
     <!-- $d$ -->
     <g transform="translate(853.130063 272.011875) scale(0.12 -0.12)">
      <use xlink:href="#DejaVuSans-Oblique-64" transform="translate(0 0.015625)"/>
     </g>
    </g>
   </g>
   <g id="matplotlib.axis_12">
    <g id="ytick_69">
     <g id="line2d_123">
      <g>
       <use xlink:href="#mfdec5106ef" x="716.740126" y="214.086028" style="stroke: #000000; stroke-width: 0.8"/>
      </g>
     </g>
     <g id="text_44">
      <!-- $\mathdefault{10^{-1}}$ -->
      <g transform="translate(681.540126 218.64509) scale(0.12 -0.12)">
       <use xlink:href="#DejaVuSans-31" transform="translate(0 0.684375)"/>
       <use xlink:href="#DejaVuSans-30" transform="translate(63.623047 0.684375)"/>
       <use xlink:href="#DejaVuSans-2212" transform="translate(128.203125 38.965625) scale(0.7)"/>
       <use xlink:href="#DejaVuSans-31" transform="translate(186.855469 38.965625) scale(0.7)"/>
      </g>
     </g>
    </g>
    <g id="ytick_70">
     <g id="line2d_124">
      <g>
       <use xlink:href="#mfdec5106ef" x="716.740126" y="187.682497" style="stroke: #000000; stroke-width: 0.8"/>
      </g>
     </g>
     <g id="text_45">
      <!-- $\mathdefault{10^{0}}$ -->
      <g transform="translate(688.620126 192.241559) scale(0.12 -0.12)">
       <use xlink:href="#DejaVuSans-31" transform="translate(0 0.765625)"/>
       <use xlink:href="#DejaVuSans-30" transform="translate(63.623047 0.765625)"/>
       <use xlink:href="#DejaVuSans-30" transform="translate(128.203125 39.046875) scale(0.7)"/>
      </g>
     </g>
    </g>
    <g id="ytick_71">
     <g id="line2d_125">
      <g>
       <use xlink:href="#mfdec5106ef" x="716.740126" y="161.278966" style="stroke: #000000; stroke-width: 0.8"/>
      </g>
     </g>
     <g id="text_46">
      <!-- $\mathdefault{10^{1}}$ -->
      <g transform="translate(688.620126 165.838029) scale(0.12 -0.12)">
       <use xlink:href="#DejaVuSans-31" transform="translate(0 0.684375)"/>
       <use xlink:href="#DejaVuSans-30" transform="translate(63.623047 0.684375)"/>
       <use xlink:href="#DejaVuSans-31" transform="translate(128.203125 38.965625) scale(0.7)"/>
      </g>
     </g>
    </g>
    <g id="ytick_72">
     <g id="line2d_126">
      <g>
       <use xlink:href="#m0a614ba5b2" x="716.740126" y="232.541304" style="stroke: #000000; stroke-width: 0.6"/>
      </g>
     </g>
    </g>
    <g id="ytick_73">
     <g id="line2d_127">
      <g>
       <use xlink:href="#m0a614ba5b2" x="716.740126" y="227.891873" style="stroke: #000000; stroke-width: 0.6"/>
      </g>
     </g>
    </g>
    <g id="ytick_74">
     <g id="line2d_128">
      <g>
       <use xlink:href="#m0a614ba5b2" x="716.740126" y="224.593049" style="stroke: #000000; stroke-width: 0.6"/>
      </g>
     </g>
    </g>
    <g id="ytick_75">
     <g id="line2d_129">
      <g>
       <use xlink:href="#m0a614ba5b2" x="716.740126" y="222.034282" style="stroke: #000000; stroke-width: 0.6"/>
      </g>
     </g>
    </g>
    <g id="ytick_76">
     <g id="line2d_130">
      <g>
       <use xlink:href="#m0a614ba5b2" x="716.740126" y="219.943618" style="stroke: #000000; stroke-width: 0.6"/>
      </g>
     </g>
    </g>
    <g id="ytick_77">
     <g id="line2d_131">
      <g>
       <use xlink:href="#m0a614ba5b2" x="716.740126" y="218.175986" style="stroke: #000000; stroke-width: 0.6"/>
      </g>
     </g>
    </g>
    <g id="ytick_78">
     <g id="line2d_132">
      <g>
       <use xlink:href="#m0a614ba5b2" x="716.740126" y="216.644794" style="stroke: #000000; stroke-width: 0.6"/>
      </g>
     </g>
    </g>
    <g id="ytick_79">
     <g id="line2d_133">
      <g>
       <use xlink:href="#m0a614ba5b2" x="716.740126" y="215.294187" style="stroke: #000000; stroke-width: 0.6"/>
      </g>
     </g>
    </g>
    <g id="ytick_80">
     <g id="line2d_134">
      <g>
       <use xlink:href="#m0a614ba5b2" x="716.740126" y="206.137773" style="stroke: #000000; stroke-width: 0.6"/>
      </g>
     </g>
    </g>
    <g id="ytick_81">
     <g id="line2d_135">
      <g>
       <use xlink:href="#m0a614ba5b2" x="716.740126" y="201.488342" style="stroke: #000000; stroke-width: 0.6"/>
      </g>
     </g>
    </g>
    <g id="ytick_82">
     <g id="line2d_136">
      <g>
       <use xlink:href="#m0a614ba5b2" x="716.740126" y="198.189518" style="stroke: #000000; stroke-width: 0.6"/>
      </g>
     </g>
    </g>
    <g id="ytick_83">
     <g id="line2d_137">
      <g>
       <use xlink:href="#m0a614ba5b2" x="716.740126" y="195.630752" style="stroke: #000000; stroke-width: 0.6"/>
      </g>
     </g>
    </g>
    <g id="ytick_84">
     <g id="line2d_138">
      <g>
       <use xlink:href="#m0a614ba5b2" x="716.740126" y="193.540087" style="stroke: #000000; stroke-width: 0.6"/>
      </g>
     </g>
    </g>
    <g id="ytick_85">
     <g id="line2d_139">
      <g>
       <use xlink:href="#m0a614ba5b2" x="716.740126" y="191.772456" style="stroke: #000000; stroke-width: 0.6"/>
      </g>
     </g>
    </g>
    <g id="ytick_86">
     <g id="line2d_140">
      <g>
       <use xlink:href="#m0a614ba5b2" x="716.740126" y="190.241263" style="stroke: #000000; stroke-width: 0.6"/>
      </g>
     </g>
    </g>
    <g id="ytick_87">
     <g id="line2d_141">
      <g>
       <use xlink:href="#m0a614ba5b2" x="716.740126" y="188.890656" style="stroke: #000000; stroke-width: 0.6"/>
      </g>
     </g>
    </g>
    <g id="ytick_88">
     <g id="line2d_142">
      <g>
       <use xlink:href="#m0a614ba5b2" x="716.740126" y="179.734242" style="stroke: #000000; stroke-width: 0.6"/>
      </g>
     </g>
    </g>
    <g id="ytick_89">
     <g id="line2d_143">
      <g>
       <use xlink:href="#m0a614ba5b2" x="716.740126" y="175.084811" style="stroke: #000000; stroke-width: 0.6"/>
      </g>
     </g>
    </g>
    <g id="ytick_90">
     <g id="line2d_144">
      <g>
       <use xlink:href="#m0a614ba5b2" x="716.740126" y="171.785987" style="stroke: #000000; stroke-width: 0.6"/>
      </g>
     </g>
    </g>
    <g id="ytick_91">
     <g id="line2d_145">
      <g>
       <use xlink:href="#m0a614ba5b2" x="716.740126" y="169.227221" style="stroke: #000000; stroke-width: 0.6"/>
      </g>
     </g>
    </g>
    <g id="ytick_92">
     <g id="line2d_146">
      <g>
       <use xlink:href="#m0a614ba5b2" x="716.740126" y="167.136556" style="stroke: #000000; stroke-width: 0.6"/>
      </g>
     </g>
    </g>
    <g id="ytick_93">
     <g id="line2d_147">
      <g>
       <use xlink:href="#m0a614ba5b2" x="716.740126" y="165.368925" style="stroke: #000000; stroke-width: 0.6"/>
      </g>
     </g>
    </g>
    <g id="ytick_94">
     <g id="line2d_148">
      <g>
       <use xlink:href="#m0a614ba5b2" x="716.740126" y="163.837733" style="stroke: #000000; stroke-width: 0.6"/>
      </g>
     </g>
    </g>
    <g id="ytick_95">
     <g id="line2d_149">
      <g>
       <use xlink:href="#m0a614ba5b2" x="716.740126" y="162.487125" style="stroke: #000000; stroke-width: 0.6"/>
      </g>
     </g>
    </g>
    <g id="ytick_96">
     <g id="line2d_150">
      <g>
       <use xlink:href="#m0a614ba5b2" x="716.740126" y="153.330711" style="stroke: #000000; stroke-width: 0.6"/>
      </g>
     </g>
    </g>
   </g>
   <g id="line2d_151">
    <path d="M 729.488302 233.224891 
L 734.913058 227.773915 
L 740.337814 224.871147 
L 745.76257 222.459128 
L 751.187325 220.27852 
L 756.612081 218.334521 
L 762.036837 217.06213 
L 767.461593 214.582925 
L 772.886349 213.689846 
L 778.311104 212.424322 
L 783.73586 211.235323 
L 789.160616 210.432487 
L 794.585372 209.459915 
L 800.010127 208.660438 
L 805.434883 207.858928 
L 810.859639 207.067992 
L 816.284395 206.654318 
L 821.709151 205.735498 
L 827.133906 205.382085 
L 832.558662 205.138718 
L 837.983418 205.580622 
L 843.408174 205.282377 
L 848.832929 204.903799 
L 854.257685 204.355914 
L 859.682441 203.878588 
L 865.107197 203.481944 
L 870.531953 203.132164 
L 875.956708 202.789797 
L 881.381464 202.284456 
L 886.80622 202.061236 
L 892.230976 201.445245 
L 897.655731 201.273995 
L 903.080487 200.790263 
L 908.505243 200.551656 
L 913.929999 200.209956 
L 919.354755 199.827984 
L 924.77951 199.494479 
L 930.204266 199.261766 
L 935.629022 198.917736 
L 941.053778 198.709545 
L 946.478533 198.420576 
L 951.903289 198.205045 
L 957.328045 197.949391 
L 962.752801 197.818703 
L 968.177557 197.567634 
L 973.602312 197.18444 
L 979.027068 197.04013 
L 984.451824 196.771079 
" clip-path="url(#pcd0bf1ac92)" style="fill: none; stroke: #ff0000; stroke-width: 1.5; stroke-linecap: square"/>
   </g>
   <g id="line2d_152">
    <path d="M 729.488302 224.600209 
L 734.913058 215.399288 
L 740.337814 209.558482 
L 745.76257 204.686014 
L 751.187325 200.231138 
L 756.612081 196.568132 
L 762.036837 193.602485 
L 767.461593 189.567969 
L 772.886349 187.500669 
L 778.311104 185.185159 
L 783.73586 182.865933 
L 789.160616 181.181695 
L 794.585372 178.987117 
L 800.010127 177.69276 
L 805.434883 176.200347 
L 810.859639 174.472254 
L 816.284395 173.733762 
L 821.709151 171.985736 
L 827.133906 171.126279 
L 832.558662 170.269952 
L 837.983418 171.019882 
L 843.408174 170.080194 
L 848.832929 169.312874 
L 854.257685 168.271924 
L 859.682441 167.385993 
L 865.107197 166.555239 
L 870.531953 165.831952 
L 875.956708 165.301294 
L 881.381464 164.354861 
L 886.80622 163.913094 
L 892.230976 162.484592 
L 897.655731 162.136097 
L 903.080487 161.174323 
L 908.505243 160.586625 
L 913.929999 159.921715 
L 919.354755 159.338878 
L 924.77951 158.785916 
L 930.204266 158.343279 
L 935.629022 157.921893 
L 941.053778 156.98641 
L 946.478533 156.452928 
L 951.903289 155.85033 
L 957.328045 155.352089 
L 962.752801 155.084107 
L 968.177557 154.446652 
L 973.602312 153.906515 
L 979.027068 153.523968 
L 984.451824 152.929545 
" clip-path="url(#pcd0bf1ac92)" style="fill: none; stroke: #008000; stroke-width: 1.5; stroke-linecap: square"/>
   </g>
   <g id="line2d_153">
    <path d="M 729.488302 236.120455 
L 734.913058 228.287346 
L 740.337814 222.808029 
L 745.76257 219.511383 
L 751.187325 215.999734 
L 756.612081 213.129294 
L 762.036837 211.475541 
L 767.461593 207.505346 
L 772.886349 206.189071 
L 778.311104 203.443231 
L 783.73586 201.182025 
L 789.160616 199.83577 
L 794.585372 198.231609 
L 800.010127 196.33317 
L 805.434883 193.339902 
L 810.859639 190.92781 
L 816.284395 189.741728 
L 821.709151 188.524002 
L 827.133906 187.57432 
L 832.558662 187.882825 
L 837.983418 191.534876 
L 843.408174 189.449544 
L 848.832929 188.476032 
L 854.257685 187.847007 
L 859.682441 187.093421 
L 865.107197 186.739359 
L 870.531953 185.754907 
L 875.956708 185.358243 
L 881.381464 184.681134 
L 886.80622 184.670364 
L 892.230976 183.416553 
L 897.655731 182.705853 
L 903.080487 181.584096 
L 908.505243 181.022992 
L 913.929999 180.470188 
L 919.354755 179.636621 
L 924.77951 179.527722 
L 930.204266 179.084126 
L 935.629022 178.626005 
L 941.053778 177.660022 
L 946.478533 177.41131 
L 951.903289 176.770461 
L 957.328045 176.158777 
L 962.752801 175.996853 
L 968.177557 175.315868 
L 973.602312 174.948222 
L 979.027068 174.46691 
L 984.451824 173.993941 
" clip-path="url(#pcd0bf1ac92)" style="fill: none; stroke: #0000ff; stroke-width: 1.5; stroke-linecap: square"/>
   </g>
   <g id="patch_29">
    <path d="M 716.740126 240.28 
L 716.740126 148.77 
" style="fill: none; stroke: #000000; stroke-width: 0.8; stroke-linejoin: miter; stroke-linecap: square"/>
   </g>
   <g id="patch_30">
    <path d="M 997.2 240.28 
L 997.2 148.77 
" style="fill: none; stroke: #000000; stroke-width: 0.8; stroke-linejoin: miter; stroke-linecap: square"/>
   </g>
   <g id="patch_31">
    <path d="M 716.740126 240.28 
L 997.2 240.28 
" style="fill: none; stroke: #000000; stroke-width: 0.8; stroke-linejoin: miter; stroke-linecap: square"/>
   </g>
   <g id="patch_32">
    <path d="M 716.740126 148.77 
L 997.2 148.77 
" style="fill: none; stroke: #000000; stroke-width: 0.8; stroke-linejoin: miter; stroke-linecap: square"/>
   </g>
   <g id="text_47">
    <!-- $n = 7$ -->
    <g transform="translate(841.970063 142.77) scale(0.12 -0.12)">
     <defs>
      <path id="DejaVuSans-37" d="M 525 4666 
L 3525 4666 
L 3525 4397 
L 1831 0 
L 1172 0 
L 2766 4134 
L 525 4134 
L 525 4666 
z
" transform="scale(0.015625)"/>
     </defs>
     <use xlink:href="#DejaVuSans-Oblique-6e" transform="translate(0 0.09375)"/>
     <use xlink:href="#DejaVuSans-3d" transform="translate(82.861328 0.09375)"/>
     <use xlink:href="#DejaVuSans-37" transform="translate(186.132812 0.09375)"/>
    </g>
   </g>
  </g>
 </g>
 <defs>
  <clipPath id="pb90842d806">
   <rect x="63.246793" y="26.88" width="280.459874" height="91.51"/>
  </clipPath>
  <clipPath id="pb357696ac3">
   <rect x="389.99346" y="26.88" width="280.459874" height="91.51"/>
  </clipPath>
  <clipPath id="p2dcff9eedc">
   <rect x="716.740126" y="26.88" width="280.459874" height="91.51"/>
  </clipPath>
  <clipPath id="paa195752c3">
   <rect x="63.246793" y="148.77" width="280.459874" height="91.51"/>
  </clipPath>
  <clipPath id="p2246ca6fe6">
   <rect x="389.99346" y="148.77" width="280.459874" height="91.51"/>
  </clipPath>
  <clipPath id="pcd0bf1ac92">
   <rect x="716.740126" y="148.77" width="280.459874" height="91.51"/>
  </clipPath>
 </defs>
</svg>
